<mxfile host="Electron" agent="Mozilla/5.0 (Windows NT 10.0; Win64; x64) AppleWebKit/537.36 (KHTML, like Gecko) draw.io/25.0.2 Chrome/128.0.6613.186 Electron/32.2.5 Safari/537.36" version="25.0.2">
  <diagram name="Page-1" id="sSXYBnYM5v1uYBLcrtkr">
    <mxGraphModel dx="5815" dy="4784" grid="1" gridSize="10" guides="1" tooltips="1" connect="1" arrows="1" fold="1" page="1" pageScale="1" pageWidth="827" pageHeight="1169" math="0" shadow="0">
      <root>
        <mxCell id="0" />
        <mxCell id="1" parent="0" />
        <mxCell id="NbFPQuNMTiih6UTvrpNB-83" value="" style="shape=image;verticalLabelPosition=bottom;labelBackgroundColor=default;verticalAlign=top;aspect=fixed;imageAspect=0;image=data:image/png,iVBORw0KGgoAAAANSUhEUgAAAugAAAbOCAYAAAAP4MKoAAAAAXNSR0IArs4c6QAAAARnQU1BAACxjwv8YQUAAAAJcEhZcwAAFiUAABYlAUlSJPAAAP+lSURBVHhe7P3/kx3Hfe/3558CZP9IWPc/IO37FzgpgZaXdvSDQLnq3h9yXeWE3IVcSW6KS99UKomT6HLJlSJB5fyQT8VJla+5FIWzIinri0mIIL5o1xT4BQRAAJxPv7vfPdPd8+3MnDlnes8+H1Vd2PnW090zi32d2T5n/7MCAAAAQOQ/m5O2AQAAAIDSqDwPbQMAAAAApVF5HtoGAAAAAEqj8jy0DQAAAACURuV5aBsAAAAAKI3K89A2AAAAAFAaleehbQAAAACgNCrPQ9sAAAAAQGlUnoe2AQAAAIDSqDwPbQMAAAAApVF5HtoGAAAAAEqj8jy0DVn49POHxZ3TT4ubd+8VH975HYVybot8D8j3gnxPAACAzdOoPA9tw6weP3liw8jJ7z4vPrv/qHjw6Enx8EsK5fwW+R6Q7wX5npDvDfkeAQAAm6NReR7ahllJAPn4k/uNQYVCOe9FvjfkewQAAGyORuV5aBtmI7/Cl6eETcGEQqG4It8jTHcBAGBzNCrPQ9swG3kyKL/KbwolFArFFfke4Sk6AACbo1F5HtqG2cib4ZhzTqF0F/keke8VAACwGRqV56FtmI18YkVTIKFQKHGR7xUAALAZGpXnoW2YDQGdQlmuENABANgcjcrz0DbMhoBOoSxXCOgAAGyORuV5aBtmQ0CnUJYrBHQAADZHo/I8tA2zIaBTKMsVAjoAAJujUXke2obZENAplOUKAR0AgM3RqDwPbcNsCOgUynKFgA4AwOZoVJ6HtmE2BHQKZblCQAcAYHM0Ks9D2zAbAjqFslwhoAMAsDkaleehbZgNAZ1CWa4Q0AEA2ByNyvPQNsyGgE6hLFcI6AAAbI5G5XloG2YzWUD/8IfFN595trgQlm/8sLjVtO8Gy63vfdu25aV/aN4+W/mHV7IaJ0p/IaADALA5GpXnoW2YzRQB/a2XGoJmGdi/Xbz2Ybz/Wos572tBGM82oJvi27apgP7W93ghsEohoAMAsDkaleehbZjNqgG9DJnPvFK8NWDbesqt4rVv5BnGm8pGA7o8sedJ/UqFgA4AwOZoVJ6HtmE2qwX068VLNoCb8tL1+vZg2ss3v3ervn3i4p/kE9CT4q8DAX2lQkAHAGBzNCrPQ9swm5UCejCPujmABwHehsNg2T5Vd0+83XI8FaZ6+m5KGP7DudvBtnKaTVleKf7voI6ofUkdVaBP2vO9YL+gDVHbTGl/8RHWV983DOivBe2v1dfa3iXGs+G9Ab3Xyhb3W4+wr/a4sC06Jum1Cvt1K9rf9HOZ6y0leDERt+F6UIdrY3jt0xdnadvCbUMLAR0AgM3RqDwPbcNsNhvQzboyMOq0l3K5Cmw+VLk6XR3uaw2gPmjJ+e3Xt4pbH1bnagrcZfu0zX7Zn6s8Jgy0Unfa3qg97viy7qRE/ejoZ3X+qr1le5Zub8t4fnireMufJwi9aXH1hn30X1cB2LehDMRB4A1Dsuxnl/V81TbXprS+ss12/4ZrFqxL65AiY1GOZUOwd/XE121MIaADALA5GpXnoW0Y7dPPHxZ3Tj8tbt69ZwPEmNIURpYqawnoPowly2nYqz0NXSagV8tpAK63zwfctvYNDXu+fb6e7lDpX3gs39628Ww+T62U17IK5r6kgbrpGrRfl/q2rn3D7dX41sc8raPeR39M833kzzWkNH3vUCgUCoVCiYtkUsmmklFXoVF5HtqGwR4/eWI7/y/37hcPHz0uvvpKNwwkA9kURpYrQQBvCltlWAzCVm+gDOqMSv2JrpQqjC8T0Bv2SYNp2p6GwBvWG69vKcELmXD//oA+pL1t47lkQJcStjO4nmlgbgrYTevatrXvG1/71QJ6/300tMj3CgAA6CaZVLKpZFTJqpJZx9CoPA9tw2DulckDXRpvtYAeBKWG4FOGpjDE9gbKpqDdVPx+Xcelwa5argVeH+zS9jQE3rKkfUmL325DZNre7oA+vL0TBHQt/pqmYbgtHLeta9tW39f30/UhPd+qAb37Plq+ENABABhGsqpk1jHPkTUqz0PbMIj8ykBelUxh1YAehqconJVBMQlIaYAsn9pWgbIMX2XYknNIeJN/g6Bsj/XLVTte+gfz9UtybLWuDHt6Pr/sg13ZxrR9tcArwa8K5O745oAeBc2Gfpahsjzetzeob2h7G85TrpPxNF83BVaptxwjDbd+OQ7D1ZiG1zsNzGFJt9X2DdsXBOuqPfXrmNZRjmXwIqTcp3Yfue1DCwEdAIDhJLOOme6iUXke2oZB5JWI/OpgCqsHdFeqsBmWICQGpQxOUkzg9kG+MVzZ4usxAeslEzB9QDSlCnFhG9z+aZt8MG1bH4VPKSbMhecqA6S0wa8zpSnwSonOE36CifZTtkv74/bUA2R7e13pH88q9DYFaCm3vmf69FJwnuBahC+2ZGy/GYyJtKWzfeULBt1mxi5aln2j+l8pXivra7qOZl346TqmvPS98HhTgj4230fjCgEdAIDhJLOOeYquUXke2oZBZPL92DnnqakCuitBwA0DHoWyBYWADgDAcJJZP5LsqsvL0qg8D23DIFMGhWkDuinh01BCOmWLCgEdAIBxbt793eCHyxqV56FtGCTrgG5LMKVCS9s0EArlrBQCOgAA4xDQB1pPQKdQtq8Q0AEAGIeAPhABnUJZrhDQAQAYh4A+EAGdQlmuENABABiHgD4QAZ1CWa4Q0AEAGIeAPhABnUJZrhDQAQAYh4A+EAGdQlmuENABABiHgD4QAZ1CWa4Q0AEAGIeAPhABnUJZrhDQAQAYh4A+EAGdQlmuENABABiHgD7Qzbv3igePmgMJhUJxRb5H5HsFAAAMR0Af6M7pp8Vn9x81hhIKheKKfI/I9woAABiOgD7Qp58/LE5+93ljKKFQKK7I94h8rwAAgOEI6CPIk8GPP7nfGEwolPNe5HuDp+cAAIxHQB/h8ZMnNoDIU0L5VT5z0innvcj3gHwvyPeEfG/I9wgAABiHgL4C+RW+hBF5M5ycg0I5r0W+B+R7gWktAACsjoAOAAAAZISADgAAAGSEgA4AAABkhIAOAAAAZISADgAAAGSEgA4AAABkhIAOAAAAZISADgAAAGSEgA4AAABkhIAOAAAAZISADgAAAGSEgA4AAABkhIAOAAAAZISADgAAAGSEgA4AQOr2j4sXLj1XXHjm2eLC5R8VJ7euFVcP7g7+gTkp26b94vrTORsBbIC51//8639YXJTvv2/8sLj70bXiu6/fKWa99W2bXi1++vhpsYlmENABAIjcLb7//HPF3ptfuR/EGtZ3XrtT/sA8ff3V4vC2bt+I4+LqHzxnAssrBHRsOfP9980/Kq7+4xMXyDWs7/zHW8UT//33xt8U37+1maDs/Kz47r/6o+Jr5vvvbQJ6M23DIAR0AMDS/JPq8KejWVc+QbfbrxRv3NpkQDd8uwjo2GY2kO8XP30SBGGzrnyCbre/WLxxc5MB3bDn5Ql6K23DIAR0AMDyjourl54rLsrUlvQnpA3JOvXFFPtU/fY1G9j3Xr5SXLyk68xhiz1Th1ku99Oq7PrdRfHbgxeLr8l2c57fludxT+/tr/bLok/N7bldQK/qDre5Nld1AWfRz4rvfv0Pi6/J1Bb/yNyzIVmnvpjyp/JU/ZYL7Lvm++9r5nvArntqvouv/lHxe/r959cJu373enHnte8Uv/8H5nvZnOdOeZ67xQ+++Ufu+zL4/rNPzYOAvrj6r4vf+4N0m2lXVNdqCOgAAKQ08Nof0C8v4h+Udpt/gq5h3uyXhvAXDnRZ65IpMycmlMeh3U1d8dNpfHi3TwqPXjVBIXhibuuplk9ff7G4elQ9xV+8/uPilHCObeADr/3+u1489t8Dwm7zT9Bl6okJ82a/NIT/2Wu6rHXt/qcnxW9f/wsTrN33tdv/2B6/Z7bJKXx4t+d762+K3//6fjWlxdZTPUE/feMviu++qdNwjOM3flychO1cEQEdAIAWEoJdoA6mtNig3LFsQ/uLxWEwBcbW8/w1+0Q+CuHRfPdk7ruddx7UY8+TBHatU/b9/uszv4kVmNjp69/RQP3t4nU/pcUG5WCKS7psQ/t3zPITXXZh+vee/5F9Ir8IQ7g+MXfz3cOv5aiqHpv77XmCKS6y/M1r+pT/Z8UP3rhbPNUXCFMgoAMA0EmnnfgpLxKMuwJ6uizkaXhvQHdB/mt+m62n/Qm6WOz9YXH1TRMYjn5cfH+jb1oFNsV8j8i0k8s65cV8H3QG9HK5Cuj2afif9AV0F+R/f0+32XqSQJ7MQT+++q/N99/j4qn5/vuB+X6fMJ8T0AEAiB0XV/eO4x+O5oezDcfLBHSd9lI9CTckoO8e2xDQFdDLFwPyq/3wqb3wbXAHOlKvaev1g2tMb8GW+Fnx3avmeyW8z2041jeO2q/7nqBX01YsCeh7Cxu8o2ksSUD3y24Oujy116fnwp4nDui+3rdfm3Z6iyCgAwAQqQdsO0XFhGr7A9MG5e4n5jaEX3pFPwkmDuFdAX2xF0+NidjzJAFdj38hmP8OnG0mYH89Dth2qkv0ZLsroMuTbRPCzfefmz9uvkeCEN4V0I+v/kXx/Y+CUB6y50kCuh7/gp/vPiECOgAAETefe7ErIdu9odP+saLyp2XwlPvlw2JX3yRqP1GlaR9T/BtIqzntsm5RvBHss2tCuryJNP4ECVNeNmH+lnxSjP/0mPiz0OUz2b/fFuqBM+dn9vvv+p6EbP0eiD7RxQVu+33y8hvFy5fcm0TLT1RJ9zHb/BtI7Vz08k2i1833nzlW93lZ30RqP9nF1qflpZ8Wjz+ScO4/PSb+LHT/mewT53MCOgAAuWj6JJZTs27R8ZOaT28BptH0SSynZt2xWdf2HTb1p7d4BHQAAHKgbySNP8e8YT586PaPi6t8eguwOn0jafw55g3z4UPm+8/+AaWpH58bBHQAADLh5q4Hv15PprN49tNeZD/+MBEwGTs/3f4Bour7L5zO4tlPe5GpMBP+YaIUAR0AAADICAEdAAAAyAgBHQAAAMgIAR0AgA72oxEv+z+pv33sfPbnt2Qu++0fF3/2B/rRlTI/P5y//9arxdfKj9B7pfhpxydzrIt8nrf8pdgnoz/1427x/T+pPhowLt8uXv8omS9t+vx7z18r7o4+36bFH49Y61/wWedW8BdCtw0BHQCAVu6PFl1M/6rn1jD9s4HW9O+jLeqfD+PyGfJRp/yn4qzS05+Nq0PCsm3T9RUCumP/cE8U9Kvg/qf/8XbS57Mn+sNEVhXc/WeabzsCOgAAbY5eLa4eHRd7JqT7Pza0VWz/FtvXPxOGr+7tFxdNv3b/8WnQr9UD+vGeCcK7JmSPqGP1J+hOPaA78ikkX7vU8KT5jKkHdMf9hdCz379lENABAGix2HvV/pEg+/GH0V8TVbflz+8nf3nQPrV1T973Xn7FhsTySa581rnfP3y6G9azwY9OrPr3h7Z/tfNKu/yUkbR/Zv2g/vl6NtE/CehH/i+zhr8dSAJ6w5QYG6JlisXL1037qyfTEvSvSzgvp1+4aTIydl/bfUX/omywzu/3jWqqzboDuu/Pjj5FT/erAvyiOPSfny/HlH8lU/pZ/Yl9mULi//KmL/YJ/S055sVi9+Urpr7n9Kl9OP0mDtEuWLvjXw7rb9EW0KWt8hc9d8q/DBrvVwX4665/8qRdj/H9k78YGvbv97+e9s/Ubfr359K/l0z/TP/dU3v3Z/19/w5umnq0muOr/7r8eMaX/9Pj3v4tg4AOAEAjH+bMlyZ4XpSgF01z0RD+pltnQ7wJQzao+D/hn4ZUX58ca37wu2PN18/7Oe7u2Bc28jQ77l8cZIVvowtaNsQP7p8cO0P/NKB/paHRvviwDfV9lq9/Vlz9E9Muu97t98JrLtj6p+RPfZvNNtuXYJs8QS/DfDinXQLvH+wX15+YZfv1i2Zc3RiuPaDLH9aRMCrTaN5MptSYMfmzgzvu+oV9NaH2zw6qr23fZEHabkLqGzZoh8cc23PIn9cPp9McX/2O/ZP3smjb97ybGy5ff9eMnd3PBv794m2TrvWwRvb4poCu/fua6dNj0z8bruVr2c/U/eev37FBWqbDvPCaC/G2f8HXv2f6Z/c3/ZMQ/oYN2i58u2NM//6VGQcf1jWFH1/9i+L7H7lQbj8H3fRPPgNdvv7umxr6beA3/Wv47PShCOgAADQ5+nHx/ds+sJpgZ8J4NA1EAuklE8T8Cgm5ZRB1+/vwLuybTf1TVV8k4L65b59CRus38ZQ57Z8Jc7X+SdD0IUn759rl9vfhXZR/PCnsh+1f8FTdlzIwr0kZ0GXB982FyzKgm32qN43G7XJPxfsDuq09WY6ZFwEmUO7pNJuNBnSzLdrP9FfC8U/lhYPunbL7S7C2+5swbV7A+DeYRnVF4V1ocA7H0j5Fv10c/ol/6lyVvqfo9lx9Ad1si56gLxGOJUxL/+wfF5L9g78cakO3rysK78KcV0N72L8D6Z8J9v63A2X/JniKTkAHAKDGhDL/lDgsJsBV01zcPj6E2wBuAoz7wVwP6PKE/YWD+pNjG2zL4zalvX/VCwPfPxd44nbWA7qE2mz6FwV0tyxhfPcfF8WeBnQJga5d9YYt+wQ93LcW0G0gdi8A/Dx4f861BXQJzvJipHOKi1zrV0xQD4Os66Pd9o0faiiXMFyF8PBJey2g22UJ/2GdQur4ThDkl9Ma0G1w7pvi4voXB3XTPz89pfzrnxK6pW0uhIdP2msB3S6/Wvy0Fv7jOqZEQAcAIGV+IF890Dm6nln3wqUrxWE4zcWu06ewUXhvDuhVgK/YALvpjzmU/vk5yJ70xU7HSPpnAp8N8lF4bw7oTUF8lv6lAd2w7ZCAZqflaECXdqUNNlYK6GbM7Lx2eYotT+w3+ATdBXAJ3+4adu73vAviC3uMmzN+Ivv7J+hCnqLri4zo02ekj7WAHiyXJKBL/7ufmKfaAroL4FX4TgO6Z/eT/plxkP65eelPTP+CJ+jCPnXX/r0U1GP6Uw/owXJJAvofFXsTzTsPEdABAEj4N0/GTFCTp84m8LhNJnyVU1pS9YDu30C5W647Lr4vIfn2NRvyq+kl5jyv+7nc69HXPxc2evqXBPSqf36d9u+W6Z/Zd5P9kzCeBnQftF3/zAYN0m7qi2637UqeruvT9wvPXLGfM+6nv7QF9DKE2+VNTXFxfZMXIOGbPKP9TD/cHHSzQfr+J9fMixN5AVEFa7u/D+iyz95x8bQ8R0C2RYFcz3/ZP32Xun7s3oDsQ7V/uv5WOLWqmW1HFLxN/foEPHyTZzrFxc1BNxskUEv/nizKJ9xySDTFRfa52nItZFsUyPUNoqZ/1ZSYHxfH5tiFfYNo8MTe9O8Ht3TO/QoI6AAAlEwQKKd+vFLNLzfsE3D763O/7U5x2DBNZPfNcH3yxlINsWUd/qe4CQTVp8Gkb0adUtK/IEXYN4GG/Xu6ZP/CJ+5J/+SNk5b0z4TcxmMmZgO09uNPy/CtTDts6PTXVZajdmnICte//KPi9cv6YkQ2llNXrhT/83+4Uo5Zea6ozm8Xf/oN8/Wlb+u+Ojbh0+hBqiDuxjgs1ZNzYUOubafZJud70wT05+V9EG6dD/Luqbur40+/8W233bbPvRnU9cMXeRK9sC863HzsIHgnbZM3WPouuiffWoepO33iXamCeHVOX8JzaTgP+idvGv3zP6n654N8eO6yf/ZpubwZ1PfDF/cJMFe/btpgl4PgbdpWfYqL6599MWCEn+Jy4aWfdvRveQR0AABG0SfE0Q9REzDW/HR4c7a9f+hkXmh8v/ZbiJ813BNnlOnfD976qnwR4fys+MEbd4un8TyWWRDQAQAYofFNn0c691kXz7LGN31uUf/QxT0Nv5rMHT99/W/Kj1I829zT8Fr/3nD9yyCfE9ABABjHzTOPpgCEnwt+5rl55tvbP3SSqTrJFJfwc8/PPNO/8A8Yuf5V01bmRkAHAAAAMkJABwAAADJCQAcAAAAyQkAHAAAAMkJABwAAADJCQAcAAAAyQkAHAAAAMkJABwAAADJCQAcAAAAyQkAfSOqiUCgUCoVCoVDSMjBTtyKgD5ReCAqFQqFQKBQKRQoBfQAZMAAAAOAsIKADAAAAGSGgAwAAABkhoAMAAAAZIaADAAAAGSGgAwAAABkhoAMAAAAZIaADAAAAGSGgAwAAABkhoAMAAAAZIaADAAAAGSGgAwAAABkhoAMAAAAZIaADAAAAGSGgD3R6cKW48MyzVbl8rTjVbdm6fa3YeeZKcXhblzdgsVuN0c7BXV071N3i8HJy/Ax9WQc7PrvHurQpyXge7Zvrk+NYHhd75r7ZO9JFYdu6Xyx00X0fmuWB/3k1kboumu/jk6/M+Dz/nBmfO7rlLKr6MMHQGMfF1UvPFXtvflV8dfRqcfHSfnF96E8MAMBgBPRRXIAYHzy3mwQePzZlkLJLQ7gwuVrAz1P54mXjAT1gA6+0I7eA7r63pG1RQA9UL5InDOjmWnwVhFt4EtDNPXLLDDQBHQA2hoA+SsMTvi1yerC/QmhzwXqasXF1beMLodWeoJv7Lzl21DWb4An6avdKm/7vr/KF3xRZ0YyDv8cWu8+Z864/gC52x7xobXD7WnHVtH19LZYXLTLO5gzmXC88L79p0E0AgLUhoI+yxQF95SkkU44NAb1J7dix12zVgL626UabD+j+XOt5wZEw53NPonV5tOqJ//oysznH3rXi1J7guLi6dzz4BwYAYDgC+ihLhFAbXtyv6m2J5qq74104Ml8HYctPf5BQGj9lc2G1rK82bSTZHgY4G8TC/f35fXHbqqkDWso2x3W3BmZ7nuB4U8oxirYlbW/d5s4bnS/ti12WcQzamLwvoNYvW3ywbL8WqXJqipbq+rs6pJ3VudLgGoy5OUdfQG8+V3rdni3+8mrTNfPtuRb0rTo+viZm21Fwr/qxK69JOk7u+FH3Svk9Ya6f+Xqv7T5K22nY8wXX1Z3f1KPBce+SP6df5/a5qO2QY0/c6kHkibpMfzkJ6qqesJu+moB8Yfda2WeZqy1OD16szh2st/UF6y/sLjRcSx9MXcn+TrzNBnIzfi+UfZZypXhDpqGYfcs54+5gw60r95WxKDe6bTuv3TF9NG22dfq6AABzIaCPUg8QsSRYajDx+0v4cl9rmPFBTUKRfl0GELuU1FeGoJbtGq7sOcqg5ffV8FeGQ9eX+NgwXErd4XJf3xu2B/0SUdjq2tbSr7Iv5bIUbWMy1ml/XPCNx6LxWqRsPckY2na6/vp2uLamdaX9MG0cdS7R0M6oj2F7qjrC9fHYBHX7AO3rTsaudm1r26VtbfuH29z6cjxq4vO474WgneU60z/5z8u0w77J022yZHtYvwRj6dfy/9eZ9kr4lvPatrp56S5gm37ckv747bJc1WzDubRHV/mwHof38Am66e8l7Yuw4dvXKdtc4Bbu2DiMS7h2W6sgXgX0NLDrPrZ9ru6yj7Ye1++L8sLBHQAAmAEBfZQ4QHTyISjYPw5cgVrgUXZ9GLaMMIjK9qb6vKbjhQ9kpsQhOGiDXXb7RKUtXNbGRoJMw/H2HF3bqmOjIJf2JW1vcv448BvJ/q3XolXQ5vI4d844EJrtYdCNzqF1tI6h13SuhmNbxqAegJNrUztOx8uPb8/Y1rbbZW1vWGxbl+2zSM5jpNfRt/NQ/jV1xv+HmeOjp8u+BCF4KabN9gl5WL+r2wX29u0+UDvxfmlA9wE+ba+cwz65r/XPSwO6iAO5rduMWzRv3Fyni+YFQHPIN/fuHgF9Sg8eflncPrlX/OKDO8Xinz4sfvLuDVvka1l3++QTu89Z1d6/m/TvDDi//cv/+4+APko9QNRETyOT/YNgHAcgDTG6zQesKDSVXJ2yTy2EpmxwCo93x7pj3DnLMNcUurrqrknHxtXfPFZd20TSNpH2JW1v7fzxcm2sWq9FnQ3duk9cT3UtvDCgN70IiAJ8g/Zz6T0SHtsyBtG4WcnY1I4zwvHtG9t0uyx33St2f+mXlPR+DiXnMdLrZpfDuqL/xMzx8gQ67NcoZqxrAdytaw3o5n6SqSdxQJfraUKvab8E5caAHp2j4qbY+Gkwqf6AbsO2nrcUtPGrhjoI6NN4+Ohx8c83T4rrP//Q/Az6uLj36RfFl18+MeNqxt0U+fqTz76w22Qf2VeOOSv6+vco6d/7Zt+zFPTo33b3r+n770Fm338E9FHqASKWbm/b362vhSTDBTQNWRps4uODOu32jsATbU9Db7Js901CV2eYSqV9Tc8X6tomGran7Unb2zDWtTCn62Pt10I0BsRy2R0btjMM4O788Xm7Anr3udyYRMe2jEF9XJOxqR2XnKtvbNPtdnmJe6V8UdR9LWrXMB0TOV4+u1zGw2yrpriY4yWArvxpLKbutifktu727fE6ud4Set26xoAu7Q8PUF3b5Fx9Ad0eXz4tVzagm+vGE/S1Ofn4s+Ktd2/Yp3MSBvrIPrKvHCPH5m5o/4Tt3zsfFCe/o39zOw/9k6fky/bPf//JMb/N6PuPgD5KPUDE3PYyINngUu2/2E1Djy6b/dKQ55Y1hASBJg4s7nxRaDM/hMs34UVBKgl4GpbK89plt+/iQOqvApAPR3K+w6CdsaTvIum/ODV12750bUvbKqK+NCzr+cv6ZHt4fKL1WiTKQGiX0jGp9zkK4D6QpsvhukD3uYK6TT2H0s/aNWu4BlayPh17bVfbsmuXa7ddVztv170i24JAbo8NliP19sdjEizb/7zM/iYUp/vbueLBtXRtHMK0WQK4OU8Vpk29pn8uMOt2cy3C/0NdADdj5J+im75Wgdgw4+4+xcUcfyDXX9ov9QRPys0x/trK0277xlC3xR7vrok7v912ZPa3fU0Dt1uWa+JDfhzACehTk1+nv/Orj4r7XzzSNcuTY+RYqSNX0/TvE12TH/rXTo5594z07/Ox/ft1Pt9/BPSBwpBiSxRGKjZE+X12zQ9U/VpChIRC+ybBYJ1lfvDuXA7qj+qWgFMdUz+vCzXldh9mNIS54gJL1AcTmvZ8vTYsVvWUQa2t7lR0rni/dNzq4SvdlvRX2pb25e/SvsXttPXYIFitK4sG49ZrkYrquVLsmePc139VfKdc746Prr2/TmHbzbrDMMCnWs/lxrMcr/IeCK9Zwxgk+0TrG+6PUNgX/6kwTfdF/71irqeMdbCtOiZUb2d8f+wXf58sL+ybHf2y1Ov+R7NvDC33q9YvzwXg8PtXzufCum7z61tCutsehHOhoVvWl0+2y3VazLUtn5p3bLNhWtbZQK1hXPerhXR/fBLOw/2v2zfB6n6Xf9Ty5F64/su+u/q0Hu7JnYQD+fX5WHKs1CF15WaK/j368jH9m4nvn0xfGUv6JyE96/49Wu37T0J6Dv0joGO7mQDaGATLJ45AGx/Q4/CNUNdv084XmfMq0wbGPJlMSR1Sl9SZi6n7J9MJcuuftGmq/r1t6sppTrPt33s3Rj1ZTtn+mboePMywf/cnuj9t/+adc09AxxZzT2PrAd2sb3t6DZQI6F3c03v5jQKjI+RNZlP+6l/qkjpzQf+GOS/9y+W7//2P1tS/GTtIQMd2q027kdIyRQcodU9hAULypE0+CWLZN9wtQ+qSOnP45Ix19E/k1r+nE/dPPsrvi0z6t5D+PV1D/x5k0j/TlqdPn+qa1cm9Lh81OWf/COgAAKxAnrbJx7VNTerM4Q1r9G8c+rcZvn/TvvwwAXnm/hHQAQBYgfzBE/lM5anJZzdL3XOjf+Pk0r9frrl/E//iYbBf3tjO/hHQAQBYgfx6fZVP/mgjdUrdc9v2/h2vsX9S99wB9vgXH670yS1tbP9M3fP37+ZKn9zSxvXvpunfPB0koAMAsAL59I91/BCXOqXuua27fzPnO/uJK1PPPxfSP/m0kzVUPYi0Yer55yKf/v1m0vnnnuvfb+y/cyCgAwCwAgL6OL5/M+c7AvpI+fSPgO5pVJ6HtmEQAjoAYF2Y4jJOLv1jiss4tn9McVkbAjoAACuQN5LJG8qmJm98y+FNhvRvnFz6J28SXWf/5g7o8ibRbewfAR0AgBXIR7Gt72PspvvjK2PRv3Ho32b4/k2do93HLM7XPwI6AAArWMcf8pG6tvkPFeXYvynnoUv/ZPrOtv6horJ//KGitSGgAwCwIv5U/DD0b7PW1b/pIv9q+FP/jkbleWgbBpk2oN8tDi8/W+wc3DVX8Fqx88yV4vC2bgq3rV1XOzZhxvPbP9+/6f4ub7Hr/jT86o6LvWeeLfaOdNE4PbhSXLh8rTjV5cm1XUu7Xv/s/TP7xUJXj5P0y15PV+d0Y+csdp/r/jP95twXpb+3dDkb5vvr+edM29yY77058U8J6fel/eJ6+b//cXH10nP2PDP+PDrTHj56XLz17o3i/hePdM14UofUJXXm4jz0Tz5RZqr+SV0PcuvfezeKz6fqn6nrwcMM+3d/yv7N+9sBAvpgLpjacBGFGbdefphuMqDX27EpM53fhjkZ5033d9NciLXhTIOsDeeybp0BvZG0xYdy167x93i9X/aaap+mDuidbDjXeymzgC4vLPaO3P/M8vVFMz4na0vOLpzba0JAX8nJx58V7/zqo5U+EUSOlTqkrtzQv35noX+rfKKL9O/d3Pu3wie62P79Oo/+EdBHWOz6cBgGF+FC62YCelc7NmNz5zf1h6HNhvRcAnrStknJuAZB1lj7E/QmQYAumRdleyuG9LJf8gJPx1D6t97vn/q9lN8TdNPGS9KmTUZlnqBPRd6wJiFhzJNYOUaOlTpyRf/anYf+STg/C/0b85sC2z8TznPpHwF9hMWuD6MmkO+GwWXTAb2tHZuxqfPXnqpmFNDX+8Q3j4BeP+eq93k9oJdh31zbsL9Tq015yTGgm/F4gYB+psnTN5nCIfNYl3ljpewj+8oxOT6ZTI3tn0z7oH/zOw/9k7aO6d9vM+ofAX1STcHFrXPTMqQEoTZY74+pT2No3m9lNuS21OsD8IHuMzQQlgE6aLvWYQOtPWf8xL3stxbXHhfkwvU2vHXUX4r6F5xr3W1b5h4IAn1z3V5XQI/P7/ep3z+pertt8W2y49N8j9ryxy8V3wiX7VjaneO+dFyPvaN6v/qFbXHnrK5XNW42gMs6G8LDa2HOeanaX4qdQmLa5QK67KvHmra3Tifp2N9ORbF1y9xus68N2v58coyrtNwvfKGgTg9e1Dqq496Q46K6TAnaaI+x88mlj77/C/Mfu2mjn8ee9MkeE62rArqrz5/nR7oP02CGkjmx8iYz+XQQ+Qg4+Uxl+fW5hAEp8rV8drNsk31k35zmZPdJ+3fv0/u1/kmfff/eN/vm8Ikty6J/29W/Zb7/cnrPgCCgTyoMBO3LYQC0oSYIbGJhAowj+1cBqCmwjRKFMEPDk21nEKTSdi0lPF6DlJ3CoOsaQ6zdXvXTBb0kJIZtKc8R11+Oi2wP9i9D7drbpsumrtZ7QNtgz9VZt6hf77Ivulx/gm+Oab1uSXu172nb4jbUz+nbVfXR7RMuR+1K+rmQfZN+LavWX9Pmi9LeIGge2na0Xws5vtzdHi/7mfbJU3Rpqwmnfv53pNw33t8HZwmu9hwmFO8c3NFzpMuGOaZzepCtU+r3RyR16DlrYdqMg31hIO206zTcmzEJn46Xx7QE9OocYRvkuFfNNayWsRwJNfJ0Tv7giXwUnDylkyJfyzr5dfpZCj4p1797Df27qf37hP5l7Hz072x+/xHQJ+UCQBx44rAjP/jicCJhJw5lC7/NHu9/+AalNYAtI2mjssHHhzB73ipQDVY7Pg2arg1N/aieivoxadi3s37d349VWXT/dbdN10X3QBRum9XrFmnbGsKyvZ+C/pjzhfvHluirHZ/4nu0P6G45Hm8prh7pW3S/1b4HBkjbZ5YlNJeB+uhacG2TaxH0t/w/zx5vxq+c4mL6IuG3KaCLtv1tOBfmHCZM185hn3C7xdOD/aCNDRrCccnW5cY3DtxV/fXjXfjeea16kdD1BN2vWuw9V1y0T+JlyfRrz9wD5f4AgHUioE8qDgQ22CRhx4eZMLCEAeb04FoUPpYJd8PUzy+itsp5oxA7UO14d86uYOjOr/vY4/241fftrt/t3xr+1t02XRfdAx3XsL1ukbatqb6wDebrnvcCxMfX66+3oemc7rjqHpLltvsl3Vc0nHdp4bGuv/JEXtonnzi8MN8/6dhU567Gqvw/z/R37QFd93FPwM3X0f3SoCmg23XSdhOYbX3pE/HpA3px9KqpV5/Cm6+vmjEptwEA1oqAPqkkENiwkwYR88M1XVeGIv/redUQllanISUKXEkIs+dtC1xLqB2f9rkKSlbaz2g52Vd01p9cg9S625aePz0+1Fm3qN8r9bBs2ONMn46W+WQVV6fcl1Jq49TQ3uUCenJPl5rGqGv/fva3DVKfCaKHUof51/0WIfn+qd0LVVuqELqJgK6B2Izr9TeXeBNsQ8D2gTxdljVrC+jaF3mKfl3eED70JwUAYDQC+qTSMKLLQeBpDFi6387l9FffenwSjuIQMoINYR0Bywe+jQb0an833aMas1og66tf+xcGofI3E+tuW3q81l8tG2ZfG6R76vbHhiHa3j/RPkLPWVufkv3CvjeojU/TOd35bLt0SonbJz7OP81226ox9svpNVqabaMJuuXTcm1P2/ePGXv/f1z5KS7BvbSJgO73k+/lKhS3sAE7rFOODeagSxt0uyyPDuj2mPZ9LPsU3Yxtuh4AsFYE9MloGNDgUQWyZH0tnDs2tDRucyGtPL43hPmgFwe7GhtyqnrTcOtKHLiWUjs+bv/OgXmBURuneJ+9XV+HO38Z6GR8eut3fQ5DYLl+3W1rvQfiOqpr2FV3vV9xn5L7QPpWnq+dvzfi4vpSH5+kP6b48S3rCc6Z1h2G73DbjgnW0rdR4dxyYxPe3zI29omwLjd9P8r/c3Y/WZZ9TX/jN32aeiVE6zoJxJHe/ev3T/h/q4RiaXPX/7c2OPvjpUg7zQHVJ8RIvebFiX79jX/zrWpfc09cv+Xe5OrX7b25sOHeL0vQPrHhPDgm/PQX3adqoxnH518Mwj4AYBMI6FvL/GA1gQHnhAmP/YHX3BONc9S5Vzah982hWTL3Bm8OBYCNI6BvIfekVZ+K4hxoC94xe1/YJ/2xsxkcz5rj/jeH5og3hwLALAjowBlVTRtZ9sWYCfLJlBU7pSGYKoIpmfGW+eh2nIM54rmzc9i13eXHLAIANomADgAAAGSEgA4AAABkhIAOAAAAZISADgAAAGSEgA4AAABkhIAOAAAAZISADgAAAGSEgA4AAABkhIAOAAAAZISADgAAAGSEgA4AAABkhIAOAAAAZISAPpDURaFQKBQKhUKhpGVgpm5FQB8ovRAUCoVCoVAoFIoUAvoAMmAAAADAWUBABwAAADJCQAcAAAAyQkAHAAAAMkJABwAAADJCQAcAAAAyQkAHAAAAMkJABwAAADJCQAcAAAAyQkAHAAAAMkJABwAAADJCQAcAAAAyQkAHAAAAMkJABwAAADJCQB/o9OBKceGZZ6ty+Vpxqtt6He2bY/aLhS4Osdg159o91iVsA3cvjbsfsmLv657vhxXu/X7Hxd6lZ4u9o4H/k9XcLQ6ff85+n7XWdPtasXPpSnF4S5f7mH5ftPuv2jZD63pjiroAAFkjoI9iAoEJIzsHd3UZGKZ6oXfGA7oEVh/K5WvTp70ju2VDXDiXsVwtoGs4l2vSFdCHsIFa2jZBQA/qIqADwPYjoI/iAnoaRBa7W/A0dCgTyvYmfKHSO4YTn29Oqz5Bz+F+s32Y/Tc7KzxBj+6nJZ6gD3XGnqCfHrxaHN5eX/0AgOUQ0EdpCOjmh+dWTFcYxASayxP+JqF3DCc+38xWCuiZ3G95TL0aG9BdIN85uBMtn9uAbl6svDBVWwEAKyGgjxIHdBtS5FfjvrQEFhvIwjm6OiXABq3OJ8NpMHXL9jw2qLnz2vaUdSZB1ge6YHvazmraRVCf8mHy0O/zX71a1WOL+cF+u15H2IYqkLrxs/toG3rHMGy3Le585ViU67tC64hxE8G+7fUHfbL7xO1yY1mtk3N0jYeV9lnvneXuN1dndR7ZV8cs7bsR1enrK8/vxzoU9jc4ztZt9j/Qc2ibbRuS+enRvRJu83XcDsYwOTbug2tLFdDNsp9actt83TQ+TffTLTmfBnRT/0XdFgV/u36/uO5XybINtXqsHGPaelLbLivMPn4ajT1fUG9J2u73kVI/1xtvmrbb/iXnEnYff6y5/q/dcS82yvU+4B8XV/U8e29+Za7Fi9FxFy7/KK7Xcu2/uLtw46P775rjvzLj+YLW588Z1VnW584rY2uPk1UAgBoC+ig+EOiiUYWtZmUYKYOG/ECXACFfu/pqwdCS/dwPObe9WrZFw0cZsHz95geob09jELLbq3OmAcofI30Mj4/bmLTbhh7fJ39cQxv8ONk2NO/fLB0nNxbpcnMdw8fNkuUg4Nk2BuMUS9vTsL8Zo0O9b6oxaRqPpC4NlP6e6x4rN06+r66OoP/an1rb0r4bfdNo7Pj58bHHx+cQZT+T+yscp7KesA4/Fknf0/tsIXXZ7e5/ssXuc/q19tnU2/x/nBknEyBrT9Dl3HqM1HXRtNuGS9M2F9o1NMtyGWpNeyT4mra9YNZJ6LXsPuE2M566qYk9nwRguyTtc0/47bI/n2+PnuuC7C/Ldnsa6E3/opAePoF3YVna6ra/mmwPubHxL1r8ORd7us4HcFuHtEHrsG3U/ium0QBAPwL6KC4ADQnoIg5EVXjo5/atBdE0BNXCVhVimtpnQ5E9pt6f9BzN/XPHhUHLK4NvcEytjiRoNZ8jlJzP9jHZ39aZ9sUbOm66v+1HWKo2p9L6XJ/CPl5bejxKtk3u3MsFdFG/NlGYNup1pPeZqaPn/kzrTO87Lx4X17Z4TKVoW2p1uP193+Wc0T1XXnP3P5mEXDnXiV3qYuqVANsxxUXaXQZ0YdrW/ATdr3B11gK6/EYhrKePDbZuXOKAHgdo95Ra2uPaXu6rbID2560dPySgC3cO+wJCd7Hnj8anXodtQ3mMqWPP3Adtp9hCDx5+Wdw+uVf84oM7xeKfPix+8u4NW+RrWXf75BO7z1nV3r+b9O8MOL/9y//7j4A+ShwYRH9gSkOKYX5g1sJJozQ4ueXlg2Zz+8pjWkJtFeDb+ufGIQxLbj+ty7ahOqZWRxJIm88Ris+3bJsqQ8fN7Z+OS6eoT6Yt5lxViDX1HSTn7hgPHzzdsfE9N3SsRH9Aj9edmlBZtqXF+IBe36dUqyPse71fdp2EYj8VxY+bLR3n0ePWH9CDtrSGX0+O1xcYaejWc0UB2q6T9rjjyqflqgrwZqF2/GYCerTOfH3VXKe2M2yTh48eF/9886S4/vMPzc+gj4t7n35RfPnlEzN2pv+myNeffPaF3Sb7yL5yzFnR179HSf/eN/uepaBH/7a7f03ffw8y+/4joI9ifhiWgcHpD0xpSAmUgaLteBcUq1DilsNgVKvb/DAOw0lT+6pw5foT1ifC8NXcP3dc2S57zmCfZLlWRxJIm88RajpffB2ark1l6Lil476M4Jija64ePw6mv356i+gej7Qf8fLgsTKWCejVccfF4W7DvZoYH9DbrpFRqyPcv34N7fYwoJfc+qb2OG77Rp6gm+12+kp4bI07f/UUPFnWusLwWwVkt2/UViMK0LXjNxTQg+Ouy5SpoT9xzqCTjz8r3nr3hn06J2Ggj+wj+8oxcmzuhvZP2P6980Fx8jv6N7fz0D95Sr5s//z3nxzz24y+/wjoo4SBQZkffi7smB9GwVPSUByIzH6Xg3Bkw1kaljzZNwwl6bLWbX5Qdgf0oM2N4bhve9o+144yjP5dfE4b3oJjanUk5+gfw+R85ZsIk3OE4xAZPm5uOb7W4TSVJq7O/WKv7IO7X+TzwsPjusdDj/EBO21H71glxxvLBXS/Prm/W9g6u8ZPpedyy/F+CzOutp5aHfH3W9o+WQ7f0LnYTY6VgJy0xzFjpwG4up+WCeimPv+HimRZ6g9Cb1tA9+cL64+57TYAy6K5H2SaSxzQg7p1exWw3fbqKXoSwJP93dN1HTdZZ7e7tpbXIhK0T5uwXEA37PqwbdtLfp3+zq8+Ku5/8UjXLE+OkWOljlxN079PdE1+6F87OebdM9K/z8f279f5fP8R0Afy4aAsPpzYcCXrmsNAfJwGKxMkql/Fmx+SjYFIQkO1z4Xdv0+Wj+t1mx/U1bJrj9vHhEYbml1JzxfXU/Wj3vaKC+Gm2ODngpTfd2/Xt+NK8b/8j0kd5XjpvtKWnjEU8flEMj5hWIyk47jcuIl4vzj0NtJ+hOPbHI59nc3jUfZVihlLP7b2/J1jFV8H2T+qy4yRvLGyXE6uqTs+XZeKzyFl72+XGb+q3qhNptjxql2Del/SY3dMmJR9qjno5vsquNZd18s91Tb7NXxfnZh2l2+KNO2+LgG4XDZtsy9Ig+Vbpq0aeKXsXP3rZLvcgyag++3lk/KKDbz+GHmR59vkQ7uGcF9nPQiH282Y+HCuyjd1mrLzmhm3MMBroG86rgzneqy0x45PeS4zPm92tU2OfzF4IbOd5MmdhAP59flYcqzUIXXlZor+PfryMf2bie+fTF8ZS/onIT3r/j1a7ftPQnoO/SOgnxMuJPWFLkCYoBm8mABWZwL6lr85VOa8yrSBMU8mU1KH1CV15mLq/sl0gtz6J22aqn9vm7pymtNs+/fejVFPllO2f6auBw8z7N/9ie5P279559wT0M8JAjqWtcybQ4FBzsGbQ+VNZlP+6l/qkjpzQf+GOS/9y+V7+v2P1tS/GTtIQD8H2qYYAKVgaknvFB5gGbdlTrtO6QnmrW8jedImnwSx7BvuliF1SZ05fHLGOvoncuvf04n7Jx/l90Um/VtI/56uoX8PMumfacvTp091zerkXpePmpyzfwR0AABWIE/b5OPapiZ15vCGNfo3Dv3bDN+/aV9+mIA8c/8I6AAArED+4Il8pvLU5LObpe650b9xcunfL9fcv4l/8TDYL29sZ/8I6AAArEB+vb7KJ3+0kTql7rlte/+O19g/qXvuAHv8iw9X+uSWNrZ/pu75+3dzpU9uaeP6d9P0b54OEtABAFiBfPrHOn6IS51S99zW3b+Z8539xJWp558L6Z982skaqh5E2jD1/HORT/9+M+n8c8/17zf23zkQ0AEAWAEBfRzfv5nzHQF9pHz6R0D3NCrPQ9swCAEdALAuTHEZJ5f+McVlHNs/prisDQEdAIAVyBvJ5A1lU5M3vuXwJkP6N04u/ZM3ia6zf3MHdHmT6Db2j4AOAMAK5KPY1vcxdtP98ZWx6N849G8zfP+mztHuYxbn6x8BHQCAFazjD/lIXdv8h4py7N+U89ClfzJ9Z1v/UFHZP/5Q0doQ0AEAWBF/Kn4Y+rdZ6+rfdJF/Nfypf0ej8jy0DYOsK6Avdv2fz1/Dn0e/fa3YeeZKcXhbl4vjYs+cZ+9IFwEA2Xj46HHx1rs3ivtfPNI140kdUpfUmYvz0D/5RJmp+id1Pcitf+/dKD6fqn+mrgcPM+zf/Sn7N+9vBwjoI50eXClDuXx94Zn9YmGX1sGFc3khQEAHgDydfPxZ8c6vPlrpE0HkWKlD6soN/et3Fvq3yie6SP/ezb1/K3yii+3fr/PoHwF9lLvF4eVNh2WeoANA7uQNaxISxjyJlWPkWKkjV/Sv3Xnon4Tzs9C/Mb8psP0z4TyX/hHQR5kjLBPQAeAskKdvMoVD5rEu88ZK2Uf2lWNyfDKZGts/mfZB/+Z3HvonbR3Tv99m1D8C+lBH++W8c19saLZzxoP1l68Vp+4IPUbmk7sn7+H2ah57MkXGHhOuCwJ6dK5qnnpZ1+6xWwEAmIXMiZU3mcmng8hHwMlnKsuvzyUMSJGv5bObZZvsI/vmNCe7T9q/e5/er/VP+uz7977ZN4dPbFkW/duu/i3z/ZfTewYEAX2U9Gm2C97lG0U1QNvtUaDXMB0EbFdHcnx5TEtAt5JjhKl3b+o3qwIARpNQI0/n5A+eyEfByVM6KfK1rJNfp5+l4JNy/bvX0L+b2r9P6F/Gzkf/zub3HwF9lI7pJkEgL7eXT9B1uSVsR0++u56ge8k+pwf7wTkAAABwFhHQR2kIy/6puA3ZyfZ1BXRd556im6+Z2gIAAHDmEdBHScNyz/LaAnrwEY9m/3QbAAAAzh4C+iguLFfzv5NlG66nCOj1Y6I555ZbH70pFQAAAGcWAX0oDd9VcU+5w78qemF334VmU3au/nW13gZuDdR++8GxC+d+nYT06BxNx8QhPfyjSQAAADjbCOhbgDeHAgAAbA8C+pl3zJtDAQAAtggB/UzSOet2ykv4RlIAAACcdQR0AAAAICMEdAAAACAjBHQAAAAgIwR0AAAAICMEdAAAACAjBHQAAAAgIwR0AAAAICMEdAAAACAjBHQAAAAgIwR0AAAAICMEdAAAACAjBHQAAAAgIwT0gaQuCoVCoVAoFAolLQMzdSsC+kDphaBQKBQKhUKhUKQQ0AeQAQMAAADOAgI6AAAAkBECOgAAAJARAjoAAACQEQI6AAAAkBECOgAAAJARAjoAAACQEQI6AAAAkBECOgAAAJARAjoAAACQEQI6AAAAkBECOgAAAJARAjoAAACQEQI6AAAAkBEC+iB3i8PLzxYXnnFl5+Curm9w+1qxo/tdeGa/WOjqUY72y3NeuHytONXVEXu+K8XhbV2e1HGxZ869d6SLk4vHdX3nWc3pwZVk/Nc9Lt1se1a9t+Yw5fdGg8Xuc8WF3eOi/H/NfP9clPMM/I8OAIC5ENDH8IG5LSwbi10NICYorETCjD+PBpvNBkIXQtcZnGWsfN123DrGdS4uDIdtW/+4dCnbc+YCuoybb7Mbw84Xuquy4VzHiYAOADgjCOhjmB/6e7supDeGMxuqzT6XVw8fNoitGvJXts4nxVJ3+uTfrJu9z3U8QZ+AvLjd9AswnqADAM4YAvoYEtCPdFpGQ9iQ4LRzcGy3rxrQ7RPlbQ7oDVNz8uhzHQF9dfUx3AACOgDgjCGgj2EDuvu3/hRdQpuEJhfgfUAvp7xI8eGznIvbNHfchb/yGH+cPafZ/yCZZmPXx2HNBTg9NgxFvo7bwdzvNDRp36TsHaVB1LdN6jBfd4bppB/BeaL22bJT/Em0HJwzaE/Uz2X6korqisc+uk6mhNd2eEB32+UeqPqq54vG1+3txPPxu17guTrNWIT90Wsx/H4L6guvmT22PrbRtSvHpDquPiZxv8LjorpMqfqsx5T3vdtu6y77ko6ROyZaZ471AV3O5aa8mGLOf2L/8zPtvuTrbvjf0B5vxuyW1P1ccqyojndlv7jut8mxl5qPlbnyfvpNub9l9n3eb5O+3Knm09fE+8Z16bbda8UbZkxkn703v6rXZcbyhUvaNimXfxT0DQAwBwL6GOaHrgsg8kNXfqAFoc1sc+HAbUuDggtAlcVuvJyKnibb4/WHqF8nyvVVXRJEwnOX9YR1+KCmYacMVXa5CnELqSvYLnVF/Q/bEnGBrazXB7hwvJJzNdYpbQ6WbaCTOpbpS8oe48cpuX7RNh2zoK3leXW53r+Q9lVLeE/YddqfuE7ZHo5FV/16bFCXv7bldU/6I9rut7IuW3Sfcnx9m5L21K6d1LMfLadqY5jU4doh5w/GSor2sXzhEVyz6ul4dUz6fRc9QR/SbnusnlOOuWXWyfEmkPswb4O2aZ9bMmNkttlQLceWwV2ONXuYY1/wLwZMWLZtNiG6CuGyrPtaUt9zum+q6VgJ6xLS/dfu3G+U9aWSOmz73PnajgAArB8BfQzzg7cMKebrKsCYH3ZlwJKvk6BQW2d++AbBs0kU0EV0voBd78OXC1IuGIQlDF5hHXHwknNG7baBJt4eB9VmtTAm0nPXwpIbo6rPuhz1Q4oe09OXmKureVsoOGfQ/np/us4l3PZwLNPrWQVSw/bF9y8oLfdIdKyKr82w+61WX+3a9PXHnG+3+75ovCeUrcv22bdBr0M6XuHxZszs0+3k/onuX7uPqTP4jy7+pJeedvtzSDi3zDgEAb0UhO8y8Mqx9gm631ePLQO3ObcE6d1FsL8fh6D47SG7b/L0XdvgAnZQd+3gBkevlucmoE/nwcMvi9sn94pffHCnWPzTh8VP3r1hi3wt626ffGL3Oava+3eT/p0B57d/+X//EdDHMD8Yq1DmQosNEWZ9FFbSoGCEIajvaaNIA509RxRIlF3vg420qWEfr1aH64Prk/s6bne43dDA7sJD+3nisKj02LiusA43buk4tobgzr6kurY5LiS6+tIwWA+XffXVxzK9nuH9YPvSEl6bRMeqxjYveb/V6qtdm3p/ovE3X3eNrUjbJ9x5dRxtfb4N6b3QcLzZf0xAL4+T0N3X7nBfy4yDhOAyoLtladeJPrleKaDbeuzGTqcHL9YDuqn/6iVz/tfk/EHdXfXZUC8vWGQ/dzwBfXUPHz0u/vnmSXH95x+an0EfF/c+/aL48ssnZozN2JoiX3/y2Rd2m+wj+8oxZ0Vf/x4l/Xvf7HuWgh792+7+NX3/Pcjs+4+APkbyA90FjCvFThQkG4KC5UPOce/TRjE+oHcEx1od4f6u3dE5W+tz6xvbY/hxibaloW/JgF4fR9XZl1R3XWn461vuHWfdHp6vN6CHAblHdKyq3S9lG/rvt1p9ywT04Hr1TdcStTFM+xwt1+/FpuNHBfSg7ut97fbnaAzopp4wkKfLcuzgJ+hp6G5h93V1VbuHATuou7W+NJAT0Kdw8vFnxVvv3rBP5yQM9JF9ZF85Ro7N3dD+Cdu/dz4oTn5H/+Z2HvonT8mX7Z///pNjfpvR9x8BfQzzgzEOKS64xOGtCgApF4S6gl3FBq5aoAkDiUrWu3PE+y0OtJ5aHa79vj1p+/yyX7fYTY9taI9VH5dagLQhMB6Lch+z7VDW2/bG+5yavthQ1dOXVOO4aEBz25JwGLQ93i7cudoCf9P2zoDecE6p47Cl/lpfWu4Nt1/7mHi1/i0V0A29Pu3jUKmdI2mzHZ90PNLxSr4fmgK6HFP+v1bbR9n10u47uqKFP74joJfnM2MmU0xGB3S/bPoYvgm1+R7Qfc14+UBvn6qXxwZ1l3Wlwifuhk5zIaCPJ79Of+dXHxX3v3ika5Ynx8ixUkeupunfJ7omP/SvnRzz7hnp3+dj+/frfL7/COiDmB948sPf/FC3JQlvZQAyP5TLfWwJQ52QoJOuS7kwFNaz97dhvUHgiM5XrXdhpyq2fbV94/P4kBUeu2PCsOzj+ycBXX5bkB7TLOlHLZwG23Q8y/XJ+Ib72nMu2ZdUY11CXyy49eZ6mn66r/eLv4+OkWvXd6769uh6mL7Jm2/L5fJ+SMar5z6J+9K2r9Q5sJ5oLOTad/VXvi+C+7FR8r1T1hHX6/++wIVnvlX82z+u1st9U2tj7fon55DQbPaJ3uQZtVECbE+70+NvmfaaAOvPIUFc2lXuo3//wH595a/K/ZqPlY9ilYCt68qQLvsFn6pi+tr+RF36ENSRhnO/viOkL/bC/Uz79esytGNp8uROwoH8+nwsOVbqkLpyM0X/Hn35mP7NxPdPpq+MJf2TkJ51/x6t9v0nIT2H/hHQZ2F+AAdBFVivdd9vJgwuMV0rP2e13ciRzHmVaQNjnkympA6pS+rMxdT9k+kEufVP2jRV/942deU0p9n2770bo54sp2z/TF0PHmbYv/sT3Z+2f/POuSegz2CZN4cCU1n7/XbU/+bQLJ3VdiNL8iazKX/1L3VJnbmgf8Ocl/7l8lu29z9aU/9m7CABfVOCX8fXp0MAE1v3/RZOgTlLvw1K2p3LDxecbfKkTT4JYtk33C1D6pI6c/jkjHX0T+TWv6cT908+yu+LTPq3kP49XUP/HmTSP9OWp0+f6prVyb0uHzU5Z/8I6AAArECetsnHtU1N6szhDWv0bxz6txm+f9O+/DABeeb+EdABAFiB/MET+UzlqclnN0vdc6N/4+TSv1+uuX8T/+JhsF/e2M7+EdABAFiB/Hp9lU/+aCN1St1z2/b+Ha+xf1L33AH2+BcfrvTJLW1s/0zd8/fv5kqf3NLG9e+m6d88HSSgAwCwAvn0j3X8EJc6pe65rbt/M+c7+4krU88/F9I/+bSTNVQ9iLRh6vnnIp/+/WbS+eee699v7L9zIKADALACAvo4vn8z5zsC+kj59I+A7mlUnoe2YRACOgBgXZjiMk4u/WOKyzi2f0xxWRsCOgAAK5A3kskbyqYmb3zL4U2G9G+cXPonbxJdZ//mDujyJtFt7B8BHQCAFchHsa3vY+ym++MrY9G/cejfZvj+TZ2j3ccsztc/AjoAACtYxx/ykbq2+Q8V5di/KeehS/9k+s62/qGisn/8oaK1IaADALAi/lT8MPRvs9bVv+ki/2r4U/+ORuV5aBsG2XhAt39O/EpxeFuXu9g/yb7kvpk5Pbhi2r5fLHR5DovdM/an5pdk+6V/kn7yP9Vfuz/vFoeX13Ae4Bx5+Ohx8da7N4r7XzzSNeNJHVKX1JmL89A/+USZqfondT3IrX/v3Sg+n6p/pq4HDzPs3/0p+zfvbwcI6HOy4VxC2NkL6C6cS9vnC+hliN2ygC5j68Py+l8EuXC+lhcCwDlz8vFnxTu/+milTwSRY6UOqSs39K/fWejfKp/oIv17N/f+rfCJLrZ/v86jfwT0ufEEfSXb9wTdBea9I13cCJ6gA1ORN6xJSBjzJFaOkWOljlzRv3bnoX8Szs9C/8b8psD2z4TzXPpHQJ8bAX0l2xfQj4u9ZwjowFkmT99kCofMY13mjZWyj+wrx+T4ZDI1tn8y7YP+ze889E/aOqZ/v82ofwT0wXRKgITCcopKEqjs+iS4BvtGgTwK6NV0g3JduT3YdvlacSq7Wy7QVXWH53XbJHhVU1LCet0xcRgM29Ad2sqAHvYtDMt2rnNVV9Tucps53ny9F54nGqv0BUDQX3Ou/oCejE/D2DWOT6Mh4xmf149xeVzUDhX1Ozwu6UM4JvaY5vujmseejKE9JlznjrXXOrpm1Vh0TyfqH8eqLa5U95y2u+n7KWhL7T6Mxsr0ZeB/YsC6yZxYeZOZfDqIfAScfKay/PpcwoAU+Vo+u1m2yT6yb05zsvuk/bv36f1a/6TPvn/vm31z+MSWZdG/7erfMt9/Ob1nQBDQB4nDqw8rNnz4wFUGhzRE+WWtI9pfw4wNJOlxeq5onyrgxAG1CkppqHPrgvbrMTZQlWFRtofBytVRhalYGcb8+bW94bnKYBW1OzxP2GZD6ij709S+cF9Tp/Qn2D+Wtl/HxNbXMT6N9XXsL+saxzO9PsLU09pekba54xp33B+yrhrrZHzt9paA3rhsmHqjF1GlJcbRnrM6X/X9EoyfFN3fbpdlP47J8U33yEWzbz6flwBUJNTI0zn5gyfyUXDylE6KfC3r5NfpZyn4pFz/7jX076b27xP6l7Hz0b+z+f1HQB8sCR9GGsriQOH2bwu5bl8Trg7Mv2Ednt/eF5qDYFYFqyDMqTQwupCtbbXn0nAUlmD/UHSsqsJXIKg3DI31epPAVhbtv9QT1d1Wj1O7LiIaz/7xiQ0cT2GvS3D9zPlb7wWr5fqKpmsc9UekxzeMkT0mvG5un7Bf6T6n5v6szpFadhyD61tel3r7mr+ffB+DOqISjgEAAGcbAX2wZQOFDzcdgUvYfTtCRhRORFqfW3bnT4NWf3CKAqWcKw20HWph1IjGwgdKe76k3VG/fR2u/W1j1RT+uwJ10/6+Te4c/eMTGzieVni/mK93+8Y3GSfLrWu8xr33R3h+ZY+ptzHsV9xX83XrmIhwXycdF7us7Yy/X+rti7cbUR/d/m33CAAA24CAPtiygSIOnXH4CQThw4WYOPB2B7C07nS5PzhFgbIW3LrVw2hYf9hOkS6r8qmw1NM9Vt3nq3P7h2NnRE+0+8cnNnA8PX8Nj9qmiYTSceq5xp33h3D7R32qXefmcS/7YvavXbdI97jYeoLvj3i53r50/7iPzW0FAGCbENAHGxoofNAJQ5QEGA1IDeGjHqbaAliyv4bdKrwMDZRaX9gXU8dhSxiq9Stqa3Juuy1sdxAQbbvD8YiD/OnBNbfNh/mkv/YpfDhmJdeGsD9x//vHJzZ0PD0d19r6Juk5eq5x5/0hkuNF7ZiGfaz6+DXrHpfue6x+brt/x/dT5z0CAMAWIKAPomFCQosUEypc+PDrTAjR8OBKFSri/TTM1PaN69+5+tfJdg1MfrupI6rXhN49f/zu92v72tDk15kAtEjbblsan6MvVNb6r+tFdD7zgsTXu3PwbnG4e6UK16bEYathrLxwzEwfDjsDtUj6U+5bH8t0fOJQ2r9/83gqaXdnO43ofqjqaL3GV/6qWt94f5gXV8n92nfPpW2Uc0fjX7PEOIYvpMw598y1d1//dfHfJueu3U+19rqzdt4jAACccQR0YBNM0AxfhJwV3W8OBQAA60BAB9bu7hJvDs3Rcc+bQwEAwDoQ0IE1qaZ6VFMz8hdOeeme3gQAANaDgA4AAABkhIAOAAAAZISADgAAAGSEgA4AAABkhIAOAAAAZISADgAAAGSEgA4AAABkhIAOAAAAZISADgAAAGSEgA4AAABkhIAOAAAAZISADgAAAGSEgD6Q1EWhUCgUCoVCoaRlYKZuRUAfKL0QFAqFQqFQKBSKFAL6ADJgAAAAwFlAQAcAAAAyQkAHAAAAMkJABwAAADJCQAcAAAAyQkAHAAAAMkJABwAAADJCQAcAAAAyQkAHAAAAMkJABwAAADJCQAcAAAAyQkAHAAAAMkJABwAAADJCQAcAAAAyQkAf6PTgSnHhmWercvlacarbeh3tm2P2i4UuDrHYNefaPdYlbKe7xeHlXK/zcbFn7vedg7u6DAAA1oWAPgphBVPTcC4v+rIL6O5+l7ZxzwMAsH4E9FFcYNk70kW12B33dPxMu32t2JswtPWO4cTnm9xK7cvrCXp8LXhRCgDAphDQR2kI6CtMXzm7XKCcLLT1juHE55vcqu3LKKDXrgUBHQCATSGgjxIHdDs/3CyXpSVg2fnr4Zz129eKHXuMCUKdT17T4BcEORuk3Hlte8o6kzDlA1ewPW1nOr8+fAHitu0Xh36f/+rVqh5brhSHt+t1hG3wdSx0/Ow+2obeMQzbbYs7XzkW5fr+gD9o3ESwb2v9626fahvfaL2/x8o2+ba07JdovhZVQK/qqOp1gutqStjulD+H1Bc+qW/rn3Db6vfPV+EYmz6d6P6WGceLfl85tuM/u8Xuc3bfnYM72iZT7/PPBedxbbD1yXlsXbrP7rWyDXtvfmX2e9Hst19c/8q09ZKeX+uwzLV5wa+P6jOkzZeuFG/ccnWH5/NtlL5cLysTx8XVS9pWU6QN0eaAbVtw7p3X7pT7ltt2F8XJgfl+v91ci9vP90/bZI756quwzT9yfbJ99W2Tfrk6F3vhcXYVAEAR0EdxAaEpwLaFrzJ4lKFIQoUPOK6+WjC0ZD/5wea3V8u22PAUhCpfvw14rj1R6Im2V+e0+5Rtq46RPobHx21M2m0DYRoGG9rgx8m2oXn/Zuk4ubFIl5vrGD5ulizrvsK2MRin2CrtE0Ebw/b583WMr2W3J3UfHZfLsn/VFq076Fuofi1c36Rtrg5ta3m8bE/bkgZ4FYxpdJ4R948Lq/4Y0wYTLveO9H802W7O4/9/kzoumrGMArwX7Gv3M+dwAdj00wbwhno0jLo2mTZo8HThvGqrrUfqN6Hb7eOOkxcC9gjTbwnrEqrdfv5YDbO6XdbZfdLjTb+vmrBcvviw+1ftiSTbqqBtlmXb8/pC4ehV214fpkNxwNdj7f5Bm22bngteKKRtNsz5rpp7iXAOAHUE9FFcWBkS0IXdpwx35gdWFHC6uH1rQS84Nq7bMD/o+8JvFf7q/UnP0dw/d1wY+rwy+AbH1OowP6A7A2dNcj7bx2R/W2faF2/ouOn+th9hqdoc20D7VNP4Clkf1r0wAd1xbav3pXm869eifq3DgO/2T+tuvjfSe7PJmPvHttGERHfOgdfOtOmibLulyyVTT2tAl6X6duFCug/5hmlrY2iW80bh268Lw7H0y4Vdx53zoj55jgNzVcIn403KJ9i2nWZP28YwVLeLgr2o9c8F9KgNNsRXx5wevGquRd+Zzr4HD78sbp/cK37xwZ1i8U8fFj9594Yt8rWsu33yid3nrGrv3036dwac3/7l//1HQB/FhZXVArphg4r/gdp1rAsbVdjR8LF00GxuX3lMS2i0IUnrbO5fPbS5/bQu24bqmFodScBqPkcoPt+ybaoMHTe3f3OYbrL+9rk6m8fXknV+fzO+h2Xb5bzVWPept73e7lpAD9rdTftp6pMS1tnVv1qbkvvHtjEJ6OXT9F5mfwnaZZvuxOtN33xN0o6VA7pdlvEzIdu2Owjgpt+DA7qc32/u4QO9DeJJaK5Cu7atpc5RAT1aZ77eW77NZ9HDR4+Lf755Ulz/+YfmZ9DHxb1Pvyi+/PKJ6bMZd1Pk608++8Juk31kXznmrOjr36Okf++bfc9S0KN/292/pu+/B5l9/xHQR3FhJQxu9UBTZ/cJw6Bng4b8UGw73oWNKsi4ZQkFXq3uKGg2t68KWK4/YX2i/oQ0bZ87rmxXGhgHBqzmc4Sazhdfh6ZrUxk6bum491lz+3rG16nqXxyE91rXeevq1yLpm1G7P5ru7R62Dl9vT/9qbUruH9vGJKAvf+0q4Vx0W8/kAd21swrcsrxiQC/b08PWHbQrCeieD/FtIX1cQA+Oe3Pf3IvmB6Wu3zYnH39WvPXuDft0TsJAH9lH9pVj5NjcDe2fsP1754Pi5Hf0b27noX/ylHzZ/vnvPznmtxl9/xHQR3FhJQo7ZZgwPzwP4qDrxQFDAkQaNoLliOwbBrd0WetuDZr+3EGbG8Nx3/a0fa4dLlxdKw7/Lj6nC1/VMbU6knP0j2Fyvts6Duk5WoPi8HFzy/G1PjXBt+s6ra19SdvS8fXcMVdqbzq268O+GXGID9Suhbvnw8AbBnS/PWy7XN/qCX7A1J3W48asu3+u/UF/0/vHBtmgjaY+CdrhU/TWa1drk5sv7b+uArA7h9wTcl3Keeim3+H/o8sE9HI+trQzDOx2efmALtslDEdhumPsw7rdE3MN2tJG6YfWYfsQLIfGBnS//qJ/A+kWkl+nv/Orj4r7XzzSNcuTY+RYqSNX0/TvE12TH/rXTo5594z07/Ox/ft1Pt9/BPSBXEjQH9D6Q9oGHBsWZF0cgLz4OA0+u1f0GFean25qaPP77f59snxcr9v8EK6WXXt8uNmzoceV9HxxPVU/6m2vuBBlig1mGtK07O36dlwp/pf/MamjHC/dV9rSM4YiPp9Ixqcv/Pr9lhw3Ee8Xh9TUWtvXMb7ReNlxbB7Dsn2+jsZ7zoiuRXxe6X9UT+17IFmfMuO8Y15A1Pdb5f6pt1HIGFZv2Oy4dg1tKgOknMuHcnNu+0lGdru5ZhLO/THmmskhLpxX+1+/FR5v2mqCdvVpLKaYfvq271z963I/6fcbt0y/JHz77QcLc5+Ex2ooN21s/VSYiIZ53S8c4zeuXyv2no/HOX2yLlw4D/Yx/as+peXZYvfNhW2zb2PTU/QXwjeLbhF5cifhQH59PpYcK3VIXbmZon+PvnxM/2bi+yfTV8aS/klIz7p/j1b7/pOQnkP/COjnhAt7cbgGgE3b1jeHypxXmTYw5slkSuqQuqTOXEzdP5lOkFv/pE1T9e9tU1dOc5pt/967MerJcsr2z9T14GGG/bs/0f1p+zfvnHsC+jlBQAcwv+OtfXOovMlsyl/9S11SZy7o3zDnpX+5fCu//9Ga+jdjBwno50B9qgQAbIqbCuSmvDRPmznr5EmbfBLEsm+4W4bUJXXm8MkZ6+ifyK1/Tyfun3yU3xeZ9G8h/Xu6hv49yKR/pi1Pnz7VNauTe10+anLO/hHQAQBYgTxtk49rm5rUmcMb1ujfOPRvM3z/pn35YQLyzP0joAMAsAL5gyfymcpTk89ulrrnRv/GyaV/v1xz/yb+xcNgv7yxnf0joAMAsAL59foqn/zRRuqUuue27f07XmP/pO65A+zxLz5c6ZNb2tj+mbrn79/NlT65pY3r303Tv3k6SEAHAGAF8ukf6/ghLnVK3XNbd/9mznf2E1emnn8upH/yaSdrqHoQacPU889FPv37zaTzzz3Xv9/Yf+dAQAcAYAUE9HF8/2bOdwT0kfLpHwHd06g8D23DIAR0AMC6MMVlnFz6xxSXcWz/mOKyNgR0AABWIG8kkzeUTU3e+JbDmwzp3zi59E/eJLrO/s0d0OVNotvYPwI6AAArkI9iW9/H2E33x1fGon/j0L/N8P2bOke7j1mcr38EdAAAVrCOP+QjdW3zHyrKsX9TzkOX/sn0nW39Q0Vl//hDRWtDQAcAYEX8qfhh6N9mrat/00X+1fCn/h2NyvPQNgxCQAcArNPDR4+Lt969Udz/4pGuGU/qkLqkzlych/7JJ8pM1T+p60Fu/XvvRvH5VP0zdT14mGH/7k/Zv3l/O0BABwBgAicff1a886uPVvpEEDlW6pC6ckP/+p2F/q3yiS7Sv3dz798Kn+hi+/frPPpHQM/E6cF+cXhbFwAAZ5K8YU1CwpgnsXKMHCt15Ir+tTsP/ZNwfhb6N+Y3BbZ/Jpzn0j8Ceg5uXyt2nrlCQAeALSBP32QKh8xjXeaNlbKP7CvH5PhkMjW2fzLtg/7N7zz0T9o6pn+/zah/BPQRFrvPFhd2j4vTgyvFhWfM16bsHelGI1wvZefgrm65WxxelmOvuX/Ntr+8Gu974fK14rTc77gojvbLbeE5yrp0W9c54uMAAOsmc2LlTWby6SDyEXDymcry63MJA1Lka/nsZtkm+8i+Oc3J7pP2796n92v9kz77/r1v9s3hE1uWRf+2q3/LfP/l9J4BQUAfpDkU28Dun4AnT8NdWN8vFtGxydNyG8L9uvgcNqQb9hw2vAvZJ6zjuNgz++4ddZwDALBxEmrk6Zz8wRP5KDh5SidFvpZ18uv0sxR8Uq5/9xr6d1P79wn9y9j56N/Z/P4joA+mIViDs+MCcvUU23HBXYoEdNF0rBEFdFHfzwZ9H9CDp+pRsfu3nAMAAABnAgF9sKYA7Nb5gO6nuNipJTZMryGgl0/TUwR0AACAs4yAPlhTAPZTTMyXUSA31hXQw3NECOgAAABnGQF9MA3AQUCuh+cqbLtpLj0BPZi3vjiQenoCut8ePUU/Lg7tE3wCOgAAwFlGQB/MB+B9+9Tczf8On2a7p+l+Xvie2c99/a3i3/5xtT4O0NUx8Rs93X5+yowr/lzxedz6+rEAAAA4Wwjog/GEGgAAAOtDQB+MgA4AAID1IaAPwhQSAAAArBcBHQAAAMgIAR0AAADICAEdAAAAyAgBHQAAAMgIAR0AAADICAEdAAAAyAgBHQAAAMgIAR0AAADICAEdAAAAyAgBHQAAAMgIAR0AAADICAEdAAAAyAgBfSCpi0KhUCgUCoVCScvATN2KgD5QeiEoFAqFQqFQKBQpBPQBZMAAAACAs4CADgAAAGSEgA4AAABkhIAOAAAAZISADgAAAGSEgA4AAABkhIAOAAAAZISADgAAAGSEgA4AAABkhIAOAAAAZISADgAAAGSEgA4AAABkhIAOAAAAZISADgAAAGSEgD7Q6cGV4sIzz1bl8rXiVLfN6mjftGe/WOhize1rxc4zV4rD27qMc+hucXi5unf3jnQ1JnZc7F0y4/vmwP9ZhzLf0y9cMt/Tt9rOc1xcvfRcsfPanWLNLQEATIyAPor5AWwCzs7BXV2emQ3nErpaAroN57KdgH6eLXarUC5fZ/PicutIQO8Kzpvgwrn8v0BAB4Czh4A+igvoWT2B5Ak6Osk9y/X3Tg/21zgWd4vD58334gypOO7XBp6gm/9Xrh7c5QUAAEyMgD4KAR1nDNe/svaxMAF9d4bfTph+xVNe1h3Q5YWIqf+AJ/QAMDUC+ijdAT2cp26nwZRTUIJpBbVpKfH84Mb1u8d2TVl/OEWhIaBX7TA/tI96QokNLXpe8/Ve2m45d7mP7hcd5+pO5+hH04B8G8N6tE9NXF1yHjfe1f7BmPgxiNpW9dNO5SiPq/PbpZ2LXTnXMuOt+5gQ5veVe6G9vSpqoynB9RvU11KwrynL3I+uVOOTbgvr8G069Ps0jaG9plJfvZ3l2Nt+ieb2lm2o9c+x9Zhzh21N23lR10up7rn6dfrLq3F/5ZwnX5l2XZLj7gR1mT7d0most48/bu/I/69pzmFCanQvpHPPzXV/wR67X1y/pd9bKTOOF339u4viq/IYPU6qLNddKd6QEG6PcdtOD16sjpdS9ssF9JNyux5bqqbCuON+ZI6L1/uAv9h7zo1N2b7guFq9AIBVENBHcUGjLRBZPozqYtMxi4M48NWCRXm8DxpVQLJhJQw06fmiZXP87hUTDqtgFpP6/TbXzrItNlSGx6VtlbZcc+dJ9nWByrUhDFdlu20b47q8aH/fD93fBUJZkY5pvW3SpsZAJKQ+HdOwrd3jrduidnS11++TtM2OlWv7uL7Ksm+vUbtOiYbtVZ+C5YY2NV0fq2xj0E7tl6+n6Zr4wF0xfYmWvXCsqzpc8A/PV/VL2n1RxuWr5utkmXZfLNeZcwfBVkK6Pa8N3cf6ZFj2kTrtgjunfVIt5/AhVZab/ieVuuRcss2dq/WJs6k3fgLu2hHuX36vSR9suzW8l+vCoJyGbFffRQnYdhe3XV5QuCN0/ySkh0/gbUhPjl/fE3oAOL8I6KNIOArDUpN0H7dcBZPj4tCHFht0grAlNOiEIac5MKqoDrd/1D673YeSVL3+ittWBSzdtzy3WT6oH1d/eupDX9xPu1/Yj0Bt/ySM+TGNAmQylp1zjVvHpD4e8Xg3j1d/e5U9rxsff42G9tXt7+oISzQWoZb64ns47letTU1qY5jW2zBWaVtMHXE7Qk1j3XDdjcWuD8umzfY/terY6P84c74qoAtTnwZnT+q6qMfJOIRP6KuxrkJv7Rylvu0ht28VyN3yRXPfucBslsPvNemHPkGvlusBvS1g26fuZd3q6NWgDgL6FB48/LK4fXKv+MUHd4rFP31Y/OTdG7bI17Lu9skndp+zqr1/N+nfGXB++5f/9x8BfZSmcFMXPim0QTGcZmK+9gGhOQiFIcT8YE5Cij0mDLY2KGkdNgAl7WsLi5493oePuC3Rucx+e0dB/029h8F5XF90W9gmo6mftX4Eavu3hMw4qIXrzNfBmNXpuNo+h/X0jXd9u+htr14Xd1wwhsbQvtr9O/uWaGlLeg+HL5hqbWpir3G9nVW9TWMVrjNfd87Xbj8+HAsJ0HbaiWmPe4Je7SfHRv/H2X2SNvcF9LSOkjlHXwCX85VP6YNA3SAKzeY4+71mQrCdNmOuWfi95uodH9Dt1+XTcmXOIVNX3FN1AvoqHj56XPzzzZPi+s8/ND+DPi7uffpF8eWXT8zYmbE1Rb7+5LMv7DbZR/aVY86Kvv49Svr3vtn3LAU9+rfd/Wv6/nuQ2fcfAX2UNIS0MD8wXcAxP8Ttk68qWFTTWwy7X1pfeI4qaHg2PIXBtjyXcMdWgdOoBb4WGtzawqJvt3/xUf7KXURtMJLlpsAXvohJ1fav9aGhn0Z5nDl/7zVSth1lXX3jXd8uutub3jPx8tC+xu1ZQkt9aR/iF5VJm5rYa1yvt+pn81iVx5kXqq1TkKym44NzmHqqQJ4uV8dG/8fZfZI29wV0H5przDmWfUJurkE5F71tZ7uPaZsJ2dX3mgvFJ+H3mpB+rPoEPdrfCM7fd3zTdjgnH39WvPXuDft0TsJAH9lH9pVj5NjcDe2fsP1754Pi5Hf0b27noX/ylHzZ/vnvPznmtxl9/xHQR0lDSBvdT95ApmHABasrSSjRIBGEoTSAhU82fb32iZxfZ344h0HJBc50OV5XkfOn4TAMZq59O7vyWwBdpefbSX7lXj9n0qdw3GqhMVYLiLX93TikAb0cn74Aa9obHivt9cvd410Fv1B3e5O22rGqxmJ4X7VNYRvMMdET1pCtL75n+65HrU1Nkmvu21Wdp3msmu75ZvX9bLuC+z4M226ai9nX/qdWnTv6Py7opwvBps0dAd32SYJ1WE851uYcnQFdtvv2GOa4F8L57DWuvvR7TYK0fK9Fh+n6MmDbuk2/ynAv7e4P2NWc83S7a0u5bOuX8ZWxkHXaVpmSE/xG8LyTX6e/86uPivtfPNI1y5Nj5FipI1fT9O8TXZMf+tdOjnn3jPTv87H9+3U+338E9IF8qClLTwiMg54RhIOY+WFng0hLvfY4v10/WSMIKeVxZd1xfXvmB3bzeYXZ176JNNg/CHKiHtbSICbcurIOEzLc1+68vo698sVC/TxePM7mvFH/5bj4XGlIl+PTdTVm3HbMiyVfR/06+frD8U6ukwbP/vbqveDXmbHx7f/Gv/lWtX5IX5P9aveMitsW7xdvq+6PWn/c6ljtvkvbedw4ViU5Pl1Xo+MdjFfcHnPOcvpIeM99q/i3f1ytjwN0dUx9bO+4cO7XmbGy4VXGOjiPW2/aJuHcr2sM6Q3fWz1/YdQ+2TZ9rJ6yS3t1motnw7mvM54z7s6xsMf4c0pIb+xXcIwtZThXdk66P+ZHxRv6NN/vYwN903HnlDy5k3Agvz4fS46VOqSu3EzRv0dfPqZ/M/H9k+krY0n/JKRn3b9Hq33/SUjPoX8EdGyMC30tYW9i6/1DNJiECZltL9AqPqD3BXlgXjLnVaYNjHkymZI6pC6pMxdT90+mE+TWP2nTVP1729SV05xm27/3box6spyy/TN1PXiYYf/uT3R/2v7NO+eegI6N2VxAP+55cyjmJ0+Wm5/4xwjoOBvkTWZT/upf6pI6c0H/hjkv/cvlF2fvf7Sm/s3YQQI6NmKpKRMr0SC3tvoxhWqaT9t0q1B4TU0hpCNT8qRNPgli2TfcLUPqkjpz+OSMdfRP5Na/pxP3Tz7K74tM+reQ/j1dQ/8eZNI/05anT5/qmtXJvS4fNTln/wjoAACsQJ62yce1TU3qzOENa/RvHPq3Gb5/0778MAF55v4R0AEAWIH8wRP5TOWpyWc3S91zo3/j5NK/X665fxP/4mGwX97Yzv4R0AEAWIH8en2VT/5oI3VK3XPb9v4dr7F/UvfcAfb4Fx+u9MktbWz/TN3z9+/mSp/c0sb176bp3zwdJKADALAC+fSPdfwQlzql7rmtu38z5zv7iStTzz8X0j/5tJM1VD2ItGHq+ecin/79ZtL5557r32/sv3MgoAMAsAIC+ji+fzPnOwL6SPn0j4DuaVSeh7ZhEAI6AGBdmOIyTi79Y4rLOLZ/THFZGwI6AAArkDeSyRvKpiZvfMvhTYb0b5xc+idvEl1n/+YO6PIm0W3sHwEdAIAVyEexre9j7Kb74ytj0b9x6N9m+P5NnaPdxyzO1z8COgAAK1jHH/KRurb5DxXl2L8p56FL/2T6zrb+oaKyf/yhorUhoAMAsCL+VPww9G+z1tW/6SL/avhT/45G5XloGwaZNqDrnx+f/M+Ou3p3Du7q8gSO9vmz9wCwAQ8fPS7eevdGcf+LR7pmPKlD6pI6c3Ee+iefKDNV/6SuB7n1770bxedT9c/U9eBhhv27P2X/5v3tAAF9EA3nz6wjoAMAzrKTjz8r3vnVRyt9IogcK3VIXbmhf/3OQv9W+UQX6d+7ufdvhU90sf37dR79I6APtq4n6A1uXyv2BjxRX+zytBwA5iRvWJOQMOZJrBwjx0oduaJ/7c5D/yScn4X+jflNge2fCee59I+APtimAvrAKS9MZwGALMjTN5nCIfNYl3ljpewj+8oxOT6ZTI3tn0z7oH/zOw/9k7aO6d9vM+ofAX2wIKDbUOymvOwd6WYrmApjShiyTw+uuPXm+NOD/eLwtm4ojos9X8/ta8WOHuvKFbdfuv7yteLUrF7sBuuk6IsHey7dxyvPryVst9smId+1JawLALA8mRMrbzKTTweRj4CTz1SWX59LGJAiX8tnN8s22Uf2zWlOdp+0f/c+vV/rn/TZ9+99s28On9iyLPq3Xf1b5vsvp/cMCAL6YEH41vBqA3IZhGW7BmorCd5+Pxvu/X5VIK4Cs1tXhfvkibqGdb9/Fa7D5bBd9cDu95E6yv1t0XqiNgIAhpJQI0/n5A+eyEfByVM6KfK1rJNfp5+l4JNy/bvX0L+b2r9P6F/Gzkf/zub3HwF9sOAJuoqCb/BUPSqyfxKqY0GQt9KAHmh4cu8CdjzFJQ7kaf0i7kutDtteAjoAAMAmEdAHWyKgB0+pU9F0lKCOpQK6n+Jij4v37w3oLS8Owqf/BHQAAID5EdAHW+YJehyUm7gwHNbTF9Cbty8d0HX/+EWBBnRdR0AHAACYHwF9sJ6A7reXy+K4OJSgLYE3PS4J6I1zzo+umZCcbNdpLmVgL18YmOMOmgO3Ww6OSQI4AR0AAGB+BPRBNHzLk2gpJlz70OuKD7f6tDpdbwLv3uX+/X0IL6fDaIiPp8fsl8fY/W2YlmUXqJvbla5Pw3mwf1mfK9WTewAAAKwTAR0AAADICAEdAAAAyAgBHQAAAMgIAR0AAADICAEdAAAAyAgBHQAAAMgIAR0AAADICAEdAAAAyAgBHQAAAMgIAR0AAADICAEdAAAAyAgBHQAAAMgIAR0AAADICAEdAAAAyAgBHQAAAMgIAX0gqYtCoVAoFAqFQknLwEzdioA+UHohKBQKhUKhUCgUKQT0AWTAAAAAgLOAgA4AAABkhIAOAAAAZISADgAAAGSEgA4AAABkhIAOAAAAZISADgAAAGSEgA4AAABkhIAOAAAAZISADgAAAGSEgA4AAABkhIAOAAAAZISADgAAAGSEgA4AAABkhIA+0OnBleLCM89W5fK14lS3zepo37Rnv1joYs3ta8XOM1eKw9u6nHD96jh+CNuW9nPlbLFrrunusS5V7Hq95jsHd3VtBtLr2jv2d4vDy0kf+u6dbWH6eVH62fof3nGxd+nZYu+oZQd7vBnbW7p8Tiz2njP91nv/tTvFwJ8X3cz9+8IlGVNf63Fx9dJzxd6bX017HgA4Ywjoo5gf5DkFNRuw5AdoS8iyIU62Nwe36kXHBCGtbEtXSDxbZHz8tZ70hczUesfehXMbtHJ6kbEJNlzrPd74H54L5zI2jQG9PP58BfTTgxeLFw5cKJevL17aL64P/YmxNBfOZZx3CegAzjkC+iguoO8d6WIObDjrCI48QR/JhdqsrnWX3rFveIJ+XtiQ3RbQBU/QY+ZeeX7TT7N5gg4AgoA+CgG901YF9AyvdRcCejsC+kBzhGUCOgAIAvoo3aGtmjKiQciGJrdczlkv1/lQXE0/aF2vc6PL+sP577a+OGBX7TCh4mjJgB62NZmLHfarc+69rUPOFbQ92t+NX1lX2O7yhUSwT3hsx/bm9lX79YfsJLyGY9FRRzl2Yb/s2DX0v5xuJKW6HuUc94b578Jvl7YtdoPxSq+7H3t7vbXOaOyTPhq2/cE+7f2phHPyq6LtKPtols3Xe00vBtL7LBqXtB4/TsF4+v3sf17BelOXrJI+2Ckppl8nsosw56wFdLvOHbt35Pq7XEA353z+OW2HrNNjZB+dKiPtu56eq3Gbq2vn4I4ZVz/f+0rxRjkvu4lpqwmyri5TpJ92dxdwZZ2fL17OId9d6H/2bp+d18y1sfs2nOvo1aCtrtjQbK7JC9F5f6Tn9cdIXXdsf9z4u+3VPPZkiow9JlwXBPToXFUb6/0BgO1DQB/F/yDXxSbmh3EZNKz6MYsDH4rS0OQDhz9el4OQlIaq2vmiZXP87hUTdqpAmHKhLDiHPb5qk2wPQ13bmyktPbYMVhq0fN/jY9242LrL46Ro231Ik/37tpfLcT9PD/Zb+13xYx6H175rXY5b2Ka0/7U60uttmHY3Blkh9Wn/3PnS8/jrbPh1/t5Ixyc5d9l+3b+9P9WYRm3w41bei7Ic9zsez0DtWtXH5dR8j4TnqbbpeaUd9j8wXTb99P+fSTsvSnDVZelHFNDl/PYNim5xYfZ392nL/4j2eN3fHhvUJWR7dP4X3fllRes2M0ZB4JVgavtiA24S8EvumOops4Zyfy5dDt/QaUOtDbRVgJex655PHoRlu+zaJS8k7LIZAwnQdnsU6DVM63ZZ5+aUJ8eXx7QEdLscHON3MfVeNfcB4RzANiOgj9Id2px0H7dcBaXj4tCHDRuAfOBREgDK46vw4dmQVIYiI6rD7R+1z24Pw1AsDl2ODdL2HNr2Wkna7NXO1TJe2kepqwxeDe2M2ta33YhfAJix2A3GqZMbtzhQ9l/r2tjZftX7H9UbXS+po+NFRNe1S+rpH596H+324F7q60/64qyp/nB7u7QtemzZFrN8oPWk/RTl94j8D1ad1/9/Ju3qCujytFqCX0nqM4GxN6Cba1WFYc+c3wTJ+veI2f+WtK15m3sqbO4PE0rL4CpMW16QtpigmoqCvydts0+vXX3tAV2W6tubpWE5EATy8g2d5RN0v3dz2K7aYXQ9Qdc16T6nr79q7sVya/YePPyyuH1yr/jFB3eKxT99WPzk3Ru2yNey7vbJJ3afs6q9fzfp3xlwfvuX//cfAX2U/tAmwiBjA1g4zcR87QNPLRBZYairwoeXhqoowJTBxW5xkpCVampDdQ5pS/uxNbYt4f7peLllV7frWxnSascaYd/6totwH/N133WqJG2x+q91bexqYx1eSy9cZ77uDLR6/WXM0nq6+u5F+9T7mN5Lvf1JltPA7s7n2xvU0yA6t71WwXib8xzquNfaZJl9TUh0fam+R/z/Z3JMe0D3xwYBXdd1B3TfL9P/aC66Ob8Jn83Hdm0Tct4koOu6poBup8FIv8JNZqx8oP/KHLu2gG7PY15sBE/jy+3rCuhhe+Wce+YaVxuz9fDR4+Kfb54U13/+ofkZ9HFx79Mvii+/fGLabvpminz9yWdf2G2yj+wrx5wVff17lPTvfbPvWQp69G+7+9f0/fcgs+8/Avoo5oenDxFdymBkfjDZJ4EuREigqKa3GBpo4vrCc7jjwhCUhqrqXMIdGwW5NGQlmgJQFbyW7K9n2xKeq96Xqm3Jcu3Yeojr3G5V4xXN1+6Vtk309702drWxbrgeRnmc6dOyY2uvSVhXdN2N3vGp9zEdv/7+VO2wJRr7gD1O9um4BkHd/nvC33fV9BbD9qvhe6QM1NU19/+fST/aA3p9/7i+BvZ401YTzN1ccQmWuk3qM+EzDtle1zYh5022m3GJPx+8Yp+gm3ZUQdiI9g8Crds6UUDvWV5bQDd9fl0/4vFN+V6Jt+Xo5OPPirfevWGfzkkY6CP7yL5yjBybu6H9E7Z/73xQnPyO/s3tPPRPnpIv2z///SfH/Daj7z8C+ij9oc3R/XaTp+WXryTzjTUsBEEmDU02tJTLrt4oHCXBzAWodDleF3KhLNiW1FfbbkQvMkLJsfF4VcHI0hAXB84wQCZj3bfdq+23jKRtlqu/qx43Nl2Btq0Ot7414HqmL+Gxci3L5XSstd/leOj4VuNT72Pa/r7+yPb28ZD602OD5RrXnh3zQso/Lfd92vHTWyxtd9LOMIBLaJaxdMtmbE3Ytve8X2fqtQE76Ic8EfeB3C+78Wv4X9EfH75JNAz4sl2fYnvli4yubbat2nbdbF8ASJB1i4mG/aMA7tpWLptrIE/X7VjYdS4ELxvQq/2SZRuup5jiUj/GnsOvstz6i+GbUjMlv05/51cfFfe/eKRrlifHyLFSR66m6d8nuiY/9K+dHPPuGenf52P79+t8vv8I6AO58KI/7KSYH5Jd4SoO1kYtvHk+gLTUq0HLbTdhRtrh97GBxm/zdcf17Zkw0HzeSty3eqiqQr7WmYZiUWuLhlAtEuyi85gwt+fbKaHRHm9ewOxW+0RhsG97Sfof99e3v31/bYeUsi3BuoYxqY1ZdJ1kjOr9D8nxze0JmHbsmL74Orqve8f6hj6m7f/73v6Yamrj4orrhzmHfUNytb7xPgm4NoRj68asflzSfjMO5dNx0fI9UoVzv60aE/ck3K3fMd8j7rwN/yOmxyfzyv3Tb/d02+9XrRft21zglhcpZful3Z3/MWtI9/uHoVdIe4MXKG+Ye98FYxd0/XGtIV3Dd1m/GU95ym1fCPh1pr275l9Z3rn618G+ErgXtn1+353XFna8qmNNW8I2Nh4Th3R5im7/aFLnuMxLntxJOJBfn48lx0odUldupujfoy8f07+Z+P7J9JWxpH8S0rPu36PVvv8kpOfQPwI68mLDXxysI33bSxIUm148mfXRk9l5LfcJM3lpa3M0JQUDaEAPp7igJvc3h8qcV5k2MObJZErqkLqkzlxM3T+ZTpBb/6RNU/XvbVNXTnOabf/euzHqyXLK9s/U9eBhhv27P9H9afs375x7AjryMlVAN/ulT2Ddk9plwv2mmGAWTDU5E9p+A2TWt35MJHoQ0PsdZ//mUHmT2ZS/+pe6pM5c0L9hzkv/cvmWfP+jNfVvxg4S0JEPG76rX3nXQmDf9nCKQ7bBN5ymUZ8ycxbE02K0+Gk3GCieqkJID5nvFZmzbscmfCNpfuRJm3wSxLJvuFuG1CV15vDJGevon8itf08n7p98lN8XmfRvIf17uob+Pcikf6YtT58+1TWrk3tdPmpyzv4R0AEAWIE8bZOPa5ua1JnDG9bo3zj0bzN8/6Z9+WEC8sz9I6ADALAC+YMn8pnKU5PPbpa650b/xsmlf79cc/8m/sXDYL+8sZ39I6ADALAC+fX6Kp/80UbqlLrntu39O15j/6TuuQPs8S8+XOmTW9rY/pm65+/fzZU+uaWN699N0795OkhABwBgBfLpH+v4IS51St1zW3f/Zs539hNXpp5/LqR/8mkna6h6EGnD1PPPRT79+82k888917/f2H/nQEAHAGAFBPRxfP9mzncE9JHy6R8B3dOoPA9twyAEdADAujDFZZxc+scUl3Fs/5jisjYEdAAAViBvJJM3lE1N3viWw5sM6d84ufRP3iS6zv7NHdDlTaLb2D8COgAAK5CPYlvfx9hN98dXxqJ/49C/zfD9mzpHu49ZnK9/BHQAAFawjj/kI3Vt8x8qyrF/U85Dl/7J9J1t/UNFZf/4Q0VrQ0AHAGBF/Kn4YejfZq2rf9NF/tXwp/4djcrz0DYMQkBv5v5k+9n8c/N17k/o7xzc1eUtcvtasfPMleLwti4PclzsPfNssXekiwDW4uGjx8Vb794o7n/xSNeMJ3VIXVJnLs5D/+QTZabqn9T1ILf+vXej+Hyq/pm6HjzMsH/3p+zfvL8dIKCfUy6cP7tFAR11LpzLdSagA+t38vFnxTu/+milTwSRY6UOqSs39K/fWejfKp/oIv17N/f+rfCJLrZ/v86jfwT0c+wsPUE/PdiPnyDfvlbsbePT8snxBB3YJHnDmoSEMU9i5Rg5VurIFf1rdx76J+H8LPRvzG8KbP9MOM+lfwT0c+zMBPTaFI8tns4yOQI6sGny9E2mcMg81mXeWCn7yL5yTI5PJlNj+yfTPujf/M5D/6StY/r324z6R0AfzIXDC7vHRXG0r9NE4gBUTR9xpQqSHcfaEJrur4J92wN1NZ3B7aPn0nWufdU6OUcV0INjpW2BqC+XrxWn0fruY1OLXd0vKlV/ms6VjuWFP36p+Ea4XAb3NIi65aqf4b4qGPOwNAf/jvpa7oNa/Q3jd+jrKu8JU+eB1uf3t+uT6951T0TtSccFwCbInFh5k5l8Ooh8BJx8prL8+lzCgBT5Wj67WbbJPrJvTnOy+6T9u/fp/Vr/pM++f++bfXP4xJZl0b/t6t8y3385vWdAENAHiUOvD6Q2ePowlTzt9UEsDczRsbLcFsZkOQi+tr4g6MXcOcKAWdvftO9Qw1oVNPV89txx28O6bFtNW6rj2o9NuWN8v3Qsgna1ncuq1V2F5XBZ2uOCaLUsxe2n5yzHMqnDnqMtyHbUJ+u0TtvHsk/JtdCwLvWH45eeP6zPKtcveU8k999CxtUcT0AH5iGhRp7OyR88kY+Ck6d0UuRrWSe/Tj9LwSfl+nevoX83tX+f0L+MnY/+nc3vPwL6YGnQS4NZpXpinATTrmOjMBqEwKj0BOEk+Mah+1oZ9Ny2IPhF4S4OpVVx+3cfWxcFbiM+vvtc8ZiIJFxbbl0VROv7RG2otbepzlBPfUZtTLwgfPv2Ne5b66ey6/2+3feEtCnqQ/DCAAAAnA0E9MH6Q7YLXxqKmsLVwIA+KFylIducqwqSpr6DjkBZC+gNYVF1H9sg2R6H2+5z1YNrU5h265YO6Ea03Nf+JeprHhO/T9y+2r5iQEBvvieWGRcAAJA7AvpgPSE7ClNGQ7hqPVZEIc3tHweuPsExR9dcPb4NJjD66S2iO2R3B7vuY5vZQCuBVUrY574QGY2JWCaI1vdJA3UZoLV0h9j++uIxaW6PX66Nn6j1UzXcQ833RP3+qrcDAADkjoA+WE/ITkKWC6VxuFo+oPvlOGCF01SauDr3i73yabmGS3Oe8LhaSExCttseB8aFObe0te/YlOzfHCqdrnOFdbt1DS9CagE6XU4DtWxPAnKnvvrSMUn2T65jbfxEeu29AfeEqzc9j9yDhHQAAM4KAvogGrA18Eg4CwOQC1wumPl1e7suTF145lvFv/3jan3jsRq8XKkCWbxfHBIb6ZPhMJA1h0lfpzl3y9Nk9wIjXr/ssZGob1WpBd5gW1VPNaa1dtk+xWO+c/D3yfLduG77gii5lmVJQrOV1l+vT96MWS5rHdE+5j7wdXzj33yrWu/P13Lt29Z33RPheXdMcJfzNl4TAACQJQI6NqL2h4ZU328D1seE7uAFS+W4OOx7AQQAALBGBHSsX9v0F7N+rr8Gap8yNwT0xW7TE3QAAIDNIaBjI9IpGbaEc+83Lp624gtTQQAAwNwI6AAAAEBGCOgAAABARgjoAAAAQEYI6AAAAEBGCOgAAABARgjoAAAAQEYI6AAAAEBGCOgAAABARgjoAAAAQEYI6AAAAEBGCOgAAABARgjoAAAAQEYI6ANJXRQKhUKhUCgUSloGZupWBPSB0gtBoVAoFAqFQqFIIaAPIAMGAAAAnAUEdAAAACAjBHQAAAAgIwR0AAAAICMEdAAAACAjBHQAAAAgIwR0AAAAICMEdAAAACAjBHQAAAAgIwR0AAAAICMEdAAAACAjBHQAAAAgIwR0AAAAICMEdAAAACAjBPSBTg+uFBeeebYql68Vp7qt23GxZ/bfObiryw2O9k2d+8VCF/u4tiy//+bcLQ4vV2O0d6SrJ7LYNfXuHuuSMXDcZtfbXnevtI6bPf5KcXhbl88Fd0/Vv3/Se63630y+Py7qelvM9+qJbpuVuX4XL+0X11v/4zXX/9Jzxd6by/7PfFxc1f0H/l8OAMgUAX2UJcJ2xO0vIWH5Y7pVLxTyC6YSoH24tGF66RcxI9iwmuc4NOptb3WvNAb08vjzFtCbLXZNMNVQLl/XQ7iE3em+71Zmw7m7/s0B3YVze/2XCugunPv9CegAsB0I6KO4ENX3ZHixG4Ywd8yUQSHPJ+jSzw2HRxtaz0hAF73t7bm/7PFnPKDfvlbsrfy9IGG2bxxkHxnLjKKrDek8QQcAtCOgj9IToEQthLljtj6gm+C1Q0Dvdu4Dett0lYGWutcI6ACAs4eAPkp3gLLTOsz2stj50lVAr6anxOHCrg+mg1QB3B1b1eXEAT3YpyX8tdcXzOP157fhR9cF7Sz7Fs4BV1W/4uPS9VUw0/NKXTZ0uu12XIPzx0GuIdwFgTc6VzmWVX9r1yw4r21H1G8dx3KdH4d43nM13sF6HZ+yPeE0n6C9paj/rr29Af0oaGtYvwj7lZ7LK/fx/WoYpzIEB/dMdC6/XveJ7ovgGFPS6+qKP3cfV5dvV9u9VmeO6wroZgzKeeqm7V9J++wUFCkaost15hy35CBznZ9300qi/cL1UpdZc3rwoqvfjNmJb4KcMw3odp2rb+/NRX9Ab9nfHmG3XSneeE33Kc9dTYexJWyTtn3n4E5xffc5HRNTx62ONmh95fhd/lF0Hlm/89od26bFnu63u9AfOG6fndd+ZNt+sfdcAHC+ENBHicNCExcgwmBUhRUXLjXMtQS5OIBoPeYHbxhEonPItig4xdrrk2VfZ9ov18YoDJuw0jk1oQx0zctVm7X/vk06DuULAN8X20Y/jtUxbQHdSttgnB7sR8uR2v71fp8eXIvaUG3zbUraGARV2+fw2vS0d2H2lxDben/56+brtMcH55TtXecP2brCvgf3gD+PLdre5FzV+w3Sfks9bX1054iuYafqeycak9p1a2KONSG18wm61CNTZWz4FqYvGla96PpH29yyjE8U0s04+DPakG7GvzWgm/O/YM/vVizM/vb6twX0pv2ljxLQbd16zcowLNKn7BrWbaiWMaqCu9vH9eOi7VdTO5rru5iEdB/QhQ3ptk26rz1fW/0AcL4R0EdxgaE1QBlReLbqocSG0Y4gVasjCSR++6H8G9TTpq++pja6kFYd0xl0Ra3OSvWbBV+fCQFLhdmwPndMVxtFPLbmmN2WgGqldWq7ynaY5QOtq+Fcrs/+ftBje/tU1SFtjfoT1degNibhtdXz23EOS/M1qdeV3Nud59JxDvum3D5pG3w/G+6zXg3fcx33WsUc1xfQZcyaQrfplwub8fV3odUtWqYdL2hALo8119/v0hfQ5c2tcu6yyqi+uq797Tpbf/xEutYGEe1XD9Su3uapM831vdpZXxXQZSnYnla+ZR48/LK4fXKv+MUHd4rFP31Y/OTdG7bI17Lu9skndp+zqr1/N+nfGXB++5f/9x8BfZSGsJAIQ4xTDyXTBHQffsJzNeurr6mN8TrzddDeRrU6q3ba8bKBz7dBw2RvmA3rc8dEbYzqVOFx5uuuayWi89r9g2ts+nSox9fG0ArHaNk++Trax7y1zWHfvLJOd/6+/pZqdSXn7jyXYa+3vwer/WyfW++Vpj73aRiThnutzhzXG9Bde8vAafpXXX+zIrn+tYCu53CheWhAl2OTwK3rmgN68/4SdrsCug3HYRuE6VcVwBsCelpvwNXnn5arnvrOW0B/+Ohx8c83T4rrP//Q/Az6uLj36RfFl18+Mf0142OKfP3JZ1/YbbKP7CvHnBV9/XuU9O99s+9ZCnr0b7v71/T99yCz7z8C+ij+h7cuNqgHOXdMGEqmCehVKItCYIO++praKMrjbHDRlW3SOsMwJ6LlZcNs2EZ3TNTG9BxWVXf8aTotgnYvDtz5/fWppjcY9lzptQ/vh2X71D4GvfdXbUzCczSMT5daXcm5O88Vcsf5fZv38Zrvs24NY1K7f5uY45YI6LYuO20kvP4SKI+Lk+T6y9SMuD49hw3UZvwHBXS3vw2udqOQ+toCevP+fQHdtiFZJ32upso0BPRoe2xMfecpoJ98/Fnx1rs37NM5CQN9ZB/ZV46RY3M3tH/C9u+dD4qT39G/uZ2H/slT8mX757//5JjfZvT9R0AfpSEspGywkRBmfqDaX4+7Y3oDehA00+U0kMTb6/Wn+uprr8Otbw9cAVtnMDZJwLN9LtvgwmR/mA3bWD+mvo+y65cNgq7eHRPm/dNSX++On95g6fnT6xS02faxXNaxC8cvaa+7LtWY+eX6CwGl/Sq3NY55fGz0IiOUHFs7d20MXX/8/ovd9P7xy9rv8DqZc7mx1bGWOo/MuvS6NXL1RdeybHvX/2DmuGUCurTJBN/0+subF2vXXwK4uf7+KXoawG2wL5fd+e2Y+nVSbxB87fHSDw3kftleg4aQHu4vW11YrvZ389CT8GzaIYG4bIPRFJirN3qm21Nu//Apery/G6dy2Vwrebpux8Gu296ALr9Of+dXHxX3v3ika5Ynx8ixUkeupunfJ7omP/SvnRzz7hnp3+dj+/frfL7/COgDhQHGFh+6UhoeXBDTsKJFQoYLqlpMHb+M6t0v/j5ZXpT1ufKXV5PtEgSC7WE4E3G76/X5X+n75TTUyvHpulTz2CTtMgHIff2t4t/+cbVeglytjRoOXZFx9OFYi4S/2j7aGEv2T9e1c+evgrcNV6bedCx9wCzPm94D0djqewT8Pi3tDe+HHROmm88b6Ox3/Vp0XbvOc9vzXDHXraovrEsC+k4wFtF5knssHKfynDbAV+PZ3Of6vdl0r6V/JVT28UG3bZ+Q2z+cvmLO2xjuXfiM6g13Mf2WOeFue3X9q3Dut1Uh2oZ6ra+8Bg3h3Iv2f83sL+0sw3m9fkdDuB7X9CZSeYFSXrN0CkuNhvTG+gw7J72q6w37G4kqnFft356QLk/uJBzIr8/HkmOlDqkrN1P079GXj+nfTHz/ZPrKWNI/CelZ9+/Rat9/EtJz6B8BHUvpfXNolkyQ6nxzKHppQN/MtT82Ybb7RSDWJXiirWswjMx5lWkDY55MpqQOqUvqzMXU/ZPpBLn1T9o0Vf/eNnXlNKfZ9u+9G6OeLKds/0xdDx5m2L/7E92ftn/zzrknoGMJx/1vDs2RCZedT6HRb0MB3T1RD397gc0ioK9K3mQ25a/+pS6pMxf0b5jz0r9c/r94/6M19W/GDhLQ0SKcxnGGglM4reIsvqjIiQ3n/h7Y1FN0bJ4L5/5aE9KHkydt8kkQy77hbhlSl9SZwydnrKN/Irf+PZ24f/JRfl9k0r+F9O/pGvr3IJP+mbY8ffpU16xO7nX5qMk5+0dABwBgBfK0TT6ubWpSZw5vWKN/49C/zfD9m/blhwnIM/ePgA4AwArkD57IZypPTT67WeqeG/0bJ5f+/XLN/Zv4Fw+D/fLGdvaPgA4AwArk1+urfPJHG6lT6p7btvfveI39k7rnDrDHv/hwpU9uaWP7Z+qev383V/rkljaufzdN/+bpIAEdAIAVyKd/rOOHuNQpdc9t3f2bOd/ZT1yZev65kP7Jp52soepBpA1Tzz8X+fTvN5POP/dc/35j/50DAR0AgBUQ0Mfx/Zs53xHQR8qnfwR0T6PyPLQNgxDQAQDrwhSXcXLpH1NcxrH9Y4rL2hDQAQBYgbyRTN5QNjV541sObzKkf+Pk0j95k+g6+zd3QJc3iW5j/wjoAACsQD6KbX0fYzfdH18Zi/6NQ/82w/dv6hztPmZxvv4R0AEAWME6/pCP1LXNf6gox/5NOQ9d+ifTd7b1DxWV/eMPFa0NAR0AgBXxp+KHoX+bta7+TRf5V8Of+nc0Ks9D2zDIugL6Ytf/GfRni52Du7p2IvZP1od/Xv242DPn2TvSRQBANh4+ely89e6N4v4Xj3TNeFKH1CV15uI89E8+UWaq/kldD3Lr33s3is+n6p+p68HDDPt3f8r+zfvbAQL6SKcHV8pQLl9feGa/WNildXDhXF4IENABIE8nH39WvPOrj1b6RBA5VuqQunJD//qdhf6t8oku0r93c+/fCp/oYvv36zz6R0Af5W5xeHnTYZkn6ACQO3nDmoSEMU9i5Rg5VurIFf1rdx76J+H8LPRvzG8KbP9MOM+lfwT0UeYIywR0ADgL5OmbTOGQeazLvLFS9pF95Zgcn0ymxvZPpn3Qv/mdh/5JW8f077cZ9Y+APtTRfjnv3Bcbmu2c8WD95WvFqTtCj5H55O7Je7i9mseeTJGxx4TrgoAenauap17WtXvsVkTc8TItx03JiY8V4Zx6KdWLgY5jg/FIXzxU+5oSjgcAbDmZEytvMpNPB5GPgJPPVJZfn0sYkCJfy2c3yzbZR/bNaU52n7R/9z69X+uf9Nn3732zbw6f2LIs+rdd/Vvm+y+n9wwIAvoo6dNsF7zLN4pqgLbbo0CvoTYI2K6O5PjymJaAbiXHCFPvXrhccsf6drhj9MWCD/PJCwIb1m2o7jhW1unxNowHIVyWw7bZ+hpfOADA9pJQI0/n5A+eyEfByVM6KfK1rJNfp5+l4JNy/bvX0L+b2r9P6F/Gzkf/zub3HwF9lDQsB5qeKNt14dPq5rAdBdgkMDeeM9nn9GA/eiIec8f3h+YgfJeBu/9Y97Tct8Xt78ehKmF/AAAA0ISAPkpDWPZPxW1oTbavK6DrOheczde1sB0K93XSkG2XtZ3xE/H+Y+sBPewvAAAAlkVAH8UF1ios9yyvLaAHwdjsn26LuePbQnYcyKcI6PW2AgAAoB8BfZQ0sCbLNlxPEdDrx4Qh2XHrw3DdrH58LaCXAVvbMzqg++X4KfrioK+NAAAAIKAPpeE7nVdtA6tft7vvQrMpO1f/ulpvA6sGar/94Lia8y1FQm90jqZj4pAuYbge3EP146P2ShBPPhlmb1cCtnz9V8V3yvXNxy5sGPfrqpAe7WcKT9QBAAD6EdC3QPebQwEAAHCWENDPvOOeN4cCAADgLCGgn0nBRyEGU0oAAABw9hHQAQAAgIwQ0AEAAICMENABAACAjBDQAQAAgIwQ0AEAAICMENABAACAjBDQAQAAgIwQ0AEAAICMENABAACAjBDQAQAAgIwQ0AEAAICMENABAACAjBDQAQAAgIwQ0AEAAICMENABAACAjBDQAQAAgIwQ0AEAAICMnIuAfvPuvcGdBAAAADZNMutHkl11eVkaleehbRjkzumnxcNHj3UJAAAAyJNkVsmuWx/QP/38YfEv9+7rEgAAAJAnyaySXYfSqDwPbcNg8kpkTGcBAACATZCsOubpudCoPA9tw2CPnzy1HZZXJfKrA+akAwAAYG6SSSWbSkaVrCqZdQyNyvPQNozmX5nIG0fl010oFAqFQqFQKJS5imTSKWZ6aFSeh7YBAAAAgNKoPA9tAwAAAAClUXke2gYAAAAASqPyPLQNAAAAAJRG5XloGwAAAAAojcrz0DYAAAAAUBqV56FtAAAAAKA0Ks9D2wAAAABAaVSeh7YBAAAAgNKoPA9tAwAAAAClUXke2gYAAAAASqPyPLQNAAAAAJRG5XloGwAAAAAojcrz0DYAAAAAUBqV56FtAAAAAKA0Ks9D2wAAAABAaVSeh7YBAAAAgNKoPA9tAwAAAAClUXke2gYAAAAASqPyPLQNAAAAAJRG5XloGwAAAAAojcrz0DYAAAAAUBqV56FtAAAAAKA0Ks9D2wAAAABAaVSeh7YhC59+/rC4c/ppcfPuveLDO7+jUAYVuW/k/pH7CAAAYBUaleehbZjV4ydPbbA6+d3nxWf3HxUPHj0pHn5JoQwrct/I/SP3kdxPcl8BAACMoVF5HtqGWUmY+viTLxpDF4Uypsj9JPcVAADAGBqV56FtmI1MR5Annk0hi0JZpch9xXQXAAAwhkbleWgbZiNPOWVaQlPAolBWKXJf8RQdAACMoVF5HtqG2cgb+5hzTllHkftK7i8AAIChNCrPQ9swG/n0jaZwRaFMUeT+AgAAGEqj8jy0DbMhoFPWWQjoAABgDI3K89A2zIaATllnIaADAIAxNCrPQ9swGwI6ZZ2FgA4AAMbQqDwPbcNsCOiUdRYCOgAAGEOj8jy0DbMhoFPWWQjoAABgDI3K89A2zIaATllnIaADAIAxNCrPQ9swGwI6ZZ2FgA4AAMbQqDwPbcNsCOiUdRYCOgAAGEOj8jy0DbMhoFPWWQjoAABgDI3K89A2zIaATllnIaADAIAxNCrPQ9swm/EB/Vbx2jeeLS48E5eX/qF5e7V+9XLre98uvvm9W/H6D39YfDNox4Vv/LC4VW5P2hptO8vlevFS5v0hoAMAgDE0Ks9D2zCbVZ+gv/VSFXybQrhsnzKcu7D97eK1D5u2xe258NL1ePs/vDJxWzZf3vpeGMYJ6AAAYDtpVJ6HtmE2qwb0MiQ2BUV5qp2G5FWL1NkRSCXAvhaE9OhJ+1kP6Kb9Z+3pPwEdAACMoVF5HtqG2awe0N2UEx+IqwAsT7pfKd5K9l21NE5vCYp7why8aHgmeNp+lgO6n8JDQAcAAOeARuV5aBtmM0VAb3yKXgvDLaG5Npe9ffpK3/QWKeUUkGhOur5QqLVp+Nz02hSa4LcE4QsV+yJCnniH+5b1xOeNX9RU68uxiPriyje/9/8LxjN8IdTRp6g9Pwz2G3s9+gsBHQAAjKFReR7ahtlME9BNCcLfN01IfikKuz6cuyDpgmwVmqsQKOGwIxD2TG+REs3RDgOpHGeW62HYh1ttY0f9Ppy7OoIgG4Rvv49/yl8G+nIff5z2M+x/21h8eMv0S8N/Y+D2fejvU/UCw9WdtnfQ9ViiENABAMAYGpXnoW0Y7dPPHxZ3Tj8tbt69Z8PQmNIUrIaXILCWAU+LD5I+pOqyDbrl0+H+INg3vUVK/CbK5Km2CZtlQPdtKsNr1f4qxAelbKcPv0HdQwK6r8efV5ft/h1jUZ6rK6Av0ae0Pa3tW+J6LFOa7jcKhUKhUCjbWySTSjaVjLoKjcrz0DYM9vjJE9v5f7l3v3j46HHx1Ve6YSAZyKZgNaZUYbgKsfH6uJRhuwyFpoQBNCrLPc1NA3r8wqEKqvXAW+3X+CKgFn5HBvQyVCelFpBNaTpXOD5JQF+mT70BXcpS12O5IvcXAAA4PySTSjaVjCpZVTLrGBqV56FtGMy9MnmgS+NtNKD3hL2mwFsWCY1LhMV6QJdSzX8f/QR98oAej1Fa0robxzCta4k+LRXQtXRejyULAR0AgPNLsqpk1jHPkTUqz0PbMIj8ykBelUxhPQE9edIdPJENA7INsRIqywCogbIlLDY+2Y6KHN8SfLUNVfj24dXv3zcH3Yf8qm9N4TZeVwXkap/qxULZH2mbbO8aizB8m69tP/y6sg/9feoN6Etej2ULAR0AgPNNMuuY6S4aleehbRhEXonIrw6mME1Ar0JnWKJAHU6bkBIEwpde8kFTSlPAlqDYM70lqb/tKXi8Pml3azjXkpxD5rTbr8MAG+1jXlT4gG5Kde6W83aORXCMPV9b2zv6VAZ6V+JzafuWuh7LFwI6AADnm2TWMU/RNSrPQ9swiEy+HzvnPDXlE/TzVqaYArLthYAOAMD5Jpn1I8muurwsjcrz0DYMMmXoIaCPL13ztymuENABAMDNu78b/HBZo/I8tA2DENDnL2U419I/P/58FgI6AAAgoA9EQKessxDQAQAAAX0gAjplnYWADgAACOgDEdAp6ywEdAAAQEAfiIBOWWchoAMAAAL6QAR0yjoLAR0AABDQByKgU9ZZCOgAAICAPhABnbLOQkAHAAAE9IEI6JR1FgI6AAAgoA9EQKessxDQAQAAAX2gm3fvFQ8eNYcrCmWVIveV3F8AAOB8I6APdOf00+Kz+48aAxaFskqR+0ruLwAAcL4R0Af69POHxcnvPm8MWBTKKkXuK7m/AADA+UZAH0Gecn78yReNIYtCGVPkfuLpOQAAEAT0ER4/eWrDlDzxlGkJzEmnjCly38j9I/eR3E9yXwEAABDQVyDTESRYyRv75BwUypAi943cP0xrAQAAIQI6AAAAkBECOgAAAJARAjoAAACQEQI6AAAAkBECOgAAAJARAjoAAACQEQI6AAAAkBECOgAAAJARAjoAAACQEQI6AAAAkBECOgAAAJARAjoAAACQEQI6AAAAkBECOgAAAJARAjoAAACQEQI6AAAAkBECOgAAAJARAjoAAACQEQI6AAAAkBECOgAAAJARAjoAAACQEQI6AAAAkBECOgAAAJARAjoAAACQEQI6AAAAkBECOgAAAJARAjoAAACQEQI6AAAAkBECOgAAAJARAjoAAACQEQI6AAAAkBECOgAAAJARAjoAAACQEQI6AAAAkBECOgAAAJARAjoAAACQEQI6AAAAkBECOgAAwITunH5SvPfrW8VP3r1RvPXOB5QtLHJt5RrLtV4HAjoAAMAEHj760oa292+eFJ/df2gC1sCEhTNDrq1cY7nWcs0fPPxSt0yDgA4AADCBn6/xiSry5X9jMuULMgI6AADAiiSkydNUnE8ffHQy6YszAjoAAMCK5Om5THnA+STXXu6BqZ6iE9AHOj24Ulx45tmqXL5WnOq2kNtvv1jo8na5WxxefrbYObiry1iro/2Z7iV3nS/sHuvyqiau7/a1YueZK8XhbV1eyXGxd+nZYu9oul9Prmqx+1xxcXdRlC0y98HFS/vF9Xya6Jjr8MIlcx1uzdCwo1fNmFwp3jDnzmVYTl9/Ua/TuBYt9tx1fzrmcDMeX7v0nP5s+lHx24mCgnX7x8ULf/Bi8cZHfqzvFt9//rnihdfuDA4R2+rt924UT0ddOGwDCeZvv/cbAvoQ0z9BNz/MzX+AbQG1CvHbGNA1ZHX0HxOy4XyOe6m6ztME6onrs+Fc6psioLtwLm3LJaDbcG7HKgjoiNlw7u6BXAK6C+fSpldGB/TRJEA/f604kfPK1yao7735dE3j4sK53KN/SkAv/eTdDxiLc04+2YWAPsC6AvrekS42ONtP0E3/OkOUC1vrDuiL3W39DcRAPEFvdt6eoKNuA0/QT19/1dxjXfUfF1f3jssfpKs+QR9Lzvu1sU/eR+EJeoqADgL6QAT0YRa7fSFqAwF9tlCaIQJ6MwI61h3Q7ZNoN32nrf50SspcAX2x94fjp8aMQkBPEdBBQB9o/oDu9g+nKlTbg21JcKmmyrjizxeutyG5nAZhip8T3zM1Iq3bhe2wna4097EpoGv40uPCbc3ncsptpu+nB/s2bNkXCMH+7YEuaW/0fgC3Tc5VnT8Nc/HxXdcz3ber79WYB+u1D2Vbgrb6F0ThOEVtaQro4TVvucY14THSnnKaSFBHNHUkCNTBsfE4tfW9SX99XfeKiK7lUU9Aj/pnihnz9s9XMNe3FtDduuj4crPbtnNwx7bJTkeRtpggVzLnfyE8Xosc0/x/rtSp84dN0LqeBPTTAxP8wjaU9ZsweOtasWfGqqzXjK+baiHFBdhqnS6b813V8+296QOoXyf7mPaYa+V/QNggKu03gey6/HbLb7AhOQmk5fQTV+SYcmsZqu8UhzpNQuZLV2Obcm1yYywlOJev601zrf3YpXU1tUW22/W+r9L/6jy7ZjxOZLyD41y9YcVpu8LjpI3B9pfj4FxNhXH1VnPF09CrU0l2f1S8cblqW9gK244/iNvhzpeuf6W4XjbCbZOxkPZ+zd8XMr/cjIufx74bTpGx602/yjrCtsbn8sfZp/pSd+N8eHP8n+iLijeTc+qu5fFa75++drsal7ZjzYuqP9O2yP7RC5a3zL5mm6vvleKnZmPaqlUQ0EFAH2j2gC5hJAhkcQgJ9jH/QfqwYfdpOKY8p90/DEP1Ni0OwsAasMElOVdZVxCiWrl9qvAky2FQCtrSdS7Z5vvY1P+of6m0v27ZjZl+rcW1M+2X7BPUn7QzFp/Ltc3v2zQWct728bTH23b6fcN2+hcoQVvSay3LjfUtodbPtP1S37W47dI+PZ9tW3mu9Fi/f9t166mv8740onEwde1e6bhmSdts3XIN2/63M9fYBIFqe/OytPXEhJEwuLvAbc5nwor0yx3h9inDuGm7BDIJws3c8dX+JnzLWGlAt+FczmfP7/c3fQ+CdhmC7bkkIPr9TFjxx9ltLpA67lgf0CWES599f+wLBHucCbPSN/O1bYsP5GX4TUNzumzGQtqn4+DGTtthro2bL90clvwTaldd0FdZ9uf3oVzrkoBabW9pS7ndB3QRj0d9e8oH6CqAV+Fb56GbOr4W1CHbX5DrrPtXT+C1LrmnbPuqZT9WzW1w0ifo8bIL0K5e97UP024OeXAufTFhw/HzGqxtHyTYhiHfHRM+QZdzxtNszLmC6T+VsG/VOe3xEuZlIXlTqgvr+yZUmxd2Es6bjtV7wR5vw7jsr+Mmy3tV205f/47rn18xAQI6COgDzRnQD+XfIEx5tfARhZOm+s0PTPsD29eV7uOWw+2HQehqUz2tDoJPdJ4mbp8y/Njg5OsJSlJH7VxlaLKbI7XxSTSGUtuOeAzD4GnPr21y9fv2VCXc37P7to2HPWfSzqhf9fGM29403knbo3Po/kGbXWkLqqnk2vn6wvYc+LbU2xa1vbfvqZ76Am33ZVSvOf/FZfpt93P1LRvQpV3R02rhz3dLFtz+4dNwNyVFA7oNirKv31rfPyJ1R+cz/ZUAY8KOXxU/QQ+2RxW69S5kN5Dz9AT0iz7shoKgWmO3+RDszp/2M6q3VlcSitvYMXVPP9sDthknG5ClPe4JvW1LUHFbW9wuSVsa6o9p0AxCaXV+XaHTZFwdrv4yXJbFB9809Nbrb5MG9JK+YVTOWb2h07SjDOx2r9rxPhCXgdyMRfsTdF2VhGo55mrbvSjH+6fgukP5oiDpRBm+9an3UsfagG7G3bZF96+Nu2yf7o20BHQQ0AeaL6D7/wTqQdNtD9bbYKNhoyXkRE8b/bKGHTs9JPyVv/m6K7j49tlzmB/atQAYBcaU2ycKkA0hy2s/l/bBj1Ma3BrGzUvHworGLQm5Rjxepv7OPlbC41LN7QzPXR9Pe0zZ9qbxbhjf5Pp03Xt9ovObuveOgvvZjOFhWXd32/v7nuobC19nw73S9D0Rfs800WPkfBKMwgBeF2+3Ydu0KwqqUl+5j9u/NaCny+bYro8ibDqfO74toBtmfKqn0RIIZWVP2LXHuLDoJPvbdvopAOF+5tpJULTrTb8llOkWF2J9IHX1RduN+lP3jjbUuO0uVLt2lKG7KUCX7ZFrFIdQEQXo2vFJW5rqj9QDdH9Af9HeB131TRPQzbnkSbk8UdYn5FW9btvkAT1qr/l6T+7XcmPCbO8J2a4NOnVFz79KQLefaqOb14GADgL6QPNOcdFQEoQQUQs3Udhw9cehTX5gJ+vKAGPOYZ96unNJOGqd3iLC4COiZW1vcu5YdR4rrS/Uea6KD2b+vLXxSbjtSThrGMMwKNYCenJN2nTua/uT3gvh/VEfz7i+pvFO7q+G69McgJcUjJO/T/zYVNNbRE/be/ueWqa+tnulfj3j650y+weBu76cirdLu6qn5UrOZ4LWUk/Qhdk/nIMuoa+Nm8IioU5XGL0B3SvPI8ebMTYBKX2CXTJjulw4duvjkO7YJ9ByLSSYyYoyEMuSO3/6FD5qexB6nbY2iKA/dmOy3BCgbUC252ppS7ndLNSOT9rSUH8sDKRuja2/M6B3vRhx9a0e0JvrWX9AN+x+pr9v/si9LyLcFjHHd4VsCdhlIDei5Z5jRUNAfyGdkz4xAjoI6APl8ibRMFzE240kbLjtwTkaw4i2Y7d6Wu4CzxX7H2MrG3yqumw4C9pSBllzzuppasj84IuCli77oGXpFJuuc0mf0rDml8twZuoup1yEXN/Dc4YBvGnMm7ZXy0Zbf+3YJ+HQtM9dG+17MH7uGiTtKpf1vGXb+49Px9Atx/dfHKz7uHPu7MpvXXSVnmMnGmttW3qNyrYt0fZIT31JP6N7pVxOt8frKmacbYDWa2bqllDZF9Al+IXL0jYf7uIAXu3va6xvN21vO13K3GM2ZJvAYQ/xy9I/XReHeDOWzwf12/3dsnta7QKht9jTfbVeHxDdvu48sm6x+6IZS3+chEkztlKPCV0vmLH0WySk23nUshCEWMsum7GR4GZXtIdepyu0Sj9dQLU/qGz7g2Cp5yrfOKnb43NpW+yK5Fw6/cMvu3DtxsPWqeFaxmBx8OPitOGnpX3BIkHx1rXi++b+cmPaFtD9OaplsXjd1+1CbxU80+V2NmDbp+UN9Wg/o3EYFdBNu/30lda26fpyOkobs19vQK/OJ+372qWxU1z88nPF7j+Gb0L9sX2zsy6ujIAOAvpAUwZ0GyhsKNDSEEbifSRgmB/WwTF/eTXZbn6o2F/Fa/HBK66nKYSY/7Si8GfYupr3rcTt2TNBLTxHed7GoOVDmZYybMV1VsGq41yLa8WeeTFRP8Yox6SrL8k5W9oiIa0Kc6b4fiXj3txf1blvMiZpPdGx+r6Ech8fWk3gD/Ypx0HDuCvVWKT3oQ+ivp/Ri4kG7vjgPDpmVeivX+f6fd2wX+sYLlNfx71i+x3XsWdelHTd6xKY/b7h+NbHxpxXQ5nbnoR0XS9tdv9X1ve34dzvZ8bAP70tjy2LD9gN5EWEr9fU8Ya5lhJAZHcXzsM6TP32TbJ+nRkPHzr9/mEby7AsQadq685rPzJ9qQLqYu9F9+bU9DgTzl54Prhe/qm0BmC33oVOK1ofBOja/gt7/qo9VWD0wtB84fJ+sWvaZ/eXsWlpQ1RFW1uUHQ/dno6HXGsJ9HK++qenOGX7zJj84rUrwblesZ+uU00ZquoIz1mt98FW17/8/5Sf3OKW0yDsubBd7meKTAmpPp3FlMuvmHHTfV4+LHaDMZd56fYTg8p9f1Rcfy28f0w/3pR7M5j69FHwCTxS0raZMQ/fkFmX9nVR/DZsrw33i6hfuy+/om34VvFv/ljvgbZjTXurT2upQrp70eH3a/iUlxUR0EFAH2j6J+jAVDR0li8upmDqbPytAzbHhPjGa7rcm7eBM80E9PY3h24vAjoI6AMR0JGvaQO6eyrd9VsHbEI83aXCX8fF9rvb8+bQ7UVABwF9IAI68qThXH/dOu1TdMwrmR6jRaZOANvIzRGX+7yaUnLeENBBQB+IgA4AANaJgJ6n//P/+v+Kl//9/1Y8ffpU13T7n/6Pa8UP/u7/LZ6OuJgE9IEI6AAAYJ0I6HmSgP5ffOu/Lq78u39fPOkJ6bv/w/9u9/0Pf/tDE+gJ6INoGwYhoAMAgHUioOfp9ON7S4V0H87/m//uf136aXuKgD4QAR0AAKwTAT1ffSF9inAuCOgDEdABAMA6EdDz1hbSpwrngoA+EAEdAACsEwE9f2lIf+m//9vJwrkgoA9EQAcAAOtEQD8bwpD+n/+XfzVZOBcE9IEI6AAAYJ0I6GeHD+lDPn5xGQT0gQjoAABgnQjoIKAPREAHAADrREAHAX2gaQO6/nn2Ff8s+2K3+vPfOwd3de3mnB5cMefeLxa6PJRtf0Z/mr6vPbXtR/sr9R8AgBABHQT0gaYL6BrOJVivEE4lHPtQvmpQHsOdU/qxHQG1fLHTck36tgMAsCoCOgjoA+X1BN0dv3eki5ty+1qxFzypn+OFwToNfoIOAMCECOggoA+UV0A/Lvae2XRAd20Op9IQ0AEAmA4BHQT0gdYV0MupE7XArfvotjIY23nP1Xop5XHJtmheut12pTg80H0uXytO7QYX9v0xjaH/9rViJ9jH1nM7DOhBHUmArabCmFKeU6SB39Wxc3BN63LnCIV12ePC/vq6y3X+hUNX/+J21wN493bbnqBPy4xHeL2rsj0vcgAA4xHQQUAfaC0B3YQzHxhdcPOhVLaHAdUFvipcpsuGDaZB0NOgWguytQAaHGODeD0YO+6cYeivArPWYc9THS/bw/2rgFv1320PAm1fWE372TAWCxPyqxcfbf1LXiAcmW3SpnJ8ureXfdeAXo1F0IeG8ajarmMQvWgBAJxnBHQQ0Ada/xSXIACHgTos5f5pKE3CpLKBOHqyHIfvOFRWJa3HCdqn4sBpRAHY7V+vPw6oVX31+pulfdfzBGNzqHV09k/GIwrHyTXp227Y+oN9uscjfIHi1PYHAJxrBHQQ0Adaf0APAmstHKaaQ2oabqMA2BbQozZ0qZ+jO5DK/vH5YmMDehx0Tw/2i0N5uu3PZb725+zqX/TiRYX19m0Xtv4BAb0vsAMAzjcCOgjoA23qCboN3TZMdz1ZDfa1tL4kUEYBsi2gJ8e0GxPQwzamxgf0anxMHQcyhlVd1fSW7v7V2m6Egblvu0jr7x4Px9Zh+mnL0mMPADgPCOggoA+0loAeBDQb3MrlpsBdTd1oDLM2tNYDbxmQGwK63yd6oWBC5WFjqA4CtT6l7gukbnsSUMsArX0szz0goPu+7SZPyy9fiT4GsrN/tq3BNr/s1/VtN9L+LzMey/UPAHAeEdBBQB9o2oAuNKAmoa+i4bIsGvw0iNfWi2RbHM79+iSkh8FTSsdT3fLpr2mrC6P+ONOGpB5/7uiJcbk+7fv3o74uE2LjFzRGEoZLXf0Lx8WsP5Q6w+vQsT3t/98vMx61a+cKoR0AIAjoIKAPNH1Ax3lj58unLyCM04Nr1YssAMC59fZ7N4qnT0no55UE87ff+w0BfQgCOlbS8YQ/npYDADivfv7rW8Vn9x/qEs4bufZyDxDQByCgY1XxtBgtHVOKAADny53TT4r3b57oEs6bDz46sffAVAjoAAAAE5AnqFOGNJwNcs3fm/DpuSCgAwAATODhoy9tUJMn6TLlYcrAhrzItZVrLNdarvmDh1/qlmkQ0AEAACbkn6jKp3q89c4HlC0scm3lGq/rNyYEdAAAACAjBHQAAAAgIwR0AAAAICMEdAAAACAjBHQAAAAgIwR0AAAAICMEdAAAACAjBHQAAAAgIwR0AAAAICMEdAAAACAjBHQAAAAgIwR0AAAAICMEdAAAACAjBHQAAAAgIwR0AAAAICMEdAAAACAjBHQAAAAgIwR0AAAAICMEdAAAACAjBHQAAAAgIwR0AAAAICMEdAAAACAjBHQAAAAgIwR0AAAAICMEdAAAACAjBHQAAAAgIwR0AAAAICMEdAAAACAjBHQAAAAgIwR0AAAAICMEdAAAACAjBHQAAAAgIwR0AAAAICMEdAAAACAjBHQAAAAgIwR0AAAAICMEdAAAACAjBHQAAAAgI+cioN+8e29wJwEAAIBNk8z6kWRXXV6WRuV5aBsGuXP6afHw0WNdAgAAAPIkmVWy69YH9E8/f1j8y737ugQAAADkSTKrZNehNCrPQ9swmLwSGdNZAAAAYBMkq455ei40Ks9D2zDY4ydPbYflVYn86oA56QAAAJibZFLJppJRJatKZh1Do/I8tA2j+Vcm8sZR+XQXCoVCoVAoFAplriKZdIqZHhqV56FtAAAAAKA0Ks9D2wAAAABAaVSeh7YBAAAAgNKoPA9tAwAAAAClUXke2gYAAAAASqPyPLQNAAAAAJRG5XloGwAAAAAojcrz0DYAAAAAUBqV56FtAAAAAKA0Ks9D2wAAAABAaVSeh7YBAAAAgNKoPA9tAwAAAAClUXke2gYAAAAASqPyPLQNAAAAAJRG5XloGwAAAAAojcrz0DYAAAAAUBqV56FtAAAAAKA0Ks9D2wAAAABAaVSeh7YBAAAAgNKoPA9tAwAAAAClUXke2gYAAAAASqPyPLQNAAAAAJRG5XloGwAAAAAojcrz0DYAAAAAUBqV56FtyMKnnz8s7px+Wty8e6/48M7vKJTJi9xbco/JvQYAANBGo/I8tA2zevzkiQ1NJ7/7vPjs/qPiwaMnxcMvKZTpi9xbco/JvSb3nNx7AAAAKY3K89A2zEqC0sef3G8MVBTKuorcc3LvAQAApDQqz0PbMBuZaiBPM5sCFIWy7iL3HtNdAABASqPyPLQNs5EnmDLloCk8USjrLnLv8RQdAACkNCrPQ9swG3nTHnPOKXMVuffkHgQAAAhpVJ6HtmE28skaTcGJQtlUkXsQAAAgpFF5HtqG2RDQKXMXAjoAAEhpVJ6HtmE2BHTK3IWADgAAUhqV56FtmA0BnTJ3IaADAICURuV5aBtmQ0CnzF0I6AAAIKVReR7ahtkQ0ClzFwI6AABIaVSeh7ZhNgR0ytyFgA4AAFIaleehbZgNAZ0ydyGgAwCAlEbleWgbZkNAp8xdCOgAACClUXke2obZENApcxcCOgAASGlUnoe2YTYEdMrchYAOAABSGpXnoW2YzWQB/cMfFt985tniQli+8cPiVtO+Gyy3vvdt25aX/qF5+2zlH17Japzicr14qW3Mmq5z275LFgI6AABIaVSeh7ZhNlME9Lde0qAWBs0yyH27eO3DeP+1FnPe14KwmG1AN8W3bVMB/a3vLXke/+Kho13lNX/mleKthu1DCgEdAACkNCrPQ9swm1UDehkyG4Ja17b1lFvFa9/IM4w3lY0GdAndS53HjaG7bu0vrhpflI0sBHQAAJDSqDwPbcNsVgvobiqEDWovXa9vD6ZDfPN7t+rbJy4+NBLQk+KvwzLnMfu+9NIrvdeNgA4AANZJo/I8tA2zWSmgB/Oom4NcEOBtkAuW7VP19qe11dN3U8LwH87dDrZVUy58eaX4v4M6ovYldVSBPmnP94L9gjZEbTOl/cVHWF993zCgvxa0v1Zfa3uXGM/gRZIv7e2VNv3Q/rajL4AT0AEAwDppVJ6HtmE2mw3oZl0ZGHXaS7lcBXQfXF2drg73tQZQH5bl/PbrW8WtD6tzNQXusn3aZr/sz1UeEwZaqTttb9Qed3xZd1KifnT0szp/1d6yPUu3t2U8P7xVvOXP0xumTd/CsbX1hONZFQI6AABYJ43K89A2jPbp5w+LO6efFjfv3rNBZ0xpCk1LlbUEdB9Sk2U9vgyGwRPt9FxVoEwDensArrfPB9y29rX1ua349vl6goAehNxynb7wWL69/S94wvM0FlN3NXbBtauN9fQBnUKhUCgUynYUyaSSTSWjrkKj8jy0DYM9fvLEdv5f7t0vHj56XHz1lW4YSAayKTQtV7pDXBUWgzDbGyiDOqPin2AH4dCUpkDZHtAb9ilfZLQ9ga4H3rDeeH1LCV7I9AXnOKAPae/qAT0c17hUY1/bd6KADgAAtoNkUsmmklElq0pmHUOj8jy0DYO5VyYPdGm81QJ6GOrqIa4MhmGI7Q2UTUG7qfj9uo5LA/qQJ9Jab0PgLUval7T47VHYrurpCujD27tiQDfHvZT+RqCsq/7bAgI6AADoI1lVMuuY58galeehbRhEfmUgr0qmsGpAj54mh0/Rg3AXBe00QJZPhKtAWQ9/cg4JoPJvEJTtsX45DLPm65fk2GpdGTD1fH7Zh9eyjWn70mUbtKtA7o5vDui+H/ZcDf0sg3N5vG9vUN/Q9jacp1wn42m+jq6HLcm4RuulrqRNpnS9MBtaCOgAAGwvyaxjprtoVJ6HtmEQeSUivzqYwuoB3ZUqbIalKfSF4c4UEwx9kA+fxkb7lPVI8DYBswyN8ZPdqg1u/7RNPpi2rY8DqSnmRUF4Ltc+E9ClDX6dKfXA60p0HvOCoaxb+ynbpf1xe+qBt729rvSPZ/XbhfpUpGCbKdV4JmNhixnXt6sXXmFpG4NlCgEdAIDtJZl1zFN0jcrz0DYMIpPvx845T00V0F0JQl0QtimUrkJABwBge0lm/Uiyqy4vS6PyPLQNg0wZaKYN6KYEU1sI6ZRlCgEdAIDtdvPu7wY/XNaoPA9twyBZB3Rb4mkTq06BoGx3IaADALDdCOgDrSegUyjLFwI6AADbjYA+EAGdMnchoAMAsN0I6AMR0ClzFwI6AADbjYA+EAGdMnchoAMAsN0I6AMR0ClzFwI6AADbjYA+EAGdMnchoAMAsN0I6AMR0ClzFwI6AADbjYA+EAGdMnchoAMAsN0I6AMR0ClzFwI6AADbjYA+0M2794oHj5qDE4Wy7iL3ntyDAABgexHQB7pz+mnx2f1HjeGJQll3kXtP7kEAALC9COgDffr5w+Lkd583hicKZd1F7j25BwEAwPYioI8gTzA//uR+Y4CiUNZV5J7j6TkAANuPgD7C4ydPbFCSp5ky5YA56ZR1Fbm35B6Te03uObn3AADAdiOgr0CmGkhokjftyTkolKmL3FtyjzGtBQCA84OADgAAAGSEgA4AAABkhIAOAAAAZISADgAAAGSEgA4AAABkhIAOAAAAZISADgAAAGSEgA4AAABkhIAOAAAAZISADgAAAGSEgA4AAABkhIAOAAAAZISADgAAAGSEgA4AAABkhIAOAAAAZISADgAAAGSEgA4AAABkhIAOAAAAZISADgAAAGSEgA4AAABkhIAOAAAAZISADgAAAGSEgA4AAABkhIAOAAAAZISADgAAAGSEgA4AAABkhIAOAAAAZISADgAAAGSEgA4AAABkhIAOAAAAZISADgAAAGSEgA4AAABkhIAOAAAAZISADgAAAGSEgA4AAABkhIAOAAAAZISADgAAttKd00+K9359q/jJuzeKt975gEKZrMg9JfeW3GPrQEAHAABb5eGjL214ev/mSfHZ/Ycm6AxMOkAPuafk3pJ7TO61Bw+/1C3TIKADAICtss4nm0DK/6ZmyheCBHQAALA1JCzJU01gkz746GTSF4UEdAAAsDXkSaZMPQA2Se65n0/4FJ2ADgAAtsbb794onk441QBYhgTzt9/7DQF9CAI6AADnw0/e+aAgnmMO8skuBPQBCOgAAJwPBHTMhYA+EAEdAIDzgYCOuRDQByKgAwBwPhDQMRcC+kAEdAAAzgcCOuZCQB+IgA4AwPlAQMdcCOgDEdABADgfCOiYCwF9IAI6AADnAwEdcyGgD0RABwDgfCCgYy4E9IEI6AAAnA8EdMyFgD4QAR0AgPOBgI65ENAHmi6g3y0OLz9bXHimKjsHd92m29eKnWC9lL0jtykHi92GNq+FjtHusS5jWsfF3rL3lr0nrxSHt3U5VLtfW/bT6xndM2m9R/sdx4+Vfq/tFwuz9vRgvzzP6cGV4qKsn/gnsas3OLe5l78y436oY1DbXpb94nrZFnOdLjXtExRbL4CpEdAxFwL6QJM/Qe8IJDYIX75WnOpyDiRQ+IAlX/uwM70gVBHQ18CFcxnfZQJ6+aKs41p036/V9Wx9UWe/F2SfCQO6rzNqt++7O4+7j2V5yoBu+vv8c7bOKmgbpj02kEeB2gXwvTf9Gh/I9VjzIuYFGVfdfHrwYnHRLJ/43aVOAjqwFgR0zIWAPtB6AnpzyM0voLuQlQa68EnktDTUEdDXxAXV/oAu++0Xezakt78gs/dr57Vy17Pzty72+2GqgK5BvLFN0pbqPO5J9viAvtiNx2Wx+5ytLwrnJdOuqE0ukFcB3ZDQbdbtHNwpvjIB/TC4RrWALn054HsEWAcCOkL/5//1/xUv//v/rXj69Kmu6fY//R/Xih/83f9bPB0RtAnoA53vgN4Q6LqmPqyMgL5eDdezQflbE3uvtu+fW0B3T8Y76jLn8n1ZKaBLmA7DuHxPaLheTkNAl6fm8hTdjGfapHpAB7AuBHSEJKD/F9/6r4sr/+7fF096Qvru//C/233/w9/+0AT64XcRAX2g2QO6hiRfyrATrpeQZIOz30/rL9e1hRYNxOlxIjmvlL+86qcGaCnbGtdTBbIgcAf1tQfE/v2r6QmuuHM1n7/ct7edMXsddJ8ygDaMZdqWMPy5dctdh6X2L9eZfczXe2Hbo2sVXEMRjeMyAV3GyJ83uB4NRgV02570PkvOZ9sb9L2rfyV/bNv2mIy5C+guLNu6TV/K/8/K8dYiAdmsliflVVtMMcec2LpkXJf937AhoJs+lk/QdZVHQAc2h4CO0OnH95YK6T6c/zf/3f+69NP2FAF9oPUE9OAHfFrCgN4YZoLAY0NEGPrqgej04FpnoKn2bQo4DYHOtiE9Z7jsj/H1adEg1/1bguCYpv2T/rpgW7XXLieBcWFCqdPWTl1MpWNvhNMa7LmCfviQHYf04PjatYp17x+23bW7vG7SzqDPUbuScy7MNgmdnQG9qb6Wdg8O6Hr/Rv0M7yfb3njMO/sX8fdOcnwLqce9WdPsL/+JmfNcjMY7/T6TcXP/27ljqyfovq56QHdBvPwekPpvVevrc9Ble1qH1E9ABzaFgI5UX0ifIpwLAvpA8z1BT0KC6t5HQ0q4vW2ualM7yiCiy00hNgxU5bKEi6TYUKXtWSpgieX3t+NgzxX2QdobLy982zvb2SQdW1N3uW/DuCRtt+0O25KE5VT3/vVxcXR92ic9TsYoun9q17dOjom26zHpfSjsNWgdP5GOoZHed/5+OjD/1q5zd/9ift/w+rdzodrs6/8Da7s+pn3+U1eGB3Qn3d/eP1Fwl2LO3RDOBQEd2BwCOpq0hfSpwrkgoA80X0B3ITANRmmQs8v+GFN3NI3BhI7wzWahtB4nPWdDEPWBygcZWW4I0E49WEbtrenf37Vb29QwlmEojX570NnOZuEYRW+MbQm64fWrjW9bAFS9+9u+SpCT4vdz45W2w2m6fxquZ0j7VZ0nKA1jN11A9+dJx6erf3W2PR1jHJLx7gzofixM/+RjEu0T75aAbveVwG33rbP7m/GrArbWF05x6UBABzaHgI42aUh/6b//28nCuSCgDzT3E/Q0GNkgF64LgsXCBFJZ74NT+/QWQ4NRHH7SANcQ6OxxaXBs7s8ygTvWs396rqZzl+uqz562OtvZxvV/58DUtRu22a0P2ynCwGrbHZ4vDYCJpff3wdHu2xCAS/WxbLyeAWlDY1127OptmS6g6/1rA3Z4jbr618CPTVubzLl8XdLX9oBuxikI5OmyP7Z6Im7aaT9iMTymYvc39zABHcgfAR1dwpD+n/+XfzVZOBcE9IHWE9Cbg1oc0A27bxhQmgKWhpjd/eppuZ5DgmU7DXBBILIhMQrP7nxRQAqCjHtBoPUkx7lwrNuCwFQ/R6hn/2Ts6oFO6HhcTj8Ksqud7ez5a2PesD4N1I1tldJ87bv3l7YH/bTn0mW9R8L2+RdmaRv9crq/FdZZ0zR22sYlAnq0T9LPeLlt/+b+NSn7mLZL6knuq76AXt735thoCotdloBu2lt+j7lj5Nzpp7nYc5mxSwN60xtCm9iAbs+nKwCsDQEdfXxIH/Lxi8sgoA80XUDX8CHhQUsZAGw4iLeVgUQDSm19wIWSMFw1BfkmSZvCAJact6rf1S3rqvqrddW+Sd0mHIUBsS1Yd+8fn2fPvChxXweBz7DHJWHSaWpnHzmmeb+4fXEb0v7smVDZ+ES81LW/2bbr3uBZbo8Ca9iO4L4yqqAv66/Z/tfui+hap21Mx8xsX6T3a1O/6tezdp6/S88bH+P70dW/Rg3fT2k4r7aZa5vsL0E8+rQWc5/5MbDnLvc3bbZv+qxI3X7OelWqcF3bHgX3lBl7Df2+LPvUHcA4BHTMhYA+0ORP0HHGmJAUhDsAwPYioGMuBPSBCOjn2/r+aioAIDcEdMyFgD4QAf0cCqZi9E6nAABsDQI65kJAH4iADgDA+UBAx1wI6AMR0AEAOB8I6JgLAX0gAjoAAOcDAR1zIaAPREAHAOB8IKBjLgT0gQjoAACcDwR0zIWAPhABHQCA84GAjrkQ0AcioAMAcD4Q0DEXAvpABHQAAM4HAjrmQkAfiIAOAMD5QEDHXAjoAxHQAQA4H942IenpRCEJWJYE87ff+w0BfQgCOgAA58N7v75VfHb/oS4BmyH33M/NvUdAH4CADgDA+XDn9JPi/ZsnugRsxgcfndh7byoEdAAAsFXkKfqUYQnoIvea3HNTPT0XBHQAALBVHj760gYmeZIuUw+mDE6AkHtK7i25x+Ree/DwS90yDQI6AADYSv7Jpny6xlvvfEChTFbknlrnb2oI6AAAAEBGCOgAAABARgjoAAAAQEYI6AAAAEBGCOgAAABARgjoAAAAQEYI6AAAAEBGCOgAAABARgjoAAAAQEYI6AAAAEBGCOgAAABARgjoAAAAQEYI6AAAAEBGCOgAAABARgjoAAAAQEYI6AAAAEBGCOgAAABARgjoAAAAQEYI6AAAAEBGCOgAAABARgjoAAAAQEYI6AAAAEBGCOgAAABARgjoAAAAQEYI6AAAAEBGCOgAAABARgjoALClFnvPFRefeba4YMrem18Vi939YjHwP/ypnR68WFzcXQz+wQNgW9wtvv/NPyq+dkn+b/p28frN28Xh1R8XJ0/n/E/hZ8V3/9V3ijduPime6pq5EdABYBsd7RcXL18rTvQ/eBfW94vr5X/4x8XVvePNBuWjV4uL8kOZgA6cW6evf6f4vb3rxWMbyDWsX/5hcfeJ/qfw1t8U3z16Wmwur98tfmBfMMiLBQL6aNqGQQjoAM4bCeQ7B3eK8P/3xV71BN0G9hmCMk/QgfPMBfKr/2iCcPl/gFlXPkH/WfHdr/9hsfefwu2bwBP0lWkbBiGgAzhvbBC+5Ka2pP/Hh1NfLtin6l9pYN8v9oJ19in7ped0vyvFG7d8TW793pt3isPnXV07rwUvBm5fK14oj9OiobwM6LeqfeyxZptv125DmwFsh+Orf1T8nn1a/TT5Pnfh/Gv+/4yXrxePP/px8edff7HYfflK8TXz/8Wf/sdbhTxoP33jO8Xv/YH+HyP7aZq365//UXH3H18tfu/rsv2V4u3H1XncubV+W/xT8yqgn7z+F8Xv27rDbX9k2hXXtW4EdADYUlUQD8O1Ez5B92G+CuZCQviV4lCPc/vI9rtlKC/rtVNX4lDvXxiE5xHxE3Sz7/PVNBwJ9odH+jWALRXOQTeh90kYesMn6FVg98FcxFNkJDz/YfGCbH/z1eL3bSg39drQ7s7zwmtm21MJ73/hwrtUdNsF/+qJeRXQ7fJbf1P8+eu37XHi9I0fF8fmfFU714+ADgBbLXgKHgTlNDinyzZ0h+HZ/FCVYO6mzcQh3D0x14Aefi2SeuKA7s67d+TqOX392uxvYgWwITYk/6F9sV8F8DCg+30kSPsQ3zBFxoTp3//6vn26XT5B1zQvT8z/TAN6+LXUI/POq3qSgG6XXy2u2yfmZt83joun5Qk3g4AOAOeBvGk0mPLSF9BtkA7eZCpknxf6AroGeb8tDeTpsj3WBnhz3OvHhasQwHlhn4j/wRWd8tIX0JPtwu7zavHTnoBug/yf+G1NgTyegy5P3P/s4Hbx5NaPix+89VV1vg0hoAPAFjo92C8Ob+uCkoDt3zjaF9DjaSuO7OOedncFdL+sT+0v/ygK+bWAbgP9i8Xhm0xvAc6D46t/UyyehtNawqfifQE9nrZiyT5/cq34rQnenQFdl/0c9JfDkN8Q0H29P33tmmmv/l+3QQR0ANhC9SfgEqqrOeW9Ad1PjfHrohDeFdDNtmhqTKwe0I2GFwMAtpMNybvVGztdCN8vfmpSdP8TdPN/SPTE3dXnQ3hXQJcn4t99MwzloYaAbri2/rRq6wYR0AFgC50eXCsWJjjvBJ9YUAZqoVNe5I2e//N/uKJfd30ai3+jafIm0TflHH4fCdnh9qrIJ7OcSDj37UlfDGz6M9kBzOL49R8Xp2/uV5/CYj8tpQrg5VPub7xa/Dvzf4v7vyR+M2m5j2zzn+Ji56JrnWbd27t/WO5j57iHbyL15Rs/LO48WZhw7j89Jvks9I1/JnuFgA4AmNBxcXhwV7/2TGg/ONavG5gXAkxvAbBO8kkstakqb/24+MGtr6Kn5qE5Pr3FI6ADACYjU2XcG0kDR68WV/WTWpos9l4tFjw+B7AudqqMeyNp9T/N3eIH5R9IavKz4rtXN//pLR4BHQAwITc/PZriks45t6r9+MNEANbNfg56Oa2mYTqLV06V2ewfJkoR0AEAAICMENABAACAjBDQAQAAgIwQ0PH/b+/umiS57vtA+0sR0i2o3W9ASt9gbREUNVRYiuDQjvDe2LGywW74wpYDo3WELyzbXA45lMnhyhcbG7IjtOaAEHoEgJZEEyBeBsNpkXglZoAZ5J5/vtXJrKyX7K7qyqp6nogT01mZefKcU9nTvzp9qho4eL3PLWfYvR8UX60/K9441e78cfFrzcdofuOs83Fz59/+etpXr+d95vvFz8emiQ0o23DSbddOvPDHvfXNWfnGS8Xj3tiUn+Wd2v145w2/WtVnmA+P0+zP/TfiM9Hjs8l3tw58lwR0gANX/nGgCFKDb9akUf6xpjRO5WfBG6eOJoz/bn9s0oua5759/5LjdcHPwU+huHzx0HvhsDt/VTz3G18vbr2VBco2uD9f/GVKn5No5q51/jBRpQ3uX/pe+0eGjp2ADnDQ7he3Tm8XZzfjjxHFHxKqH6anColnJymkP/P94oGE3nH+7T8unjuJe+h68Z23sqC5gYB+dvqbF54Fn8wMemkgoIc0Rr+XwudTAzPpR2kgoJfi01PSOM3PpB8nAR3gkN27XTx3MwWo8q+C9v6aaKP8U/vdXzeXs8jlOdeL0xTM2sf6f0m0/OuilXIGuj5/7z46sfms9nIsqn5123+/+O7cX0h9Pr3g+azq98nzxUn5sZHVYxFC2r/C2gn8eT1D15mmCOjfTW2NMP3U51Mfm0TcD+jR7wijdb9j2Uu7FKac6Z71/+SHT4qXIpy3997zxV8+OUsh94vF6TeeT9dpZsfTOb+Trlse09RTXW4vAnpyt+znbBb97nO/WXz15r2q3VmAvx9/ATiNWXNMOzZf+n5xv+1kNR6zcYtS1X323G+l8Zjdi+X18uU38SIhe+5+73+pxzVmrq9qENN1BwN69Osrqf3P1LPo/ePqjz+MAP+XN39QnEd7y2Nm98Y3/r/sT/nnf1m0LmX4fzvO+Xpx8uz14teaFwRPYrx/K43Tinqevbo/+y+gAxyw85s3ilv34qs6WPeXudQhPNZdN8dcK//QULVuPX4o5X/+/+w0BZB71Va5dOaZ2yl8Vl+3f4yoDLkxW9+cNX2zP5ZU9bu/zKUK4fXYZf2LgFi9uKmDeSnV8eUYl9iuAulX6/rK8atDeRkuv7ybtdtjNQG9vC/KMFmH4hSQZgF9Wb/zWfJq32kK6N19VfAsw1a+bCWWsqR6fx4PlMtaUmird+5LQI8lHL+Wvs++nfY9iOUc6R773W9FQI8+p3svdaAK0hFI09cRntPXL7Vff734Tl1vGdxP6qCdnTNb350tp4lzT5s/thNrun+zOP3vET7T17+Tnqvy8Wrcv1q2J07asjJUDwX0OiSnFzIvPk4v1FJbfy31pfoT/6m9X/lB8fOmn+n7JkJ8vCD5vW9lATuNSxmgy2ukMXvzcTo39S8F/6+Wx91t/6x/E8xDfEb6v/xhHcrLQH6j+gz0qOe55r0CqQ3/628Vp3l43yIBHeBgdf/EfrUWvbfMJcJmGaqqzfKYk3o9cCe8h1lon5WYBX4nm1Wflf2ZRb9bfDebBS7D+MCs9+y3DzEOs6DdhPf2h3Ya0/aNlU0p66vGrztO+zGLPgvoSQotMUteBuz0dRvQF/Q7XoCsF9BjX/UCoNk3p7x2hNWqLfsY0GPfbAZ9nXDcBOsn7fGnTZgs982uGSG1De/JLLRnz0nMov9w4E2tVzWLXobnVQE97escV4/BknB8/p1ZcC9D9u/UX5f7/nHx66fz4b3K5/eLP42Z+85vJKpZ9J9/+x+Xy27yx69qFl1ABzhUd27Us7vd0l3mEqFxFsIjbLZ/qr8f0MvtoZnxWWDdR7NZ8Lx0g3N5TAqCZdcjJGbj0A/ozbFzP8N75+2TTkAvt2PZShqjH36/OI0lVGnHsrC8iYBeXbN+bvYsoK+1xCXdd9WsenlKJVueclIG9OhzCqKpz2UIL8+tZ9rT4f2AHtvtdTKdOq5aGZCHAnq6L9ZY4hJj0VmC0pwX90b7JtOY7Y5PgIkZ9Gocmpn2qt48oM+OrSfUW53zrpiADnCgzk5vFGe9/+A7SzUa5ZKNOpjm+wYDej6j3qhmhvfzYxzTD/fT28V5Z0CqAFku9Wkfrh6rZr+74X0woLdLPTIpGMT47cu681w/oIcyWKf7pvlklzIsL1iyc6mAXi5rqZaEfPb2Hs6glyE6lk3NgnInoDfq48qZ8vrr8o2lsSyjnUGPA9P4tWvQv9bOyoehgJ5vN9plIr3Hr0QZkAcCegTw1OdvlEtw0vay41LA/vabT4qXUv9+/fPxJ/vrpUPNDHp7XD37ncaxnfUu6+0H9OHZ+Ri/Xz+5unXnOQEd4BClMF2+ObTebJWz6lVILEXobpa09M0F8node7lco3rkPN7Ulv4tQ+rT2ezwndv12veJSy9O2rXzmTJkd2bJq98Q9I8L/YAeASDeIDpbx54C1bdjjOuQny2fOf/2D+q179M23P8qTLf9jH7n222/e0G6XQpTzYSvCuixP8Ls7Bp7FNCbGfAvpRcuWSO7S1zqNej148+lvj+4mc9w18s76oB+97l/lJ6LXmitzQXy+vonTehNdZXLudILnXiD6LX/q3mR0DxXQ7Vu2EDwbpfizAXp5rg0BvUa9LKtX0lj8NZLxXPZ56R3lrjEue3a8Z6y3jygV+P267/xfLXuPB544QfFn6b7/Ukd8mcz9n9V/Ol37hdPrmBGXUAHODTZ0pb8DZ5V4K4en+2rZr+bx6oSAf5ucdo+ni/LyD/Fpf8G0tnj+/CZ61UIr9rbWS9f/kZhNiax70HzWfJN/6J846zz+CyYJhEk2zryWfM6pNd1dM6ZpG5745NXOs1NY1Uuicr7nYJW+5uGOkh3Hv/G94vvPJOF8HqG/HNP/37xT/63L8yf2+5Pjz9zvfjd9G98Qsn/+63r9Sxy1LnjkN4E8bLt3dJftlItd2n2/VXxnZOvl/dK2e/m01rSeDXLXmKW/He/lL6OmeIU/suZ4v61UrC9n+7F5vHfbYN30mlb7w2kKaQ314hZ6G0P4eCa+Lq0M+chtW326Sz1m0ZTKG/HqQ7yZbBuxvJLX6u+b8t9szeDzq4RfYxQ3zyeBfKkCun1sfk683wmvnfONgnoAMcshfZbd+qvW3eLWzfv118Tzr79g94ymAgb+zH7zWG5u+RedDfWUsD/7gtpPDoD8lfFd79zv/hsB+vJL0JABzha1Wx4f+34+c0/bj9KkSRm1OfWlN+92F+/hMuI2fB0L3bXjv9V8S+faz5KkWoJzG8Vz+Uz8sn5d/7P4rsLlgZNkYAOcMzKZS/dXzl3lsVQKpfvdJa45J97Dlcn1qm3S3vqe7FdtkKls0SmKvnnnu8DAR0AACZEQAcAgAkR0AEAYEIEdAAAmBABHQAAJkRABwCACRHQAQBgQgR0AACYEAEdAAAmREAfKepSFEVRFEVRlH4ZmakXEtBH6j8RiqIoiqIoihJFQB8hBgwAAPaBgA4AABMioAMAwIQI6AAAMCECOgAATIiADgAAEyKgAwDAhAjoAAAwIQI6AEt9/PCT4t6Dd4u/fu2d4ux/vFH86JXXyxJfx2P3HrxXHnPMjNF6Fo/Tm8YpY5xWWzxGh/E9J6ADMOjho0+L//nmg+KlH7+R/h/9RfHu+78qPvnkcfqh8VlZ4uv3PvhVuS+OiWPjnGNijNazapwe9cbpp+nYYwygxmm1Y/meE9ABmPPgFx8UL7zyejkLFT/0Volj4tg4J849BsZoPWPHKZTj9PJrxYNfGqdljm2cYoxilnzdMcq/536+Z99zAjoAHfFr45f/9q3io189qh9ZX5wT50Ydh8wYrWcz4/Re/cjhMk6rNWP04QXH6JVyjPbne05AB6AVM1TxQzB+TXxRcW7UcaizxMZoPZsYp0effHo04xTLVy4qxikC6KGOUztGjy73PffKT/ZnjAR0AEqxTjN+FXyRWby+qCPq2se1n8sYo/VsepxiWcOhjlP07SKzwn0xTi+muj5+eHjfcz96NY3RRxu6l1Jd+7BuX0Af6fzm9eJzT39hVp65XZzX+ybnzo3UxhvFWb3JSDscv+o+2861y7oX3Lfr3993i9O0//ROvRl647WdPlTXzdv3ID16dtJc535x65n0+MndYuT/ayuker/8xdl1Uzm9k65w53Zx697w/rbkbUlj9NTnB47JyukPN9vyMeLNVJv8NXnUFXUeEmO0HuO0HuO0WrwRdhtjNDb8XjUB/UKqkHDt5v16GzZnFpK3EdBnAbcTrjtW3d+r69hGH5o6O+26d7u41lznszqcx/YmA3pcI0J1r86zky8WT8UY5IG6DOA3ipeah5pAXp97fvPrZfur3VWov3bznbbeqLMM/jsQM0rxiQfrvjltHVFX1HkonzJhjNazjXEKhzhOZ6lPT55sdpziYwZ/dSDjVI5R6s8mxyjuy/i4yl99PO0xEtAvpAooiwNOZTartx3brp/d2c7scxKz3Om+ifs3QuOwde7v1cdstA91EB9+0ZDakkLxWfkf2WVn0FNdnXGJupfUl8azMwb9gJ5UQf56cevtz9KY3M7GYz6gRz9vrfh/ZVtiVik+lmzTos5DeTOkMVqPcVqPcVqtGaOL/X++2Jt7MEYC+oWsEWAiCG1lBrS27frZqe0E9AivKSjei9CYQufC+te4v9c4ZpN9WN7euNaN2VKTSwT0Mkxn50YfqnBdP7DKQECPWfO5mfbSQEDfofjDHvHZwZsWn1EcdR8CY7Qe47Sev9nyOE3h/5XL+pvXtzxGEx4kAf1CloeTKkxkpZyRq865dvN2+e/nnv794n//3/L9TaBJ29m63/axdEwTQobrn1eeO1dXhJyqLcvOLbXLB+oypq586UH6+jRmPssXFdmxnfrr8NU+VgXJNnDVx+UzqE0bbmVj1IxzdX76ekz/6tJcIx+/6lr1Mc04zLV1wXHt4+uPfXt8f8ySzvPf1DHQljlxTK/tw/dw1caxAT0fr3a7eV7zfrePLR6vrvrchftzWUCPsFzXnS8biWs2j0eJgFxeo7c2/PTOO6muWFfeDdxLDQT0fAa9a1oBPX6NfJlP21gk6oy6D4ExWo9xWs/dv37jUp/cskiM0900TlMOn+u6+9dvXuqTWxYpxyiN/6aXYW2SgH4hqwPMOuEkDxONTsjJA1UZ1PpBMK+rqw0+9fntdt6GXp1dVdvaQJwFutV1xbnN11Xfu/Xk1+xdJ5ktA8jrCbNxz9uQnxvhtXpe5se2q9eusv2z57Q/fqWy7b0xv3O33Y5z+m2J648f++z6Tfvr9nXb223LqiVPs7EJ9fgMht7V93f/mKHxqh7L+tu71qLxmldda7itfXW/4vhUV/zfFgE5zi3fNtW7/6INT6U2VoE6nRtv9KzPa7fb/ZnUnzzkl/XHMfH40Br0Zn9HVf9UAnp8ksQ2flhFnVH3ITBG69n2OE3h+2UTXnz19Y2vPw8xTlH3Fp6CK/fiqz9LY/Sk3tqcaox+tpX7dFME9AtZHWA64aTUC4SlOkxkoaQ8rwkiWSjum69/XqeuZjs/Zy4sL1CGwSqIdAPZorrm+zVT7ZuNQ31s2860fbMbSudKXe/QGJQhL+vzQnN9n39++uMXuiE3baeAXqlD5Fyp2jd27Ff3rT+O6fqD492I9nXrq64x1IaqL8vu76Fj+uPV9KH8Dcdc25aPV1d97DrPa3bvNf+vRTueSuf2P9egmtmurjk6oJf6xydNIM/7FNdecr6Avj+M0Xq2PU5T+H7ZBAF9NQG93lhTHZV3o27DKHsb0JMylDU/6PvHDYaZmX5dc+esCujl/ua63T6vrKsTrrvt7LQrHXeaQm5bd6qnfZNc1JG1v29wDJo2l2VJ35LOjO3AWPTHr5S3KW9rOT6Lrzd27If61m9PfsxsDfaw6thmXLqle0+G1ff30DHD7Wuu03ueVoxXV/19MlfHkNn3VPP/WrQjD+jldtn2dEQE6lTvcEDvHTtnIGBHfb0lLosNnL9DliWsZozWY5zWY4nLapa41BtrqqPybtRtGGWfA3qjqm927Hz98/p1zZ2zNCT2+9jdXruu8vFeuMqOPbtZta8Jy51PuYgwvKSPy8egau/SkN62rSr957M/fpXZODRtr/THq2vc2A/3rfOColRd89rNu8Wtk/l7Zibus+FrdWflG8v7Upk/pj9esz7U93nnOutcI1PeC0MvJipxraqu2fdU8/9a7GsDeh3Iq098mW0vCujl81TOiA+F7ur4Qwno8YapeOPUpsUbvA7ljX3GaD3GaT3xJtFtjtMU/l+5rHiT6FbHaMKDJKBfyBrhog2X6YdwuWSjCVPdgNENSNUxZWCMxyIcZIGsDDzN9lz982YBaXh7eUjstbe83qzPy+tKbXqmvy/bLvenuk9udGfL0/kRNmeq4/rB7lbdprk2JGcneX+iD8v61z23b6j+UD6eAm/5xtdMdXz3ek2IXz5e8+bqqsenf3x13PJ7sTymE+wzZTv692X13C8Pz737I+n3sbu96Pjh8RpSfq/MtbWqZ/ZYfc8sDeiza1bLXGaBuv0UlzQu+b1ZLYVJ53U+zSVdazCgx3Hr/K9anf/UydkkfpDGR45t7yPfNvdHRnbJGK3HOK3HOK3WjNGm/4+sPmZx2mMkoI9UhYoqKJSlEx4zdfCpAkgVTppzOgGjPS5KvV63qTPtO01BsL3WXMCLx7oBp9Ft543iz3vb8ckqy2aPQxOIytJ8dnYqX/onvz97fLCuFDxSUF5Wf9W+rD8LQ2F37Jpz+v1r6omAfi0CWr2vH+Zm6iDX1tGU5fWXyv4Oj3tnzFKJ/szVtcbYh6VtaMX4LNrXa0//Xi1Df3f/33SuWT02f3/P38/9ts7db71zmj4PjddS/TanMhfOm30paD9I7Zi9mTO147PUjmyN+Gm6r6uvq/Ad/SiPT/3urhuvwnRzXlvaFwLz+5fOjJdBPqsntW29Wfft2cYfl4m6DumPyxij9Rin9URfNv2HimKcYhmQP1S0WDVG/lDRxtVtGGXzM+jsvxTUBmeVZzP0+2FRP2A8f3Z8NWO0HuO0HuO0mj/1v746Ku9G3YZRBHT6ypnbgWC7b3+dddWbQ2GMh48+LV545fXio189qh+5uKgj6oo6D4kxWo9xWk/0KT6Z5sMNjVPU9fHDw/ue+9GraYw+2tAYpbr24TcxAjpHqrvkoikrl1hMQbbMY/ESHriYB7/4oHj5b9+61KdwxLlRR9R1iIzReozTeppxuswnusQ4vXLA49SO0SU+0aUco5/szxgJ6AB0xBuz4ofhRWY/45w4N+o4ZMZoPcZpPcZptWaMLvLbhhijeAGzT2MkoAMwJ2aZYllBrNdc581+cUwcG+cc6ixenzFaz0XHKZZrGKfFjnGcop/R37FjFOP68z0bIwEdgEGx9jPeTBWfnhEfdRafHRy/Jo4felHi6/iM4tgXx8Sxh7hOeBljtJ7+OL37/kdz4xRj14xTvDHwkD6xZV3GabVj+Z4T0AFYKgJAzELFH/aIjzyLGawo8XU8Fr82PsYwlTNG66nG6d2BcXqzHqf3jFNinFarxuhwv+cEdAAAmBABHQAAJkRABwCACRHQAQBgQgR0AACYEAEdAAAmREAHAIAJEdABAGBCBPSRoi5FURRFURRF6ZeRmXohAX2k/hOhKIqiKIqiKFEE9BFiwAAAYB8I6AAAMCECOgAATIiADgAAEyKgAwDAhAjoAAAwIQI6AABMiIAOAAATIqADsNTHDz8p7j14t/jr194pzv7HG8WPXnm9LPF1PHbvwXvlMcfMGK1n8Ti9aZwyxmm1xWN0GN9zAjoAgx4++rT4n28+KF768Rvp/9FfFO++/6vik08epx8an5Ulvn7vg1+V++KYODbOOSbGaD2rxulRb5x+mo49xgBqnFY7lu85AR2AOQ9+8UHxwiuvl7NQ8UNvlTgmjo1z4txjYIzWM3acQjlOL79WPPilcVrm2MYpxihmydcdo/x77ud79j0noAPQEb82fvlv3yo++tWj+pH1xTlxbtRxyIzRejYzTu/Vjxwu47RaM0YfXnCMXinHaH++5wR0AFoxQxU/BOPXxBcV50YdhzpLbIzWs4lxevTJp0czTrF85aJinCKAHuo4tWP06HLfc6/8ZH/GSEAHoBTrNONXwReZxeuLOqKufVz7uYwxWs+mxymWNRzqOEXfLjIr3Bfj9GKq6+OHh/c996NX0xh9tKF7KdW1D+v2BfSRzm9eLz739Bdm5ZnbxXm9b3PuFqdR98ndenv/leOWjVU1jjeKs3p74+7cWFF/NcbXbt6vt3elasfpnXqzo74PsjJ83Pz4FsX94tYzef+209/+90PZvnu3i9PmOuXzcL24da/a3Jiy3mxsUt8fRJ9vNt8zqb+fz/ZnZTYG6fgvf3HwmLZEvSP/g9xn8WaqTf6aPOqKOg+JMVqPcVqPcVot3gi7jTEaG36vmoB+IVMJd/uhDXF1gJyFui0G9KVmwXfXz2F/bIZUxyweq9V1bKO/TZ3ddp2dZNdpQ/RmA3p1jV6d6UXBtbhWGdRnYmyeyh4rt9txiBCf2t/8B5ja+1Tqz0vNdtQZY3okAT1mlOITD9Z9c9o6oq6o81A+ZcIYrWcb4xQOcZzOUp+ePNnsOMXHDP7qQMapHKPUn02OUdyX8XGVv/p42mMkoF9IFU4WzWbuh9SHS87Qn52sH7DLEJkFyFWhcxu67a2ew90G9Jjlvp6ehxiLxSG2P3ZDVh+z2f5WIXn4+Yu2tNe57Ax6PhufVPfNovrSeJ50xyCOzwN685uFsu2f3S1u5ePRD+jJ2c3l435IYlYpPpZs06LOQ3kzpDFaj3Faj3FarRmjzb6ESeF3D8ZIQL+Q/Q/oZcC6TEAvg9ceBfS59k4goEeb4jmoZ38XtaU/dkNWH7PB/q5ob3mt5t66VECvwvTsOlUfxty38wE97v1Y1jLQpoGAfkziD3vEZwdvWnxGcdR9CIzReozTev5my+N0CP+V/c3rWx6jCQ+SgH4h6wX0KoTGbF0qeXhqQ0szm9fbPxdMQnZsWZqwWYeWujRtaq89F9q6xw+e03u8r1nG0JY6MPUfz8/vB8jqWkN9mA/tebvKMSnHrz6+qbN9rDo/v95we6trRn2z+pcHycX9G19XiPqaOsq6556rSt6XReaPqdo01MYwa2d+n+XPw+Lnvzl30f6Olfd695rt898sWWlLquPPqud41t7Voq2LZ9DrhxpHHtDj18iX+bSNRaLOqPsQGKP1GKf13P3rNy71yS2LxDjdTeM05fC5rrt//ealPrllkXKM0vhvehnWJgnoF9IPP/MiGORBogxgEQzzcNmEuDqMVPXNgszs/H5gz0JG/Uhbfyu1ceFMY31+tr8f8FaFsGp/FqbLfvXa069vrv76+Di3E9oG9Oofeg6a5QhN2xderzQLhtW4zo9Jx8L+dQPmWnWFeM7zPtf3xdB498duSPeYWZtm9VWP5e3rXiv2Z+NT3pPDLzKa8V10b3TU/Rq+1/v3bd7Gge26rtn+RvP9MCund6r/1aKtQ2vQ45pz/++l+o85oMcnSWzjh1XUGXUfAmO0nm2P06F8i7746usbX38eYpyi7i08BVfuxVd/lsboSb21OdUY/Wwr9+mmCOgXUgWHxQGl2p8HhqpkgbQTfvr1VYGjG0zycJn0gs5coErnLG5fP0AO9Wd5yKxCWq9NpSwsZaGyGyBn59+Kf5cF2Va/jfUYZ33I1xMvut6svdX5edibf5EzZKh/4+uK9nSDZr8/M/2+DJk/Zni8rqUXMacDwbsan7pfWZkPw7NjF99fmZX3eq2+n7vX7I1rWddwm0pp/1O9vkVby0CelzTGg//nlecL6JvWhKpDYIzWs+1xOpRvUQF9NQG93lhTHZV3o27DKLsJ6PMhqLUytHQDehWI+mG4F146gTp93XuzXFd+bNIP+7X+LHhuqE3l8XW/yv39gNzfjrBUlqGgPy8Pvec3U7i/k70oSV/3g9n89S4X0Bf3b2xd1fGd0NiW+bHo92XI/DH9e6p7zX7ILc9f0veOVUE5t/Jer9tVtr173zf7+tsLx6IO2PnSlehXfw36Qkce0C1LWM0Yrcc4rccSl9Uscak31lRH5d2o2zDKrmbQF+4fGdCbQNStb+AaTb0prOaffDGvF9Cb4NMLaMtCZhnosjDZD4hrbZfn121ZFLpyZf/qc8rPu56NU//TNhZfr1H1OQ+ZK/u7sD/j6ir7MbRvwQul/rWHzB/Tvz+yNg7cT+tcY6Z+zjrjmUvXaupq7snBe332/FX62wvGtfdYK11LQL+4eMNUvHFq0+INXofyxj5jtB7jtJ54k+g2x+kQ/iuLN4ludYwmPEgC+oX0w8+8MvB0gkkKF02IXBpawnBwWRaIK6uC00wbIFMovJWuW7U3a0N/yUxf2Ye4TrpmCsvV+c1163Zk7evu72/PB7Fh9TidzGbLq3G4PveCpH+9fnsXhr+1XpD0+zemrjh28bhWATRrd1L1sf9cd831d65N3e1Fx3faXN8bg+oXE/22VvVkjy291+txbK5Z1zlrc7W/3G5/Q1KfU7e1839XHbDnAnrvsYXK81Nb3663j0x85Nj2PvJtc39kZJeM0XqM03qM02rNGG06R1cfszjtMRLQR6qCTR0QoiwJTs1sX1PKUFIGluaxCC51MKpLFU6yYNLKgkmURdeN+heEzFzbj7kQ3VxjSTgPbUCrj2u3q8eqz/aOr28Uf96pd377rAmHdVn2wqcc07zv5XW7be32ow6LnfbOj3nnuRoa24X9+8PiH7WPr6irU0e/n73nt9zfbWf1WH14Zr6//f79+Vx/O+c0bey1b3AcOubb3I53WONe77bjRnGahe/QjmX/nu7U3ZT8PkjX6v0l0eaNo/NSP3p/UfTazcOZpVvXNv64TNR1SH9cxhitxzitJ/qy6T9UFOMUy4D8oaLFqjHyh4o2rm7DKJufQd+2oYC+phRclgVcgEX82fHVjNF6jNN6jNNq/tT/+uqovBt1G0bZz4DenRVeTzpv6ZtDARZ7+OjT4oVXXi8++tWj+pGLizqirqjzkBij9Rin9USf4pNpPtzQOEVdHz88vO+5H72axuijDY1RqmsffhMjoE9Gd7nAmFnw2ZKKi4R6gJkHv/igePlv37rUp3DEuVFH1HWIjNF6jNN6mnG6zCe6xDi9csDj1I7RJT7RpRyjn+zPGAnoAHTEG7Pih+FFZj/jnDg36jhkxmg9xmk9xmm1Zowu8tuGGKN4AbNPYySgAzAnZpliWUGs11znzX5xTBwb5xzqLF6fMVrPRccplmsYp8WOcZyin9HfsWMU4/rzPRsjAR2AQbH2M95MFZ+eER91Fp8dHL8mjh96UeLr+Izi2BfHxLGHuE54GWO0nv44vfv+R3PjFGPXjFO8MfCQPrFlXcZptWP5nhPQAVgqAkDMQsUf9oiPPIsZrCjxdTwWvzY+xjCVM0brqcbp3YFxerMep/eMU2KcVqvG6HC/5wR0AACYEAEdAAAmREAHAIAJEdABAGBCBHQAAJgQAR0AACZEQAcAgAkR0AEAYEIEdAAAmBABHQAAJkRABwCACRHQAQBgQgR0AACYkKMI6G/ef3d0JwEA4KpFZn0rsmu9va46Ku9G3YZR3jl/v3j46NN6CwAApikya2TXgw/o73/4sPi7dz+qtwAAYJois0Z2HauOyrtRt2G0eCVykc4CAMBViKx6kdnzUEfl3ajbMNqnj5+UHY5XJfGrA2vSAQDYtcikkU0jo0ZWjcx6EXVU3o26DRfWvDKJN47Gp7soiqIoiqIoyq5KZNJNrPSoo/Ju1G0AAABqdVTejboNAABArY7Ku1G3AQAAqNVReTfqNgAAALU6Ku9G3QYAAKBWR+XdqNsAAABMgIAOAAATIqADAMCECOgAADAhAjoAAEyIgA4AABMioAMAwIQI6AAAMCECOgAATIiADgAAEyKgAwDAhEwmoL//4cPinfP3izfvv1u88c4vj6ZEf6Pf0X8AANh5QP/08eMyoD745YfFBx89Kj5+9Lh4+MnxlOhv9Dv6H+MQ4wEAwPHaeUCPUPqL9z4aDK/HVmIcYjwAADheOw3osawjZo6HwuqxlhgPy10AAI7XTgN6zBbH8o6hoHqsJcbDLDoAwPHaaUCPN0ge25rzVSXGI8YFAIDjtNOAHp9iMhRSj73EuAAAcJwE9AkWAR0A4HgJ6BMsAjoAwPES0CdYBHQAgOMloE+wCOgAAMdLQJ9gEdABAI6XgD7BIqADABwvAX2CRUAHADheAvoEi4AOAHC8BPQJFgEdAOB4CegTLAI6AMDxOoyA/hfPF597+gvd8qXvFW8PHdsrb3/za+05X/nm24PHXHUR0AEAjteeB/S3i299aSCQv/G94it16H72L/Ljq/L2N79XvNBuz+oQ0AEA2LW9DugvPFuH86efzwJ3VWYz418rvvVGtq8M7/nxAjoAANOxxwH9peLZMoCn8uxL8/uzWfRZ8G7OEdABAJim/Q3o2brz4WCdBfhy+Uu23ZQy2OcB/aXhJTP9+rJZ+XwNe9TXbq+5Bn6oCOgAAMfreAL6G28Xb7fnDM+gV8F7tj1bv96dea9C+KyO2VKbqi3ltoAOAMAFXCqgv//hw+Kd8/eLN++/W4bKi5ShgLpWGT2Dnp+zbInLwJKX5rxmKU293QT4NqAPLbW5QBkaJ0VRFEVRFGV5iUwa2TQy6j67UED/9PHjsvN/9+5HxcNHnxaffVbvGCkGciigrleyAL7uGvQLBvTOMpasNPu3EdABABgnMmlk08iokVUjs+6jCwX06pXJx/XWxV0uoOfBOQ/cS/ZdNqAvWLYioAMATEtk1cisF5xH3qnRAT1+ZRCvSjbhsgE9ymA4bmfPhz5iMR5PAT19/exgIJ8P6PlsfLsuPYV9M+gAANMVmXUfl7uMDujxSiR+dbAJmwjoZWlnxrMyONs9C9/N/u7yla8Vzz7b3W4DfhbSy1KH8f7yl6E/jDS2COgAAJcXmXUfZ9FHB/RYfH/RNed9GwvoB1YEdACAy4vM+lZk13p7X4wO6JsMjwL6cBHQAQA24837v9zY5PJVEdAnWAR0AIDNENBHEtCHi4AOALAZAvpIAvpwEdABADZDQB9JQB8uAjoAwGYI6CMJ6MNFQAcA2AwBfSQBfbgI6AAAmyGgjySgDxcBHQBgMwT0kQT04SKgAwBshoA+koA+XAR0AIDNENBHEtCHi4AOALAZAvpIb95/t/j40XBIPdYS4xHjAgDA5QnoI71z/n7xwUePBoPqsZYYjxgXAAAuT0Af6f0PHxYPfvnhYFA91hLjEeMCAMDlCegXELPFv3jvo8GwemwlxsHsOQDA5gjoF/Dp48dlKI2Z41jecWxr0qO/0e/of4xDjAcAAJshoF9CLOuIgBpvkIxrHEuJ/ka/LWsBANg8AR0AACZEQAcAgAkR0AEAYEIEdAAAmBABHQAAJkRABwCACRHQAQBgQgR0AACYEAEdAAAmREAHAIAJEdABAGBCBHQAAJgQAR0AACZEQAcAgAkR0AEAYEIEdAAAmBABHQAAJkRABwCACRHQAQBgQgR0AACYEAEdAAAmREAHAIAJEdBHOr95vfjc01+YlWduF+f1vtKdG4v3Xbm7xWlqx7Wb9+vtiSrH7EZxVm9uW/kc7vy5uYj7xa1nLv58np2ke/Lkbr21WdX3xdU9h1cvjf2Xv1iO3579f3k5924XX/389eLW21vudXmdNL7l/503ipf27afSRdz54+LX0th+J43tUd1TU/FCGv/faO65VL5xVjw5hvuOvSGgX8iC4Jt+yFxrgl98nY45vVPu2YGqjfEfz6QDevuC5mrCXfsCay8D+sWV4Tz6vYWAPnvReqgBvQ7n9fj5Eb5pd4vnPp/unfInUXz9xeLat97Zux9Mo5ThPO4pAX0n7v2g+L3Tu7NAHtsprF/71r30WPUQ7JqAfiFV+O2H7zKobGmG8mLMoA/Z3xn0y5nyDPrZyQTDfXqRfdp+7xzpDPpVSGH1qS/fLh4c28CaQd+dMpB/vfjOW0/qsb9ffPd3frN46sQsOtMhoF/IcEDfZgC6GAF9iIC+eZcK6Ff8/K+nCuTXbr7T2RbQN+/8218vnkrfjwI6u/NXxXO/8cXi9L+nwO7JYCIE9AvpB/Rqu/o1f136Qahe8lLtv17culc9PL/0oFdXGyRnjzeBe/WyhVlArwJUHD+7dmjrqEvVp24bmn6uamv/BUtu+Dq1fkArt1M7b8a/6fiBMejXsbT+CFfP1PtSXWdtQB+urx2r9rq5uq4Yg7Kd2bnZc9x9UdS9zuq+Vsdfu3m7Pq95zqrH58duoN5Sdt3U3nKMFt4ruby9UWc2fqlU1589Nru/4tjuNVud+z+Vemz7z9t8+8a3ZehaD8q6Qqrv8/F4jGn6emg84vzymKakY9+Oa9QBPY35U/W+0zv5/57pmGYpTCoR7hf933p+M4XS1J9badzKuk7OqmOj7vbasRa7PLx0dvLF9rrltX8423l2Wu2LpSHlbyPaXVWbZuflddb74trZdaPe9pCY3f58tia83I5Q+c6s3me+3wnXZd864xelCqJd/bal0tZVLXVp93Wu0SyD+X56LuOYfsjtnntS96d8IRDtauu6X3y3c/3n635mj38jjU16qHtudszJ94vvpPsijm2uM6cM4s19kbW1Dejdsfx5/hO5c271/M52p36mUFn1/6w4PU335ty+6ryTHzYzxdXjUc+D9Dz9Wvk8pfPfWtD25Oz0N8u+/24656WTP073Vtbect12NT5lXW37h8YntaHp81u9PrfrSrrtjufkL5t9sWa8PTe1KTs32lj1JTu+VM+M1/X97oIlLOff/kfFr5k9Z2IE9AupQkMnKCWrA1D8kK9DRCOFgdmv0fv11uGkDYrVdn7+8mvW57fnVNdvjy/D3SzUlXVloTS2O21N55/dyds6O7cKRU2Q7Flxnc7+8uuqzd1+LbneGv1o64rxfqYJ6JXO/lK61uCY1uPXa195fmw3dQ61p60vew4H+zp7zvI68sfb+yPOz9rZ/c1A7167k8Yrf+5Xmr9Xu/UnaSxv1W2ZvQDMn8fmfujVVT53s37Mwv0iY9qy6FrV/3IRcquvq+NiPIb//0vjnX7gz82gRx/rc8rAnNrQhL1bX47+NrVV5+chulGF8+q57IT4NGZPZe0pj2vqj31lUK72da7dnJe+rsJxc1zV5tk1qu14YfDSZ83XVTvKFwjpoDLolyE0HV6G8dhfB/R2O0qEwvRYGt94c2cb6stj6n1J9cIhC/gD5mfQq4A9e6FQbVftqr8u27C83vLadb8q6dw2xFYBshybbPupfkjPzp+1Mx+7qq/tJfrKQNq0s66z7EfaLvfFPVXXce8Hc2NZntskyvr4JqRH/54rj521tTo0Qm52Xlnv16sQ345dFbg/S33pntsT1zzNQ3hT7/x55f4vR0Cv9zXj04T/tr/Z49G2mLmO8J4OKoN2px/R33t1sJ8/N9aNx3XK8B/XTWH8q20Ij+2vl29wrppY1Xc6N0sex6UXHumkzsOwYwL6hVRhaXxAT8rgMgsj5zdvtKF2LnSETtCprpsHleXXXPf49AMnwkr855dfP8JNZ/tucZa3NY7vlfxa8xZcpzcm3T5X1rveQP1lQOuGv3IM+v3Mr5eu339uZ+prZGM497wNtL9Uh8VOuwePnX/eKvl9l/W1U+q6ot68TQPtXqXfr+o5mLX1/Obt7D6Ofdk498e0Ufa3auv6AX1cW1rpWk0YyQN61DObUV8kjfVQQE/j1/x/GW3oBujmOchKdnyumUGfm83un5/62ITdSnZc59r945Ly8fwaSXpevlq/cIhgV9aVh9D8RUFIwWh4Br05oArMTagcPn+gbZl+QJ8P7EmnnuqaK99IWvY13SPpnPKwVMdz6T5ovu70K3QC8iyAtmPTtisemO1vAuq86pjZC42e1IbuEpc6QGbX/2qvj80LqJilzr/OVUG6fx81gbwJvbN6yxnyRf1o2jg3wz7f/1lAjwcWjM9cfU2fe6G5Du5xn8esd7mvnUFfdG66ZruOPG32P6WlKfWsfysdV94X+WMwAQL6heRBaWatgF6fW4Wv9HV2/FxwDHWoq66Vn1u5bEAvt+ug0w9B8R9ehLqmn2cpBHUC0sq+ziy9Thna1gjoS663qP7y6174m7t+3c+q/vT1Sb6vLz+2MtyfvP3V81AdU52/qYDevwcb5Xh0+lg/NuI564bsdO107qyOdP2bvTFYFtDr+7g6N+/H8HM0Z0lbyqCZtSW/1mdxbATSOqC3+8rSH/dcdd6ogN58vYZFAb27ZKarWuJSBbpuEK7ObcJ9Gb7So+Ux/YCe+tWG2+a8FGiaHwKXDej97bn6BvQDeRM8O+ek520WnrM+LKk3xqUJieXs6mn6fqiPL6/ZD+idevNzq73jA3p/bHqWBvTq634fq/Cd2h0XrV9QVM/7rJ7ymIXtmq93aUBv+lnfW1XIzx7Pziuve+mAXm2XLzyevNPOiJf7LhLQv3w7Wz4z7PyFv0r3xfJjYBcE9AvpBozGugGoDSTph3peR/V4LzT0g0n8AN5QQC+vl37gNCGuvx3ax1I7muUMYejYRVZepwypawT0BddbWv+6dTXH3cmXHA1JoWZUQK+Onz0Hve2B9g09b5X8vuvX21W2qRd6170/Z7JrpHEp21i2N9U7dD/k1xu4b2f3end7qK3z1m1LqjsP5HPbjerxcuzfrh/qqPaPm0Hvh+HFFgX02XKUrn7QXRR8y3Ab904EqbJNqe+dgJhCTRsaq2tGoGl+CFw+oNd1lGMbpR+C582Cb7bduUaSnuPZ57FX11wd0JOmvT+svq/b48vH++vGu2Nz+YBeHdOfBW81YXUwoNf192bIuyG4UZ3XvHh7MHhMozp2/YA+Ux6XxmzR0pjLB/R0Th7Io47LBvTfuFGuSa+OH3Y3BfTPmsGACRHQL6QbMBplAEr/gQ+FyK7q/Plj5x/vhqoqpLTbZQhK21EGg1dVXx7i5gJ6G4zquhe0KZa6dANU3db8ur3Q1lh5nX5I7W+XFl9vef39Ma23O4+F+ry2nkV6z0FSXn9hf3rH189Z+5ws6et8+O49Xp7bvQ/bpR7NvdG77uJ7ZVjVt/RCsp2hrtuQ+puPU/c5SMrrNf1a0e5yO85NY5XPhPes15b0WBmsZ9eKwDpb4pKPdRybtgcDempLChhlQC9fEMTzuCSg18fHfTALzXdTf/rPYWU+oCfR1jpQN5rns3t8da322um8r6brNGdFSK+Cfn1cdp1uAK/3p0DT/BAYDuhV8BvcTn3sBPTYH2PU7F5DFcjzIF/Vmc+ily882nZW+9cK6KmPZVAsxyA/eP7xbgCvr1m2IbbrNqV7qXqj6GzslgXbqm/VeDWHnZ3GGy3T1tKAnpT7835295+d9tdXN9vVcU/lSznu/aD4bvoeGJqZX7XE5atxL2XHNtvlee0LiPqa9fi069D79TZ9XhLQ23PqZS7lGvTYHhvQm+1oT9uIu8V3v529UIMJE9BHqoJIHXTK/4wimFVBIX+8H977op75ABZ6dfXDVB1uypKufWvhrGi3nrhWGc6zc2NWPP91/2kKL9XX3ZC6cOa1c34q5VgMWHadvD8R6P6st50H10XXW9WPzv7qkzMG2xptGRzLRvqhXIb4uqRju/fDQH9S+zvHRMBs6rj+h7PH277OP2+V4cf792Pnnlp2rzT7Fj1njXrs8vu5fz/MjUHveYpzO/feSRqD+uuyve3xvee7b0lb8v/DynXmdf39a0VAL98smz22SLWkJOr487nn/UHqc7mvLE0ATs9RO3OcP95Vhe3hY7r7on0pDMWO1PdYO1493r3HX/rhjdSn/B7LXyQ0Ib2/r/d4CjVln9prVPXOtlMw+r97229Hf2d1lKGvbGc2/k1J9c//oOm1IZVOGM3qnp3ffXytkL7wRUMT0utrtGG8Vi8hqdr2fPGdbzUvyHrt7q9p7qlCen1sKmWb6/BdPRZj2X0DZ9uvznHdGf8I6F9N92Vzzmz5SdJZ/pJKGZqzEF0f/1Lc403b2rCdiYD+5exez4+pA3S1rx6fcga9N67N+PT7/Fbqc6c997JPlknlmeeLk/oTYD73tf+j+NzSc8+K7ww+J90+N5/y0vaynGX/YnntZc8h7IKAviP5m0OZiBRaV72wOjSDb66Ei0ohrH0jZq5ZlrQLi9oEMGEC+k7cLYY/xo/dub/izaEHpp6NXjaDDONUs9vtEo1WerzzGd1X6X7nzaEA+0JAvzIpALa/Ju8uIWF3ZksvViyvAFa7U735svqeakos47nanzLl+vGyHbF8xOw5sH8EdAAAmBABHQAAJkRABwCACRHQAQBgQgT0C/iDP/gDRVEURVEURWnL48eP66R4eQL6SPEEAABA7mtf+9rGQrqAPpKADgBAn4A+koAOAMA2CegjCegAAGyTgD6SgA4AwDYJ6CMJ6AAAbJOAPpKADgDANgnoIwnoAABsk4A+koAOAMA2CegjCegAAGyTgD6SgA4AwDYJ6CMJ6AAAbJOAPpKADgDANgnoIwnoAABsk4A+koAOAMA2CegjCegAAGyTgD6SgA4AwDYJ6CMJ6AAAbJOAPpKADgDANgnoIwnoAABsk4A+koAOAMA2CegjCegAAGyTgD6SgA4AwDYJ6CMJ6AAAbJOAPpKADgDANgnoIwnoAABsk4A+koAOAMA2CegjCegAAGyTgD6SgA4AwDYJ6CMJ6AAAbJOAPpKADgDANgnoIwnoAABsk4A+koAOAMA2CegjCegAAGyTgD6SgA4AwDYJ6CMJ6AAAbJOAPpKADgDANgnoIwnoAABsk4A+koAOAMA2CegjCegAAGyTgD6SgA4AwDb89m//dhnMBfSRBHQAADatCedBQB9JQAcAYJPycB4E9JEEdAAANqUfzoOAPpKADgDAJvTDuTXoFQEdAIArtyicBwF9JAEdAIDLWBbOg4A+koAOAMBFrQrnQUAfSUAHAGCbBPSRNhnQQ4R0RVEURVEURWnKpsJ5ENABAGBCBHQAAJgQAR0AACZEQAcAgAkR0AEAYEIEdAAAmBABHQAAJkRABwCACRHQAQBgQgR0AACYEAEdAAAmREAHAIAJEdABAGBCBHQAAJgQAR0AACZEQAcAgAkR0AEAYEIEdAAAmBABHQAAJkRABwCACRHQAQBgQgR0AACYEAEdAAAmREAHAIAJEdABAGBCBHQAAJgQAR0AACZEQAcAgAkR0AEAYEIE9Eu7W5w+/YXi9E69uXX3i1vPfKH43MndenvAvdvFtaevF7fu1dtXqmrftZv36+0jse6Y37lRfG5nz806Bp6/ss03irN6c5POb15Pdaf7uS5Hd98AwAAB/ZLagPHM7eK8fmx76nAe11sW0Hdm1j5Ba0AZdGN8phrQB56/ts1bCOip7vkXAlf5YhcApklAv5QINNeL05MI6dsLXec3b2R11yFqkgE9VO0T0BcoQ+i4e6X7/F/E3XSPrnu/DDx/ZZu3E9C79Va/jXLvAHDsBPTLiIARwadc3rClYDG3dEJA32tjA/oGliudnYy5X64woPftdGkWAEyHgH4JEXyaX8eXIWhomUsbyOpgHcsF6uM662/bc6tZxHjsnz3XXZ9bHZMF9LLual9nWUA/UC1pQ6O/FrgqS8JSdu1ueJsPeG3dqc392eDhMegqx7Y5pgma9YuivI39PjRjMnu8bufAubm8nrIfeV+bNraP1XX2x7y9RnosfX3ajMcaz0Wj35/Zcdm5ZcnHPze7l5rS3icjnr+5vuXaepqxnF1zdk82j8Ux6esFLxbiefbCDgAE9IuLAJYHqzqozAflJgTVAaYObu1x5XY3KHZCbFlHvj8LZ3XQ6bw4aK9ZB6p12tC7RhWIF4W+JI7PQlYZJHvhsQ1a+Tj1rhPn5YGsvO6C8Fad223T2clsu9uGWbht+lhtZ+cPjHvH3PWqkJk/v2c3F4x5OQZN3dV5bT/bYxc8F329MZsP0M390B2bmXp/Pq5R57rPX5gbi565NnbHKp7X6uuBtrTSOdnzBwDHTEC/oH64bJLt904AACMQSURBVGcJ++FjRXgJ3WCaQsxJFlQWBLTFASvpB6oVbRg+Pz8+V18/+topzfG9gLcwgNbjNVeWB83ZmKfz2zGYH9P+OI0O6HN11u3NrnlrYYidf45aK56LOf3jO9epLQ35/bbU29GXTlnw/IWha+ZW9KnzAnKBy6+zB4DDIaBfSB3WBksvyKwTyPJj0tcL95Xmw99lA3p/e66+jur6nTZ2zAe8aka+LlnAPe20abU8ZHcC3YKAmgfD8QG9+8KpvN6d7Jz0defcwTFv+j3muejpHT/Xj1JVR/cFY6N/v4x//ub61reqT/XzU43F8Jif3ZndzwBw7AT0i4hAkgXk1lBQXCuQzUJUvmyjNHd+P3DVoe1SAb0Jfk2IWhLGhgJcx+L97TXKtq8IpoOaIHq3+1uG+vH+c9IN2OMD+mwcU5/SNfO+tctbGv0xb7ThtN63xnPR0T++3O4fv6yO/v1ygedvUd8aa/epfp7mxj2N551F7QGA4yOgjxYhY3Gwq2aLszCzbnipg9dccMqCZBUK+4FrUUDPrrmqDbG/F26Xqtua9+E8ta3qc6990f5+W+vtKjR3x3Iu+PY0Ib8/fnOP9wN4bwxms/rd63fV45ReDDTHVGN9ffamz0an/hiD7B4o23LBgL7o+c/usapNi8etfaGS6roV1xnz/IW5NveUbZzV1zwXzTXOTvr9XVIXACCgj1IHkTx8zDTBKdv/J1UQqkqEkiqMNY91w3icPxRcZuec3uldI4WoPAyVoa0OX1VJ9f3ZGm3o9asteUjr6V636ct8+6Lu09Sv2bFZcE1mQbkqC4NqK9rfraPRbVN/LLttO02BdOUMelK2Lw+/5Vj1zuuPeXxCSwqlc/fK3HHL7odG/vzXD/XHeUk4D+24ZMet/fzNtbk6vy9/Hq+lsY02N+2NgH4tq7ffz6Ytq597ADgOAvpkRKhbHrS2JoWwwXDUX2c9CSmwLnnhAACw7wT0qVgUkreumqGdv/Y0g7BP+wAADp2Avkv50pJdhuHOMoamDC8j2YmsfcPLQAAADoeADgAAEyKgAwDAhAjoAAAwIQI6AABMiIB+AX/wB3+gKIqiKIqiKG15/PhxnRQvT0AfKZ4AAADIfe1rX9tYSBfQRxLQAQDoE9BHEtABANgmAX0kAR0AgG0S0EcS0AEA2CYBfSQBHQCAbRLQRxLQAQDYJgF9JAEdAIBtEtBHEtABANgmAX0kAR0AgG0S0EcS0AEA2CYBfSQBHQCAbRLQRxLQAQDYJgF9JAEdAIBtEtBHEtABANgmAX0kAR0AgG0S0EcS0AEA2CYBfSQBHQCAbRLQRxLQAQDYJgF9JAEdAIBtEtBHEtABANgmAX0kAR0AgG0S0EcS0AEA2CYBfSQBHQCAbRLQRxLQAQDYJgF9JAEdAIBtEtBHEtABANgmAX0kAR0AgG0S0EcS0AEA2CYBfSQBHQCAbRLQRxLQAQDYJgF9JAEdAIBtEtBHEtABANgmAX0kAR0AgG0S0EcS0AEA2CYBfSQBHQCAbRLQRxLQAQDYJgF9JAEdAIBtEtBHEtABANgmAX0kAR0AgG0S0EcS0AEA2Ibf/u3fLoO5gD6SgA4AwKY14TwI6CMJ6AAAbFIezoOAPpKADgDApvTDeRDQRxLQAQDYhH44twa9IqADAHDlFoXzIKCPJKADAHAZy8J5ENBHEtABALioVeE8COgjCegAAGyTgD7SJgN6iJCuKIqiKIqiKE3ZVDgPAjoAAEyIgA4AABMioAMAwIQI6AAAMCECOgAATIiADgAAEyKgAwDAhAjoAAAwIQI6AABMiIAOAAATIqADAMCECOgAADAhAjoAAEyIgA4AABMioAMAwIQI6AAAMCECOgAATIiADgAAEyKgAwDAhAjoAAAwIUcR0N+8/+7edRIAgOMTmfWtyK719r4YHdDfOX+/ePjo03oLAACmKTJrZNeDD+jvf/iw+Lt3P6q3AABgmiKzRnbdN6MDeohXIvvYWQAAjkNk1X2cPQ8XCuifPn5SdjhelcSvDqxJBwBg1yKTRjaNjBpZNTLrPrpQQG80r0zijaPx6S6KoiiKoiiKsqsSmfQQVnpcKqADAACbJaADAMCECOgAADAhAjoAAEyIgA4AABMioAMAwIQI6AAAMCECOgAATIiADgAAEyKgAwDAhAjoAAAwIQI6AABMiIAOAAATIqADAMCECOgAADAhAjoAAEyIgA4AABMioAMAwIQI6AAAMCECOgAATIiADgAAEyKgAwDAhAjoAAAwIQI6AABMyGQC+vsfPizeOX+/ePP+u8Ub7/xSUZQrLvG9F9+D8b0IAOzOzgP6p4+flKHgwS8/LD746FHx8aPHxcNPFEW56hLfe/E9GN+L8T0Z35sAwNXbeUCPIPCL9341GBgURdlNie/J+N4EAK7eTgN6/Co9ZuuGAoKiKLst8b1puQsAXL2dBvSYoYtfqQ+FA0VRdlvie9MsOgBcvZ0G9HhTmjXnijLNEt+b8T0KAFytnQb0+OSIoWCgKMo0SnyPAgBXS0BXFGVhEdAB4OoJ6IqiLCwCOgBcPQFdUZSFRUAHgKsnoCuKsrAI6ABw9QR0RVEWFgEdAK6egK4oysIioAPA1RPQFUVZWAR0ALh6ArqiKAuLgA4AV09AVxRlYRHQAeDqCeiKoiwsAjoAXL3DCOhvfK/4ytNfKD6Xly99r3h76NgrLG9/82tlW579i+H9Oyt/8fykxqlb3i6+9aXZ8/iVb749cMwRlPw5eval4WNS2fY9JqADwNXb+4D+wrN1iMmDZhvYv1Z8643u8Vst6brfyoLSZAN6Kk3briqgv/DNMdeZhfSjDeiptPe2gA4AR2WvA3obMp9+vnhhxL7tlCpUTjGMD5UrDegxGzzyOk04FdBTWRLQt10EdAC4ensc0F8qni0D+IIAky17uYqQ14QpAb1XmudBQB9dBHQAOE77G9CzNbrDIS4L8GU4zLbLWfV8rXN3Kcxs9j2VPBzl64KzfW2Qasvzxf+T1dFpX6+OWaDvteebw2uQO21LZXGA7a7l7h+bB/RvZe2fq29he9cYz4H3Bixsb35s1qaFY5cF/nxMvvLNl7J2VL89yZ+f7guo3hj1X0T0n+/8uH5b2u3mNzb5+FSluXb3/nq+c1zevjygz/ow+41Qt98Dz21dun0eVwR0ALh6RxTQ02NtCKxDTrs9C+hNuKnqrOqovq7DXBOW4/rl128Xb78xu9YsDM3CX9u+us3NdnOt9pw8pEbd/fZ22lOd39bdK51+LOnn7Pqz9rbtWbu9C8bzjbeLF5rr9MNvpzTj169nfuyaMe88F1nbm2v3Q3nb37YdzTndsV14r3SuH8d3xzAer7ar45vrl2PVnNteK29f7/rZc9TvQ7M9e87n77GmTZ3nfenYLy8COgBcvUsF9Pc/fFi8c/5+8eb9d8sf5BcpQ6FgrdKGnjyw5GUWmtcP6E3g6W3X57eBKQtp/Wu14XUuPM2222OaPsy1rwm4i9q3qM+Lynz4mw+s2WN5CE7bq9u7aDyHr9MvQ8f0w2iz3bSl2m7C7fy49J+ruWv0+9Lr78Ljs5C9Tt/K0h+nVIbupUV9bo6ZP6ff72Z7Nv6XLUPfs4qiKIoy1RKZNLJpZNR9dqGA/unjx2Xn/+7dj4qHjz4tPvus3jFSDORQKFivZAE8CzltaUNRFmZXBsqszk4ZCFapzML4OgF94Jh+6Ou3Z659UWb1rhXE2mt0jx8Kl+1j5XiOae+i8VwvxHavWz3WDat5n/PSXKc/1vNhtt+O+Xb16uj3bS7Qj+xbXlcq82G73+f5Y+bPWXSPrXFfrFniexQA9kVk0simkVEjq0Zm3UcXCujVK5OP662Lu1xAzwJLFnyaMgtGWVhZGSiHgvZQ6QehofP64Wm2PRd4m4DXb89A4G1Lvy/90uwvw9x8cBsKl81j49u7aDxHhtjsmG5Y7Y9lv475/f0wO3eNucA90N+2P3XJwvRgnXmp6y/bM/BczYftfp/nj5k/p9/v2X04PE7ji4AOwL6KrBqZ9YLzyDs1OqDHrwziVckmXDag5wGlE56yYNUJ2v0A2YS0LFC2IagT3CJYxb9ZUC7PbbbzcJe+fjbOnT3WhqU8tKXtJuDNB8K63v52GcBmIa86fzigd8LeQD/bcNme37Q3q29seweu0z4W45m+7jwfTRnsZ2zPX7sbcpvj58e6H2bb8+cCeVNffc3O/qwfA2W+zqbM2hP9HW57tX927vyLqH4f+ttD/Z6/VhyTPacji4AOwD6LzLqPy11GB/R4JRK/OtiEywf0qsxCSV6Gw1UbcqKkAFYFw/h6FrI6x7T1pKATn7hRB6IoTSiKMmtDdXy/TU0wXfR4HrbKkkJVfq2qfSnELfnUj7x0rpNeMLR11/2M/dH+bnvmg9zi9lZl9XjOwnbnRVS/tOE+SupjVu+qses+nsY//wScOO6bzQuAurTtyNoWJbsHZi8a+qW+Hzrt7d4LUfJx+Uq6fn8M2v35mOX3bK/+eN4726nvi8Zj+P69WBHQAdhnkVn3cRZ9dECPxfcXXXPet6mAXpUs4OZBS1EuWLpBNyvLXmisWdq6N1DXNouADsA+i8z6VmTXentfjA7om/yBvdmAnko+6ymkK5cpMYM9cA+Vs9YCOgDsjTfv/3Jjk8tX5bACell6yxZS6S/LUJTVpbfkqC79pSwXKf2lKVMO6QI6APtOQB9pOwFdUZRNFQEdgH0noI8koCvKtIuADsC+E9BHEtAVZdpFQAdg3wnoIwnoijLtIqADsO8E9JEEdEWZdhHQAdh3AvpIArqiTLsI6ADsOwF9JAFdUaZdBHQA9p2APpKArijTLgI6APtOQB9JQFeUaRcBHYB9J6CP9Ob9d4uPHw0HA0VRdlviezO+RwFgnwnoI71z/n7xwUePBsOBoii7LfG9Gd+jALDPBPSR3v/wYfHglx8OhgNFUXZb4nszvkcBYJ8J6BcQM3S/eO9XgwFBUZTdlPieNHsOwCEQ0C/g08dPyiAQs3XxK3Vr0hVlNyW+9+J7ML4X43syvjcBYN8J6JcQv0qPUBBvSotrKIpytSW+9+J70LIWAA6JgA4AABMioAMAwIQI6AAAMCECOgAATIiADgAAEyKgAwDAhAjoAAAwIQI6AABMiIAOAAATIqADAMCECOgAADAhAjoAAEyIgA4AABMioAMAwIQI6AAAMCECOgAATIiADgAAEyKgAwDAhAjoAAAwIQI6AABMiIAOAAATIqADAMCECOgAADAhAjoAAEyIgA4AABMioAMAwIQI6AAAMCECOgAATIiADgAAEyKgAwDAhAjoAAAwIQI6AABMiIAOAAATIqADAMCECOgAADAhAjoAAEyIgA4AHKR3zt8rXv3J28WPXnm9eOHl1xRlYyXuqbi34h7bBgEdADgoDx99Uoann775oPjgo4cp6OxZ0mHy4p6KeyvusbjXPn74Sb1nMwR0AOCgbHNmE/qa39Rs8oWggA4AHIwISzGrCVfptbcebPRFoYAOAByMmMmMpQdwleKe+/EGZ9EFdADgYLz4yuvFk31LNuy9COYvvvozAX0MAR0AjsOPXn6tEM/ZhfhkFwF9BAEdAI6DgM6uCOgjCegAcBwEdHZFQB9JQAeA4yCgsysC+kgCOgAcBwGdXRHQRxLQAeA4COjsioA+koAOAMdBQGdXBPSRBHQAOA4COrsioI8koAPAcRDQ2RUBfSQBHQCOg4DOrgjoIwnoAHAcBHR2RUAfaZMB/ezkC8Xnns7KM7eL83pfcedGd9/J3XoHAHAVBHR2RUAfafMz6HeL00UB/N7t4trTN4qzehMAuDoCOrsioI+0lSUu9Wz5tZv36wfC/eLWM9eLW/fqTQDgSgno5P7zf/lvxTf+6D8UT548qR9Z7t/9p9vFn/7Zfy2eXCAdC+gjbWsNerXcZTZbfn7zei+wAwBXSUAnFwH9H/z+Py+u/9M/Kh6vCOkn/+Y/lsf+2z/5Xgr0AvpYE3qTaL7UJb7uL22JGfV6PXpZmv3Z4/UymQj35Xa7pr0+5uR2e+zpnXJHV7mkpq6rc36lrbdTsln+zrp5S3MA2G8COrnzX7y7Vkhvwvm/+Ff/fu3Z9j4BfaTtBfQmAF8vrqUQ3Q3QVcCezag3obwX0rN17GVdZcDOAnwepuf0rlGH9bYdZfiend+f8S/3D14fAPaTgE7fqpC+iXAeBPSRthnQh4J2qQzHvRnpToBeFtDDgnoXyWbCm4A+F7g7gT1/EZAXa+gB2F8COkMWhfRNhfMgoI+0i4Bezaz3l4xUS2KqGe8NBfRmiUt5XFX/bCa/uz1U/+xYANh/AjqL9EP6s//6TzYWzoOAPtLuZtD7ATgPzJsI6MsDeaheKKR6ypK/YKjq96ZWAA6JgM4yeUj/+//wDzcWzoOAPtJOAnrzeBaKuwG8XhPeblfhugzS5WPrB/Q2ZPdfFMT2svMHXkSc37zdm/UHgP0hoLNKE9LHfPziOgT0kbYW0OuAOyv99dtNSK9LFs5LnU9guVHcagN877wlIbvzl01PbrQhvwzt/U94aUpWX3eG3Yw6APtNQGdXBPSRtjuDPmHpBUQ+O966c9sbQQE4SAI6uyKgj3ScAX1+PXolPb502QwA7C8BnV0R0Ec65hn0fPlKVfqfLAMAh0NAZ1cE9JGONqADwJER0NkVAX0kAR0AjoOAzq4I6CMJ6ABwHAR0dkVAH0lAB4DjIKCzKwL6SAI6ABwHAZ1dEdBHEtAB4DgI6OyKgD6SgA4Ax0FAZ1cE9JEEdAA4DgI6uyKgjySgA8BxENDZFQF9JAEdAI7DiykkPdm3ZMPei2D+4qs/E9DHENAB4Di8+pO3iw8+elhvwdWIe+7H6d4T0EcQ0AHgOLxz/l7x0zcf1FtwNV5760F5722KgA4AHJSYRd9kWIJl4l6Le25Ts+dBQAcADsrDR5+UgSlm0mPpwSaDE4S4p+Leinss7rWPH35S79kMAR0AOEjNzGZ8usYLL7+mKBsrcU9t8zc1AjoAAEyIgA4AABMioAMAwIQI6AAAMCECOgAATIiADgAAEyKgAwDAhAjoAAAwIQI6AABMiIAOAAATIqADAMCECOgAADAhAjoAAEyIgA4AABMioAMAwIQI6AAAMCECOgAATIiADgAAEyKgAwDAhAjoAAAwIQI6AABMiIAOAAATIqADAMCECOgAADAhAjoAcJDeOX+vePUnbxc/euX14oWXX1OUjZW4p+LeintsGwR0AOCgPHz0SRmefvrmg+KDjx6moLNnSYfJi3sq7q24x+Je+/jhJ/WezRDQAYCDss2ZTehrflOzyReCAjoAcDAiLMWsJlyl1956sNEXhQI6AHAwYiYzlh7AVYp77scbnEUX0AGAg/HiK68XT/Yt2bD3Ipi/+OrPBPQxBHQAOA4/evm1QjxnF+KTXQT0EQR0ADgOAjq7IqCPJKADwHEQ0NkVAX0kAR0AjoOAzq4I6CMJ6ABwHAR0dkVAH0lAB4DjIKCzKwL6SAI6ABwHAZ1dEdBHEtAB4DgI6OyKgD6SgA4Ax0FAZ1cE9JEEdAA4DgI6uyKgjySgA8BxENDZFQF9pE0G9LOTLxSfezorz9wuzut9xZ0b3X0nd+sdh+JucZr6dXqn3gSAiRHQ2RUBfaTNz6BXQXUwgN+7XVx7+kZxVm8ejrrPAjoAEyagsysC+khbWeJSz5Zfu3m/fiDcL249c724da/ePDhm0AGYNgGd3H/+L/+t+MYf/YfiyZMn9SPL/bv/dLv40z/7r8WTC6RjAX2kba1Br5a7zGbLz29e7wX2QyOgAzBtAjq5COj/4Pf/eXH9n/5R8XhFSD/5N/+xPPbf/sn3UqAX0Mea0JtE86Uu8XV/aUvMqFfLQqrS7M8er5fJRLgvt9s17fUxJ7fbYxcF47l18WXpvnBoH59bMx8z/ll78v0hW1d/emcgoHfW3Wf9b+q+We/v1wsAWyCgkzv/xbtrhfQmnP+Lf/Xv155t7xPQR9peQG/C7/XiWgq43QBdhd7ZjHoTgnshPVvHXtZVBtksMJcBuj5gQHX9Xp1ZGI79+ax+Gebjmp1gXV+jXD+f9aPcnl3/LOrK90cdQ+3P6872A8C2Cej0rQrpmwjnQUAfaZsBfShol8qQms0oh04AXhbQw4J6e9rAXesG9nqGf67U+5tZ7vYFQHeGPOruLNkZan+n3ih1fXN1A8D2CegMWRTSNxXOg4A+0i4CejcoN6oAXIXezQT0uVnuTmCP6y0JyUsDet7WRr6/al8T5ucI6ADsgIDOIv2Q/uy//pONhfMgoI+0uxn0foCdD7iXDuhJZw16tryle70BSwP60PXn93cDfEZAB2AHBHSWyUP63/+Hf7ixcB4E9JF2EtCbx7NZ9G4Ar4N1u12F31nIXi+gR50LQ3JSzeR3g/LZzfqaSwN6c+78dvvYwIuQ81T38PIZANg+AZ1VmpA+5uMX1yGgj7S1gF4H1FnpB9ImpNelM7ud1Gu6q/03ilttgO+dtyykz7WhKnlo78ywp5KH66pEu7MXCKk05+fnXkvhOw/wIQ/t7XlzddcHA8CWCejsioA+0nZn0Hfr/GYK9gMBuJ3JBoAjIqCzKwL6SAcb0HtvEG2lx0+XLHsBgEMloLMrAvpIhz2D3l1iUpb+UhoAOBICOrsioI90yAEdAJgR0NkVAX0kAR0AjoOAzq4I6CMJ6ABwHAR0dkVAH0lAB4DjIKCzKwL6SAI6ABwHAZ1dEdBHEtAB4DgI6OyKgD6SgA4Ax0FAZ1cE9JEEdAA4DgI6uyKgjySgA8BxENDZFQF9JAEdAI7DiykkPdm3ZMPei2D+4qs/E9DHENAB4Di8+pO3iw8+elhvwdWIe+7H6d4T0EcQ0AHgOLxz/l7x0zcf1FtwNV5760F5722KgA4AHJSYRd9kWIJl4l6Le25Ts+dBQAcADsrDR5+UgSlm0mPpwSaDE4S4p+Leinss7rWPH35S79kMAR0AOEjNzGZ8usYLL7+mKBsrcU9t8zc1AjoAAEyIgA4AABMioAMAwIQI6AAAMCECOgAATIiADgAAEyKgAwDAhAjoAAAwIQI6AABMiIAOAAATIqADAMCECOgAADAhAjoAAEyIgA4AABMioAMAwIQI6AAAMCECOgAATIiADgAAEyKgAwDAhAjoAAAwIQI6AABMiIAOAAATIqADAMCECOgAADAhAjoAcJDeOX+vePUnbxc/euX14oWXX1OUjZW4p+LeintsGwR0AOCgPHz0SRmefvrmg+KDjx6moLNnSYfJi3sq7q24x+Je+/jhJ/WezRDQAYCDss2ZTehrflOzyReCAjoAcDAiLMWsJlyl1956sNEXhQI6AHAwYiYzlh7AVYp77scbnEUX0AGAg/HiK68XT/Yt2bD3Ipi/+OrPBPQxBHQAOA4/evm1QjxnF+KTXQT0EQR0ADgOAjq7IqCPJKADwHEQ0NkVAX0kAR0AjoOAzq4I6CMJ6ABwHAR0dkVAH0lAB4DjIKCzKwL6SAI6ABwHAZ1dEdBHEtAB4DgI6OyKgD6SgA4Ax0FAZ1cE9JEEdAA4DgI6uyKgjySgA8BxENDZFQF9pE0G9LOTLxSfezorz9wuzut9xZ0b3X0nd+sd03J+83q33WOV/bxRnNWbADAVAjq7IqCPtPkZ9LvF6aIAfu92cW3C4bUM5/0XFgBwIAR0dkVAH2krS1zq2fJrN+/XD4T7xa1nrhe37tWbEzV2Bv3sZDovOM5v3hgxvumF1ER/iwHAdgjo5P7zf/lvxTf+6D8UT548qR9Z7t/9p9vFn/7Zfy2eXCAdC+gjbWsNerXcZRZeI/h2A/s0jQroU1rOUv52Yv0XQOXzI6ADHBUBnVwE9H/w+/+8uP5P/6h4vCKkn/yb/1ge+2//5Hsp0AvoY03oTaL5Upf4uh9kY0Y9QnxTmv3Z43WAnF96Uh9zcrs99vROuaOjOu9Gcas5vwmknfXw3XbNBfQy+DbHplLvm1tvn7e1F/Db9tclb2vTxrNmvLK6BrXtSeekr0/Ti55+/YvaWF03u05d/tlzzfn1WLTXyAL/wHUB2C8COrnzX7y7Vkhvwvm/+Ff/fu3Z9j4BfaTtBfQmfF4vrqUQ3Q3QVcCezag3obwJy00AnwXVWfDNAvySGeM8tHZm7iOcD9Y7tN1rZx1Sm75U12janF1zYX2zY6KO9viy1PWULx4W9Sva0+yrgnbbtv55vdn9Mqz3+jU3DtnxVV+b+pZcF4C9IaDTtyqkbyKcBwF9pG0G9KEgWOqFx1In/C4IkEsC5pC50Nmc14bipsyCbfc6mbLN1fGLAnronl+F2aEXJ03b5+roBOO+Jf1eGOyzPl8qoC+4LgB7Q0BnyKKQvqlwHgT0kXYR0IeCbXdmdkGA3FBA7wbmru51kvqFQ3WtbuAe6kfn/M6Ljpl8NnuujqUBPcleKHTOGwjo1RKX6rFuvxaM77J2LLouAHtDQGeRfkh/9l//ycbCeRDQR9rdDHo/uObhd7sBfdnyjO51+jPgIwN6fXy/nWVwrh+bq2NVQG80Lxyac3sBvduO/vYFAnqjf10A9oaAzjJ5SP/7//APNxbOg4A+0k4CevN4FvL6gbK7ZroOulHKxy4a0JOBFwfnN29329GeU123u847O7fcjmNTe24OB+5qOzunF3zn2rg0oEe/+8fW29l5Z6k/f9Optx6v/vjG+KXzbkXbegG/mn2PEo8tuS4Ae0NAZ5UmpI/5+MV1COgjbS2g12F2Vvqhsw6Nzf4sPJbKENjsrz+JJQ/nzb4FIb0Jxs35eZjs7psF8KFzZkE1lZMb7QuF8py2jVXfFl2z+/hsHOaO7/S5+yKikvp+cn3BMbMXMeVjnbquF6fpvOrrql3ttdtx747raQr5sxcKy64LwL4Q0NkVAX2k7c6gAwBTIaCzKwL6SAI6ABwHAZ1dEdBHEtAB4DgI6OyKgD6SgA4Ax0FAZ1cE9JEEdAA4DgI6uyKgjySgA8BxENDZFQF9JAEdAI6DgM6uCOgjCegAcBwEdHZFQB9JQAeA4yCgsysC+kgCOgAcBwGdXRHQRxLQAeA4COjsioA+koAOAMdBQGdXBPSRBHQAOA4vppD0ZN+SDXsvgvmLr/5MQB9DQAeA4/DqT94uPvjoYb0FVyPuuR+ne09AH0FAB4Dj8M75e8VP33xQb8HVeO2tB+W9tykCOgBwUGIWfZNhCZaJey3uuU3NngcBHQA4KA8ffVIGpphJj6UHmwxOEOKeinsr7rG41z5++Em9ZzMEdADgIDUzm/HpGi+8/JqibKzEPbXN39QI6AAAMCECOgAATIiADgAAEyKgAwDAhAjoAAAwIQI6AABMiIAOAAATIqADAMCECOgAADAhAjoAAEyIgA4AABMioAMAwIQI6AAAMCECOgAATIiADgAAEyKgAwDAhAjoAAAwIQI6AABMiIAOAAATIqADAMCECOgAADAhAjoAAEyIgA4AABMioAMAwIQI6AAAMCECOgAATIiADgAAEyKgAwDAhAjoAAAwIQI6AABMiIAOAAATIqADAMCECOgAADAhAjoAAEyIgA4AABMioAMAwIQI6AAAMCFHEdDfvP/u3nUSAIDjE5n1rciu9fa+GB3Q3zl/v3j46NN6CwAApikya2TXgw/o73/4sPi7dz+qtwAAYJois0Z23TejA3qIVyL72FkAAI5DZNV9nD0PFwronz5+UnY4XpXErw6sSQcAYNcik0Y2jYwaWTUy6z66UEBvNK9M4o2j8ekuiqIoiqIoirKrEpn0EFZ6XCqgAwAAmyWgAwDAhAjoAAAwIQI6AABMiIAOAAATIqADAMCECOgAADAhAjoAAEyIgA4AABMioAMAwIQI6AAAMCECOgAATIiADgAAEyKgAwDAhAjoAAAwIQI6AABMiIAOAAATIqADAMCECOgAADAhfw8AAAAAAAAAAAAAAAAAAAAAAAAAAAAAAAAAAAAAAAAAAAAAAAAAAAAAAAAAAAAAAAAAAAAAAAAAAAAOwt/7e/8/y+zqlg2uYWAAAAAASUVORK5CYII=;" parent="1" vertex="1">
          <mxGeometry x="2590" y="273" width="744" height="1742" as="geometry" />
        </mxCell>
        <mxCell id="NbFPQuNMTiih6UTvrpNB-84" value="&lt;div style=&quot;&quot;&gt;&lt;b style=&quot;font-size: 18px; background-color: initial;&quot;&gt;&amp;nbsp; &amp;nbsp; &amp;nbsp; &amp;nbsp;4&lt;span style=&quot;white-space: pre;&quot;&gt;&#x9;&amp;nbsp;&lt;/span&gt;&amp;nbsp;5&lt;span style=&quot;white-space: pre;&quot;&gt;&#x9;&amp;nbsp;&lt;/span&gt;&amp;nbsp; &amp;nbsp; &amp;nbsp;1&lt;span style=&quot;white-space: pre;&quot;&gt;&#x9;&lt;/span&gt;&amp;nbsp;1&lt;span style=&quot;white-space: pre;&quot;&gt;&#x9;&lt;/span&gt;&amp;nbsp; &amp;nbsp; 0&lt;/b&gt;&lt;/div&gt;" style="text;html=1;align=left;verticalAlign=middle;whiteSpace=wrap;rounded=0;" parent="1" vertex="1">
          <mxGeometry x="2982.5" y="397" width="299" height="40" as="geometry" />
        </mxCell>
        <mxCell id="NbFPQuNMTiih6UTvrpNB-85" value="&lt;div style=&quot;&quot;&gt;&lt;b style=&quot;font-size: 18px; background-color: initial;&quot;&gt;&amp;nbsp; &amp;nbsp; &amp;nbsp; &amp;nbsp;1&lt;span style=&quot;white-space: pre;&quot;&gt;&#x9;&amp;nbsp;&lt;/span&gt;&amp;nbsp;6&lt;span style=&quot;white-space: pre;&quot;&gt;&#x9;&amp;nbsp;&lt;/span&gt;&amp;nbsp; &amp;nbsp; &amp;nbsp;2&lt;span style=&quot;white-space: pre;&quot;&gt;&#x9;&lt;/span&gt;&amp;nbsp;2&lt;span style=&quot;white-space: pre;&quot;&gt;&#x9;&lt;/span&gt;&amp;nbsp; &amp;nbsp; 2&lt;/b&gt;&lt;/div&gt;" style="text;html=1;align=left;verticalAlign=middle;whiteSpace=wrap;rounded=0;" parent="1" vertex="1">
          <mxGeometry x="2982.5" y="464" width="299" height="40" as="geometry" />
        </mxCell>
        <mxCell id="NbFPQuNMTiih6UTvrpNB-86" value="&lt;div style=&quot;&quot;&gt;&lt;b style=&quot;font-size: 18px; background-color: initial;&quot;&gt;&amp;nbsp; &amp;nbsp; &amp;nbsp; &amp;nbsp;0&lt;span style=&quot;white-space: pre;&quot;&gt;&#x9;&amp;nbsp;&lt;/span&gt;&amp;nbsp;2&lt;span style=&quot;white-space: pre;&quot;&gt;&#x9;&amp;nbsp;&lt;/span&gt;&amp;nbsp; &amp;nbsp; &amp;nbsp;2&lt;span style=&quot;white-space: pre;&quot;&gt;&#x9;&lt;/span&gt;&amp;nbsp;2&lt;span style=&quot;white-space: pre;&quot;&gt;&#x9;&lt;/span&gt;&amp;nbsp; &amp;nbsp; 7&lt;/b&gt;&lt;/div&gt;" style="text;html=1;align=left;verticalAlign=middle;whiteSpace=wrap;rounded=0;" parent="1" vertex="1">
          <mxGeometry x="2982.5" y="529" width="299" height="40" as="geometry" />
        </mxCell>
        <mxCell id="NbFPQuNMTiih6UTvrpNB-87" value="&lt;div style=&quot;&quot;&gt;&lt;b style=&quot;font-size: 18px; background-color: initial;&quot;&gt;&amp;nbsp; &amp;nbsp; &amp;nbsp; &amp;nbsp;3&lt;span style=&quot;white-space: pre;&quot;&gt;&#x9;&amp;nbsp;&lt;/span&gt;&amp;nbsp;4&lt;span style=&quot;white-space: pre;&quot;&gt;&#x9;&amp;nbsp;&lt;/span&gt;&amp;nbsp; &amp;nbsp; &amp;nbsp;2&lt;span style=&quot;white-space: pre;&quot;&gt;&#x9;&lt;/span&gt;&amp;nbsp;3&lt;span style=&quot;white-space: pre;&quot;&gt;&#x9;&lt;/span&gt;&amp;nbsp; &amp;nbsp; 1&lt;/b&gt;&lt;/div&gt;" style="text;html=1;align=left;verticalAlign=middle;whiteSpace=wrap;rounded=0;" parent="1" vertex="1">
          <mxGeometry x="2982.5" y="594" width="299" height="40" as="geometry" />
        </mxCell>
        <mxCell id="NbFPQuNMTiih6UTvrpNB-88" value="&lt;div style=&quot;&quot;&gt;&lt;b style=&quot;font-size: 18px; background-color: initial;&quot;&gt;&amp;nbsp; &amp;nbsp; &amp;nbsp; &amp;nbsp;0&lt;span style=&quot;white-space: pre;&quot;&gt;&#x9;&amp;nbsp;&lt;/span&gt;&amp;nbsp;4&lt;span style=&quot;white-space: pre;&quot;&gt;&#x9;&amp;nbsp;&lt;/span&gt;&amp;nbsp; &amp;nbsp; &amp;nbsp;4&lt;span style=&quot;white-space: pre;&quot;&gt;&#x9;&lt;/span&gt;&amp;nbsp;3&lt;span style=&quot;white-space: pre;&quot;&gt;&#x9;&lt;/span&gt;&amp;nbsp; &amp;nbsp; 2&lt;/b&gt;&lt;/div&gt;" style="text;html=1;align=left;verticalAlign=middle;whiteSpace=wrap;rounded=0;" parent="1" vertex="1">
          <mxGeometry x="2981.5" y="662" width="299" height="40" as="geometry" />
        </mxCell>
        <mxCell id="NbFPQuNMTiih6UTvrpNB-89" value="&lt;div style=&quot;&quot;&gt;&lt;b style=&quot;font-size: 18px; background-color: initial;&quot;&gt;&amp;nbsp; &amp;nbsp; &amp;nbsp; &amp;nbsp;1&lt;span style=&quot;white-space: pre;&quot;&gt;&#x9;&amp;nbsp;&lt;/span&gt;&amp;nbsp;5&lt;span style=&quot;white-space: pre;&quot;&gt;&#x9;&amp;nbsp;&lt;/span&gt;&amp;nbsp; &amp;nbsp; &amp;nbsp;2&lt;span style=&quot;white-space: pre;&quot;&gt;&#x9;&lt;/span&gt;&amp;nbsp;3&lt;span style=&quot;white-space: pre;&quot;&gt;&#x9;&lt;/span&gt;&amp;nbsp; &amp;nbsp; 1&lt;/b&gt;&lt;/div&gt;" style="text;html=1;align=left;verticalAlign=middle;whiteSpace=wrap;rounded=0;" parent="1" vertex="1">
          <mxGeometry x="2980.5" y="727" width="299" height="40" as="geometry" />
        </mxCell>
        <mxCell id="NbFPQuNMTiih6UTvrpNB-90" value="&lt;div style=&quot;&quot;&gt;&lt;b style=&quot;font-size: 18px; background-color: initial;&quot;&gt;&amp;nbsp; &amp;nbsp; &amp;nbsp; &amp;nbsp;1&lt;span style=&quot;white-space: pre;&quot;&gt;&#x9;&amp;nbsp;&lt;/span&gt;&amp;nbsp;2&lt;span style=&quot;white-space: pre;&quot;&gt;&#x9;&amp;nbsp;&lt;/span&gt;&amp;nbsp; &amp;nbsp; &amp;nbsp;4&lt;span style=&quot;white-space: pre;&quot;&gt;&#x9;&lt;/span&gt;&amp;nbsp;3&lt;span style=&quot;white-space: pre;&quot;&gt;&#x9;&lt;/span&gt;&amp;nbsp; &amp;nbsp; 2&lt;/b&gt;&lt;/div&gt;" style="text;html=1;align=left;verticalAlign=middle;whiteSpace=wrap;rounded=0;" parent="1" vertex="1">
          <mxGeometry x="2980.5" y="794" width="299" height="40" as="geometry" />
        </mxCell>
        <mxCell id="NbFPQuNMTiih6UTvrpNB-91" value="&lt;div style=&quot;&quot;&gt;&lt;b style=&quot;font-size: 18px; background-color: initial;&quot;&gt;&amp;nbsp; &amp;nbsp; &amp;nbsp; &amp;nbsp;0&lt;span style=&quot;white-space: pre;&quot;&gt;&#x9;&amp;nbsp;&lt;/span&gt;&amp;nbsp; &amp;nbsp; 0&lt;span style=&quot;white-space: pre;&quot;&gt;&#x9;&amp;nbsp;&lt;/span&gt;&amp;nbsp; &amp;nbsp; &amp;nbsp;&lt;span style=&quot;white-space: pre;&quot;&gt;&#x9;&lt;/span&gt;&amp;nbsp; &amp;nbsp; 5&lt;span style=&quot;white-space: pre;&quot;&gt;&#x9;&lt;span style=&quot;white-space: pre;&quot;&gt;&#x9;&lt;/span&gt;  &lt;/span&gt;&amp;nbsp;7&lt;span style=&quot;white-space: pre;&quot;&gt;&#x9;&lt;/span&gt;&amp;nbsp; &amp;nbsp;&lt;span style=&quot;white-space: pre;&quot;&gt;&#x9;&lt;/span&gt;&amp;nbsp; 1&lt;/b&gt;&lt;/div&gt;" style="text;html=1;align=left;verticalAlign=middle;whiteSpace=wrap;rounded=0;" parent="1" vertex="1">
          <mxGeometry x="2902.5" y="1272" width="366" height="40" as="geometry" />
        </mxCell>
        <mxCell id="NbFPQuNMTiih6UTvrpNB-92" value="&lt;div style=&quot;&quot;&gt;&lt;b style=&quot;font-size: 18px; background-color: initial;&quot;&gt;&amp;nbsp; &amp;nbsp; &amp;nbsp; &amp;nbsp;1&lt;span style=&quot;white-space: pre;&quot;&gt;&#x9;&amp;nbsp;&lt;/span&gt;&amp;nbsp; &amp;nbsp; 5&lt;span style=&quot;white-space: pre;&quot;&gt;&amp;nbsp;&lt;/span&gt;&amp;nbsp; &amp;nbsp; &amp;nbsp;&lt;span style=&quot;white-space: pre;&quot;&gt;&#x9;&lt;/span&gt;&amp;nbsp; &amp;nbsp; 3&lt;span style=&quot;white-space: pre;&quot;&gt;&#x9;&lt;span style=&quot;white-space: pre;&quot;&gt;&#x9;&lt;/span&gt;  &lt;/span&gt;&amp;nbsp;3&lt;span style=&quot;white-space: pre;&quot;&gt;&#x9;&lt;/span&gt;&amp;nbsp; &amp;nbsp;&lt;span style=&quot;white-space: pre;&quot;&gt;&#x9;&lt;/span&gt;&amp;nbsp; 0&lt;/b&gt;&lt;/div&gt;" style="text;html=1;align=left;verticalAlign=middle;whiteSpace=wrap;rounded=0;" parent="1" vertex="1">
          <mxGeometry x="2902.5" y="1313" width="366" height="40" as="geometry" />
        </mxCell>
        <mxCell id="NbFPQuNMTiih6UTvrpNB-93" value="&lt;font style=&quot;font-size: 16px;&quot;&gt;&lt;b&gt;&amp;nbsp; 1 -&amp;nbsp; &amp;nbsp; &amp;nbsp;9: &lt;i&gt;8&lt;/i&gt;&lt;/b&gt;&lt;/font&gt;&lt;div style=&quot;font-size: 16px;&quot;&gt;&lt;font style=&quot;font-size: 16px;&quot;&gt;&lt;b&gt;10 - 100: 1&lt;/b&gt;&lt;/font&gt;&lt;/div&gt;&lt;div style=&quot;font-size: 16px;&quot;&gt;&lt;font style=&quot;font-size: 16px;&quot;&gt;&lt;b&gt;&amp;nbsp; &amp;nbsp; &amp;nbsp;&amp;gt;100: 3&lt;/b&gt;&lt;/font&gt;&lt;/div&gt;" style="text;html=1;align=left;verticalAlign=middle;whiteSpace=wrap;rounded=0;" parent="1" vertex="1">
          <mxGeometry x="3143.25" y="1134" width="210" height="90" as="geometry" />
        </mxCell>
        <mxCell id="NbFPQuNMTiih6UTvrpNB-94" value="&lt;font style=&quot;font-size: 16px;&quot;&gt;&lt;b&gt;30 &amp;gt;&amp;nbsp; &amp;nbsp; : &lt;i&gt;2&lt;/i&gt;&lt;/b&gt;&lt;/font&gt;&lt;div style=&quot;font-size: 16px;&quot;&gt;&lt;font style=&quot;font-size: 16px;&quot;&gt;&lt;b&gt;30 - 59: 8&lt;/b&gt;&lt;/font&gt;&lt;/div&gt;&lt;div style=&quot;font-size: 16px;&quot;&gt;&lt;font style=&quot;font-size: 16px;&quot;&gt;&lt;b&gt;&amp;nbsp; &amp;nbsp; &amp;nbsp;&amp;gt;60: 0&lt;/b&gt;&lt;/font&gt;&lt;/div&gt;" style="text;html=1;align=left;verticalAlign=middle;whiteSpace=wrap;rounded=0;" parent="1" vertex="1">
          <mxGeometry x="3124" y="1734" width="210" height="70" as="geometry" />
        </mxCell>
        <mxCell id="NbFPQuNMTiih6UTvrpNB-95" value="&lt;font style=&quot;font-size: 16px;&quot;&gt;&lt;b&gt;female: &lt;i&gt;5&lt;/i&gt;&lt;/b&gt;&lt;/font&gt;&lt;div style=&quot;font-size: 16px;&quot;&gt;&lt;font style=&quot;font-size: 16px;&quot;&gt;&lt;b&gt;male&amp;nbsp; &amp;nbsp;: 5&lt;/b&gt;&lt;/font&gt;&lt;/div&gt;&lt;div style=&quot;font-size: 16px;&quot;&gt;&lt;font style=&quot;font-size: 16px;&quot;&gt;&lt;b&gt;other&amp;nbsp; : 1&lt;/b&gt;&lt;/font&gt;&lt;/div&gt;" style="text;html=1;align=left;verticalAlign=middle;whiteSpace=wrap;rounded=0;" parent="1" vertex="1">
          <mxGeometry x="3124" y="1804" width="210" height="70" as="geometry" />
        </mxCell>
        <mxCell id="NbFPQuNMTiih6UTvrpNB-96" value="&lt;div style=&quot;font-size: 16px;&quot;&gt;&lt;font style=&quot;font-size: 16px;&quot;&gt;&lt;b&gt;engaged: 3&lt;/b&gt;&lt;/font&gt;&lt;/div&gt;&lt;div style=&quot;font-size: 16px;&quot;&gt;&lt;font style=&quot;font-size: 16px;&quot;&gt;&lt;b&gt;single&amp;nbsp; &amp;nbsp; : 3&lt;/b&gt;&lt;/font&gt;&lt;/div&gt;&lt;div style=&quot;font-size: 16px;&quot;&gt;&lt;font style=&quot;font-size: 16px;&quot;&gt;&lt;b&gt;married : 4&lt;/b&gt;&lt;/font&gt;&lt;/div&gt;" style="text;html=1;align=left;verticalAlign=middle;whiteSpace=wrap;rounded=0;" parent="1" vertex="1">
          <mxGeometry x="3124" y="1884" width="210" height="70" as="geometry" />
        </mxCell>
        <mxCell id="NbFPQuNMTiih6UTvrpNB-97" value="&lt;div style=&quot;font-size: 16px;&quot;&gt;&lt;font style=&quot;font-size: 16px;&quot;&gt;&lt;b&gt;Yes: 10&lt;/b&gt;&lt;/font&gt;&lt;/div&gt;&lt;div style=&quot;font-size: 16px;&quot;&gt;&lt;font style=&quot;font-size: 16px;&quot;&gt;&lt;b&gt;No&amp;nbsp; : 2&lt;/b&gt;&lt;/font&gt;&lt;/div&gt;" style="text;html=1;align=left;verticalAlign=middle;whiteSpace=wrap;rounded=0;" parent="1" vertex="1">
          <mxGeometry x="3153.25" y="954" width="210" height="70" as="geometry" />
        </mxCell>
        <mxCell id="NbFPQuNMTiih6UTvrpNB-98" value="For the topic of surnames, I feel as culture is very important in this topic. Some people are known to have two surnames because of their culture while others only have one. I also think that there is some legal work behind surnames when marrying someone and having children. Sometimes it can be a bit hard using two different surnames while rising a family." style="text;html=1;align=left;verticalAlign=middle;whiteSpace=wrap;rounded=0;strokeColor=default;" parent="1" vertex="1">
          <mxGeometry x="2623.5" y="1564" width="680" height="50" as="geometry" />
        </mxCell>
        <mxCell id="NbFPQuNMTiih6UTvrpNB-99" value="I decided to keep my maiden name as my middle name and I used my husbands last name. But in work settings I still use my maiden name because it&#39;s tied to my brand. Best of both worlds." style="text;html=1;align=left;verticalAlign=middle;whiteSpace=wrap;rounded=0;strokeColor=default;" parent="1" vertex="1">
          <mxGeometry x="2623.5" y="1474" width="626" height="27" as="geometry" />
        </mxCell>
        <mxCell id="NbFPQuNMTiih6UTvrpNB-100" value="The hardest part for me was I didn&#39;t know all of the option ahead of time when I went to register." style="text;html=1;align=left;verticalAlign=middle;whiteSpace=wrap;rounded=0;strokeColor=default;" parent="1" vertex="1">
          <mxGeometry x="2623.5" y="1624" width="610" height="19" as="geometry" />
        </mxCell>
        <mxCell id="NbFPQuNMTiih6UTvrpNB-101" value="Uniqueness" style="text;html=1;align=center;verticalAlign=middle;whiteSpace=wrap;rounded=0;strokeColor=default;" parent="1" vertex="1">
          <mxGeometry x="3153.5" y="1507" width="80" height="30" as="geometry" />
        </mxCell>
        <mxCell id="NbFPQuNMTiih6UTvrpNB-102" value="Shortness and ease of spelling" style="text;whiteSpace=wrap;strokeColor=default;" parent="1" vertex="1">
          <mxGeometry x="3033.5" y="1504" width="100" height="36" as="geometry" />
        </mxCell>
        <mxCell id="NbFPQuNMTiih6UTvrpNB-103" value="tradition" style="text;whiteSpace=wrap;strokeColor=default;" parent="1" vertex="1">
          <mxGeometry x="2923.5" y="1504" width="60" height="30" as="geometry" />
        </mxCell>
      </root>
    </mxGraphModel>
  </diagram>
</mxfile>
